<?xml version="1.0" encoding="UTF-8"?>
<!DOCTYPE svg PUBLIC "-//W3C//DTD SVG 1.1//EN" "http://www.w3.org/Graphics/SVG/1.1/DTD/svg11.dtd">
<!-- Creator: CorelDRAW -->
<svg xmlns="http://www.w3.org/2000/svg" xml:space="preserve" width="68.8463mm" height="34.5394mm" version="1.1" style="shape-rendering:geometricPrecision; text-rendering:geometricPrecision; image-rendering:optimizeQuality; fill-rule:evenodd; clip-rule:evenodd"
viewBox="0 0 1039.6 521.56"
 xmlns:xlink="http://www.w3.org/1999/xlink"
 xmlns:xodm="http://www.corel.com/coreldraw/odm/2003">
 <defs>
  <style type="text/css">
   <![CDATA[
    .fil0 {fill:black;fill-rule:nonzero}
   ]]>
  </style>
 </defs>
 <g id="Layer_x0020_1">
  <metadata id="CorelCorpID_0Corel-Layer"/>
  <g id="_105553320906208">
   <g>
    <path class="fil0" d="M-0 500.41c7.72,0.14 15.95,-1.04 24.71,-4.01 70.81,-23.97 16.8,-138.27 94.38,-188.35 77.58,-50.06 225.86,103.2 338.34,-127.8 36.86,-75.69 87.62,-134.87 139.23,-180.26l-51.94 0c-42.55,42.79 -82.79,95.32 -113.43,159.04 -115.06,239.27 -253.34,75.42 -326.5,125.91 -73.16,50.47 -19.32,155.09 -90.13,179.99 -5.07,1.78 -9.95,2.96 -14.66,3.65l0 31.83z"/>
    <path class="fil0" d="M-0 435.06c1.53,-0.46 3.07,-0.96 4.63,-1.53 70.8,-25.84 17.15,-120.76 85.88,-171.64 68.75,-50.89 197.01,123.54 314.66,-124.02 25.28,-53.18 57.06,-98.89 91.38,-137.88l-45.2 0c-26.98,34.35 -51.76,73.14 -72.27,116.77 -120.24,255.85 -238.5,70.82 -302.82,122.13 -62.62,49.94 -13.6,132.02 -76.27,161.03l0 35.13z"/>
    <path class="fil0" d="M-0 362.96c47.31,-32.27 7.18,-99.62 62.06,-147 59.9,-51.7 168.16,143.91 290.99,-120.23 16.19,-34.82 35.03,-66.66 55.54,-95.74l-40.78 0c-14.82,23.31 -28.55,48.2 -40.78,74.76 -125.42,272.43 -223.67,66.21 -279.15,118.34 -46.67,43.86 -16.47,97.41 -47.87,130.35l0 39.51z"/>
    <path class="fil0" d="M-0 297.17c21.93,-33.19 3.78,-80.02 46.03,-119.86 58.08,-54.94 151.06,124.66 280.15,-124.27 9.56,-18.43 19.84,-36.1 30.7,-53.05l-12.19 0c-6.67,10.18 -13.15,20.59 -19.39,31.23 -131.7,224.49 -220.42,72.54 -281.16,130.18 -36.82,34.94 -30.05,74.4 -44.15,106.04l0 29.72z"/>
    <path class="fil0" d="M-0 233.89c9.28,-27.98 11.75,-59.6 42.15,-88.59 63.36,-60.41 149.35,63.11 282.17,-136.11 2.06,-3.08 4.13,-6.14 6.22,-9.19l-14.41 0c-127.4,158.9 -210.33,69.63 -274.92,131.49 -25.53,24.45 -32.81,50.47 -41.22,74.73l0 27.67z"/>
    <path class="fil0" d="M-0 180.81c8.68,-20.94 18.39,-42.75 40.07,-63.6 63.24,-60.85 141.45,-9.87 254.72,-117.21l-34.84 0c-92.51,60.5 -163,45.55 -221.44,102.03 -18.59,17.97 -29.37,36.52 -38.52,54.65l0 24.13z"/>
    <path class="fil0" d="M-0 129.94c9.28,-15.28 20.15,-30.74 35.7,-45.84 45.7,-44.36 98.79,-57.29 160.95,-84.11l-75.13 0c-32.62,16.95 -62.76,35.97 -90.2,62.72 -12.47,12.16 -22.48,24.52 -31.32,36.83l0 30.4z"/>
    <path class="fil0" d="M-0 69.63c8.01,-9.76 16.71,-19.51 26.56,-29.16 15.14,-14.83 31.08,-28.17 47.72,-40.47l-34.02 0c-6.35,5.77 -12.59,11.67 -18.7,17.7 -7.58,7.44 -14.72,14.94 -21.56,22.46l0 29.47z"/>
   </g>
   <g>
    <path class="fil0" d="M1039.6 16.99c-7.44,-0.03 -15.36,1.17 -23.77,4.02 -70.81,23.97 -16.8,138.27 -94.38,188.35 -77.58,50.06 -225.86,-103.2 -338.34,127.8 -37.99,78.01 -90.75,138.49 -143.98,184.4l52.54 0c44.08,-43.52 85.95,-97.39 117.59,-163.19 115.06,-239.27 253.34,-75.42 326.5,-125.91 73.16,-50.47 19.32,-155.09 90.13,-179.99 4.74,-1.67 9.3,-2.8 13.72,-3.5l0 -31.98z"/>
    <path class="fil0" d="M1039.6 82.64c-1.22,0.38 -2.45,0.79 -3.7,1.24 -70.8,25.84 -17.15,120.76 -85.88,171.64 -68.75,50.89 -197.01,-123.54 -314.66,124.02 -26.18,55.08 -59.33,102.14 -95.06,142.02l45.59 0c28.26,-35.36 54.21,-75.52 75.55,-120.92 120.24,-255.85 238.5,-70.82 302.82,-122.13 62.29,-49.68 14.12,-131.17 75.34,-160.57l0 -35.3z"/>
    <path class="fil0" d="M1039.6 155.12c-45.82,32.52 -6.62,99.27 -61.12,146.33 -59.9,51.7 -168.16,-143.91 -290.99,120.23 -16.96,36.48 -36.83,69.7 -58.48,99.88l41.07 0c15.84,-24.5 30.48,-50.77 43.44,-78.91 125.42,-272.43 223.67,-66.21 279.15,-118.34 46.19,-43.41 17.09,-96.31 46.93,-129.33l0 -39.86z"/>
    <path class="fil0" d="M1039.6 221.71c-20.47,33.09 -3.46,79.13 -45.09,118.39 -58.08,54.94 -151.06,-124.66 -280.15,124.27 -10.34,19.94 -21.54,38.99 -33.38,57.19l12.13 0c7.64,-11.5 15.04,-23.29 22.13,-35.37 131.7,-224.49 220.42,-72.54 281.16,-130.18 35.97,-34.13 30.34,-72.59 43.21,-103.84l0 -30.45z"/>
    <path class="fil0" d="M1039.6 286.44c-8.55,27.25 -11.86,57.69 -41.22,85.68 -63.36,60.41 -149.35,-63.11 -282.17,136.11 -2.99,4.48 -6.02,8.93 -9.08,13.34l13.96 0c129.27,-164.6 213.07,-73.24 278.22,-135.64 24.57,-23.54 32.24,-48.53 40.28,-72l0 -27.48z"/>
    <path class="fil0" d="M1039.6 338.85c-8.45,20.25 -18.23,41.24 -39.13,61.35 -64.03,61.61 -143.42,8.59 -259.02,121.36l32.93 0c95.58,-65.35 167.91,-48.44 227.64,-106.18 17.96,-17.36 28.63,-35.27 37.58,-52.8l0 -23.72z"/>
    <path class="fil0" d="M1039.6 389c-9.08,14.78 -19.73,29.71 -34.76,44.3 -47.99,46.58 -104.14,58.51 -170.37,88.25l76.44 0c35.75,-18.01 68.61,-37.91 98.3,-66.86 12.03,-11.73 21.77,-23.65 30.39,-35.53l0 -30.16z"/>
    <path class="fil0" d="M1039.6 448.92c-7.75,9.38 -16.16,18.75 -25.62,28.02 -16.86,16.51 -34.71,31.18 -53.41,44.62l35.11 0c7.94,-7.09 15.71,-14.37 23.3,-21.84 7.23,-7.1 14.07,-14.26 20.62,-21.43l0 -29.36z"/>
   </g>
  </g>
 </g>
</svg>
