<?xml version="1.0" encoding="UTF-8"?>
<!DOCTYPE svg PUBLIC "-//W3C//DTD SVG 1.1//EN" "http://www.w3.org/Graphics/SVG/1.1/DTD/svg11.dtd">
<!-- Creator: CorelDRAW -->
<svg xmlns="http://www.w3.org/2000/svg" xml:space="preserve" width="48.046in" height="27.0166in" version="1.1" style="shape-rendering:geometricPrecision; text-rendering:geometricPrecision; image-rendering:optimizeQuality; fill-rule:evenodd; clip-rule:evenodd"
viewBox="0 0 3207.63 1803.68"
 xmlns:xlink="http://www.w3.org/1999/xlink"
 xmlns:xodm="http://www.corel.com/coreldraw/odm/2003">
 <defs>
  <style type="text/css">
   <![CDATA[
    .fil13 {fill:url(#id0);fill-rule:nonzero}
    .fil53 {fill:url(#id1);fill-rule:nonzero}
    .fil26 {fill:url(#id2);fill-rule:nonzero}
    .fil46 {fill:url(#id3);fill-rule:nonzero}
    .fil54 {fill:url(#id4);fill-rule:nonzero}
    .fil57 {fill:url(#id5);fill-rule:nonzero}
    .fil60 {fill:url(#id6);fill-rule:nonzero}
    .fil35 {fill:url(#id7);fill-rule:nonzero}
    .fil62 {fill:url(#id8);fill-rule:nonzero}
    .fil61 {fill:url(#id9);fill-rule:nonzero}
    .fil55 {fill:url(#id10);fill-rule:nonzero}
    .fil52 {fill:url(#id11);fill-rule:nonzero}
    .fil21 {fill:url(#id12);fill-rule:nonzero}
    .fil41 {fill:url(#id13);fill-rule:nonzero}
    .fil30 {fill:url(#id14);fill-rule:nonzero}
    .fil45 {fill:url(#id15);fill-rule:nonzero}
    .fil42 {fill:url(#id16);fill-rule:nonzero}
    .fil48 {fill:url(#id17);fill-rule:nonzero}
    .fil23 {fill:url(#id18);fill-rule:nonzero}
    .fil28 {fill:url(#id19);fill-rule:nonzero}
    .fil33 {fill:url(#id20);fill-rule:nonzero}
    .fil24 {fill:url(#id21);fill-rule:nonzero}
    .fil59 {fill:url(#id22);fill-rule:nonzero}
    .fil49 {fill:url(#id23);fill-rule:nonzero}
    .fil29 {fill:url(#id24);fill-rule:nonzero}
    .fil40 {fill:url(#id25);fill-rule:nonzero}
    .fil25 {fill:url(#id26);fill-rule:nonzero}
    .fil27 {fill:url(#id27);fill-rule:nonzero}
    .fil38 {fill:url(#id28);fill-rule:nonzero}
    .fil39 {fill:url(#id29);fill-rule:nonzero}
    .fil47 {fill:url(#id30);fill-rule:nonzero}
    .fil58 {fill:url(#id31);fill-rule:nonzero}
    .fil44 {fill:url(#id32);fill-rule:nonzero}
    .fil43 {fill:url(#id33);fill-rule:nonzero}
    .fil50 {fill:url(#id34);fill-rule:nonzero}
    .fil32 {fill:url(#id35);fill-rule:nonzero}
    .fil31 {fill:url(#id36);fill-rule:nonzero}
    .fil37 {fill:url(#id37);fill-rule:nonzero}
    .fil22 {fill:url(#id38);fill-rule:nonzero}
    .fil19 {fill:url(#id39);fill-rule:nonzero}
    .fil51 {fill:url(#id40);fill-rule:nonzero}
    .fil20 {fill:url(#id41);fill-rule:nonzero}
    .fil17 {fill:url(#id42);fill-rule:nonzero}
    .fil36 {fill:url(#id43);fill-rule:nonzero}
    .fil56 {fill:url(#id44);fill-rule:nonzero}
    .fil34 {fill:url(#id45);fill-rule:nonzero}
    .fil18 {fill:url(#id46);fill-rule:nonzero}
    .fil16 {fill:url(#id47);fill-rule:nonzero}
    .fil10 {fill:url(#id48);fill-rule:nonzero}
    .fil9 {fill:url(#id49);fill-rule:nonzero}
    .fil14 {fill:url(#id50);fill-rule:nonzero}
    .fil0 {fill:url(#id51);fill-rule:nonzero}
    .fil11 {fill:url(#id52);fill-rule:nonzero}
    .fil4 {fill:url(#id53);fill-rule:nonzero}
    .fil15 {fill:url(#id54);fill-rule:nonzero}
    .fil6 {fill:url(#id55);fill-rule:nonzero}
    .fil2 {fill:url(#id56);fill-rule:nonzero}
    .fil12 {fill:url(#id57);fill-rule:nonzero}
    .fil1 {fill:url(#id58);fill-rule:nonzero}
    .fil5 {fill:url(#id59);fill-rule:nonzero}
    .fil7 {fill:url(#id60);fill-rule:nonzero}
    .fil3 {fill:url(#id61);fill-rule:nonzero}
    .fil8 {fill:url(#id62);fill-rule:nonzero}
   ]]>
  </style>
  <linearGradient id="id0" gradientUnits="userSpaceOnUse" x1="78.81" y1="1404.02" x2="3270.27" y2="117.53">
   <stop offset="0" style="stop-opacity:1; stop-color:#545454"/>
   <stop offset="0.760784" style="stop-opacity:1; stop-color:#2A2A2A"/>
   <stop offset="1" style="stop-opacity:1; stop-color:black"/>
  </linearGradient>
  <linearGradient id="id1" gradientUnits="userSpaceOnUse" xlink:href="#id0" x1="78.81" y1="1404.02" x2="3270.27" y2="117.53">
  </linearGradient>
  <linearGradient id="id2" gradientUnits="userSpaceOnUse" xlink:href="#id0" x1="78.81" y1="1404.02" x2="3270.27" y2="117.53">
  </linearGradient>
  <linearGradient id="id3" gradientUnits="userSpaceOnUse" xlink:href="#id0" x1="78.81" y1="1404.02" x2="3270.27" y2="117.53">
  </linearGradient>
  <linearGradient id="id4" gradientUnits="userSpaceOnUse" xlink:href="#id0" x1="78.81" y1="1404.02" x2="3270.27" y2="117.53">
  </linearGradient>
  <linearGradient id="id5" gradientUnits="userSpaceOnUse" xlink:href="#id0" x1="78.81" y1="1404.02" x2="3270.27" y2="117.53">
  </linearGradient>
  <linearGradient id="id6" gradientUnits="userSpaceOnUse" xlink:href="#id0" x1="78.81" y1="1404.02" x2="3270.27" y2="117.53">
  </linearGradient>
  <linearGradient id="id7" gradientUnits="userSpaceOnUse" xlink:href="#id0" x1="78.81" y1="1404.02" x2="3270.27" y2="117.53">
  </linearGradient>
  <linearGradient id="id8" gradientUnits="userSpaceOnUse" xlink:href="#id0" x1="78.81" y1="1404.02" x2="3270.27" y2="117.53">
  </linearGradient>
  <linearGradient id="id9" gradientUnits="userSpaceOnUse" xlink:href="#id0" x1="78.81" y1="1404.02" x2="3270.27" y2="117.53">
  </linearGradient>
  <linearGradient id="id10" gradientUnits="userSpaceOnUse" xlink:href="#id0" x1="78.81" y1="1404.02" x2="3270.27" y2="117.53">
  </linearGradient>
  <linearGradient id="id11" gradientUnits="userSpaceOnUse" xlink:href="#id0" x1="78.81" y1="1404.02" x2="3270.27" y2="117.53">
  </linearGradient>
  <linearGradient id="id12" gradientUnits="userSpaceOnUse" xlink:href="#id0" x1="78.81" y1="1404.02" x2="3270.27" y2="117.53">
  </linearGradient>
  <linearGradient id="id13" gradientUnits="userSpaceOnUse" xlink:href="#id0" x1="78.81" y1="1404.02" x2="3270.27" y2="117.53">
  </linearGradient>
  <linearGradient id="id14" gradientUnits="userSpaceOnUse" xlink:href="#id0" x1="78.81" y1="1404.02" x2="3270.27" y2="117.53">
  </linearGradient>
  <linearGradient id="id15" gradientUnits="userSpaceOnUse" xlink:href="#id0" x1="78.81" y1="1404.02" x2="3270.27" y2="117.53">
  </linearGradient>
  <linearGradient id="id16" gradientUnits="userSpaceOnUse" xlink:href="#id0" x1="78.81" y1="1404.02" x2="3270.27" y2="117.53">
  </linearGradient>
  <linearGradient id="id17" gradientUnits="userSpaceOnUse" xlink:href="#id0" x1="78.81" y1="1404.02" x2="3270.27" y2="117.53">
  </linearGradient>
  <linearGradient id="id18" gradientUnits="userSpaceOnUse" xlink:href="#id0" x1="78.81" y1="1404.02" x2="3270.27" y2="117.53">
  </linearGradient>
  <linearGradient id="id19" gradientUnits="userSpaceOnUse" xlink:href="#id0" x1="78.81" y1="1404.02" x2="3270.27" y2="117.53">
  </linearGradient>
  <linearGradient id="id20" gradientUnits="userSpaceOnUse" xlink:href="#id0" x1="78.81" y1="1404.02" x2="3270.27" y2="117.53">
  </linearGradient>
  <linearGradient id="id21" gradientUnits="userSpaceOnUse" xlink:href="#id0" x1="78.81" y1="1404.02" x2="3270.27" y2="117.53">
  </linearGradient>
  <linearGradient id="id22" gradientUnits="userSpaceOnUse" xlink:href="#id0" x1="78.81" y1="1404.02" x2="3270.27" y2="117.53">
  </linearGradient>
  <linearGradient id="id23" gradientUnits="userSpaceOnUse" xlink:href="#id0" x1="78.81" y1="1404.02" x2="3270.27" y2="117.53">
  </linearGradient>
  <linearGradient id="id24" gradientUnits="userSpaceOnUse" xlink:href="#id0" x1="78.81" y1="1404.02" x2="3270.27" y2="117.53">
  </linearGradient>
  <linearGradient id="id25" gradientUnits="userSpaceOnUse" xlink:href="#id0" x1="78.81" y1="1404.02" x2="3270.27" y2="117.53">
  </linearGradient>
  <linearGradient id="id26" gradientUnits="userSpaceOnUse" xlink:href="#id0" x1="78.81" y1="1404.02" x2="3270.27" y2="117.53">
  </linearGradient>
  <linearGradient id="id27" gradientUnits="userSpaceOnUse" xlink:href="#id0" x1="78.81" y1="1404.02" x2="3270.27" y2="117.53">
  </linearGradient>
  <linearGradient id="id28" gradientUnits="userSpaceOnUse" xlink:href="#id0" x1="78.81" y1="1404.02" x2="3270.27" y2="117.53">
  </linearGradient>
  <linearGradient id="id29" gradientUnits="userSpaceOnUse" xlink:href="#id0" x1="78.81" y1="1404.02" x2="3270.27" y2="117.53">
  </linearGradient>
  <linearGradient id="id30" gradientUnits="userSpaceOnUse" xlink:href="#id0" x1="78.81" y1="1404.02" x2="3270.27" y2="117.53">
  </linearGradient>
  <linearGradient id="id31" gradientUnits="userSpaceOnUse" xlink:href="#id0" x1="78.81" y1="1404.02" x2="3270.27" y2="117.53">
  </linearGradient>
  <linearGradient id="id32" gradientUnits="userSpaceOnUse" xlink:href="#id0" x1="78.81" y1="1404.02" x2="3270.27" y2="117.53">
  </linearGradient>
  <linearGradient id="id33" gradientUnits="userSpaceOnUse" xlink:href="#id0" x1="78.81" y1="1404.02" x2="3270.27" y2="117.53">
  </linearGradient>
  <linearGradient id="id34" gradientUnits="userSpaceOnUse" xlink:href="#id0" x1="78.81" y1="1404.02" x2="3270.27" y2="117.53">
  </linearGradient>
  <linearGradient id="id35" gradientUnits="userSpaceOnUse" xlink:href="#id0" x1="78.81" y1="1404.02" x2="3270.27" y2="117.53">
  </linearGradient>
  <linearGradient id="id36" gradientUnits="userSpaceOnUse" xlink:href="#id0" x1="78.81" y1="1404.02" x2="3270.27" y2="117.53">
  </linearGradient>
  <linearGradient id="id37" gradientUnits="userSpaceOnUse" xlink:href="#id0" x1="78.81" y1="1404.02" x2="3270.27" y2="117.53">
  </linearGradient>
  <linearGradient id="id38" gradientUnits="userSpaceOnUse" xlink:href="#id0" x1="78.81" y1="1404.02" x2="3270.27" y2="117.53">
  </linearGradient>
  <linearGradient id="id39" gradientUnits="userSpaceOnUse" xlink:href="#id0" x1="78.81" y1="1404.02" x2="3270.27" y2="117.53">
  </linearGradient>
  <linearGradient id="id40" gradientUnits="userSpaceOnUse" xlink:href="#id0" x1="78.81" y1="1404.02" x2="3270.27" y2="117.53">
  </linearGradient>
  <linearGradient id="id41" gradientUnits="userSpaceOnUse" xlink:href="#id0" x1="78.81" y1="1404.02" x2="3270.27" y2="117.53">
  </linearGradient>
  <linearGradient id="id42" gradientUnits="userSpaceOnUse" xlink:href="#id0" x1="78.81" y1="1404.02" x2="3270.27" y2="117.53">
  </linearGradient>
  <linearGradient id="id43" gradientUnits="userSpaceOnUse" xlink:href="#id0" x1="78.81" y1="1404.02" x2="3270.27" y2="117.53">
  </linearGradient>
  <linearGradient id="id44" gradientUnits="userSpaceOnUse" xlink:href="#id0" x1="78.81" y1="1404.02" x2="3270.27" y2="117.53">
  </linearGradient>
  <linearGradient id="id45" gradientUnits="userSpaceOnUse" xlink:href="#id0" x1="78.81" y1="1404.02" x2="3270.27" y2="117.53">
  </linearGradient>
  <linearGradient id="id46" gradientUnits="userSpaceOnUse" xlink:href="#id0" x1="78.81" y1="1404.02" x2="3270.27" y2="117.53">
  </linearGradient>
  <linearGradient id="id47" gradientUnits="userSpaceOnUse" xlink:href="#id0" x1="78.81" y1="1404.02" x2="3270.27" y2="117.53">
  </linearGradient>
  <linearGradient id="id48" gradientUnits="userSpaceOnUse" xlink:href="#id0" x1="78.81" y1="1404.02" x2="3270.27" y2="117.53">
  </linearGradient>
  <linearGradient id="id49" gradientUnits="userSpaceOnUse" xlink:href="#id0" x1="78.81" y1="1404.02" x2="3270.27" y2="117.53">
  </linearGradient>
  <linearGradient id="id50" gradientUnits="userSpaceOnUse" xlink:href="#id0" x1="78.81" y1="1404.02" x2="3270.27" y2="117.53">
  </linearGradient>
  <linearGradient id="id51" gradientUnits="userSpaceOnUse" xlink:href="#id0" x1="78.81" y1="1404.02" x2="3270.27" y2="117.53">
  </linearGradient>
  <linearGradient id="id52" gradientUnits="userSpaceOnUse" xlink:href="#id0" x1="78.81" y1="1404.02" x2="3270.27" y2="117.53">
  </linearGradient>
  <linearGradient id="id53" gradientUnits="userSpaceOnUse" xlink:href="#id0" x1="78.81" y1="1404.02" x2="3270.27" y2="117.53">
  </linearGradient>
  <linearGradient id="id54" gradientUnits="userSpaceOnUse" xlink:href="#id0" x1="78.81" y1="1404.02" x2="3270.27" y2="117.53">
  </linearGradient>
  <linearGradient id="id55" gradientUnits="userSpaceOnUse" xlink:href="#id0" x1="78.81" y1="1404.02" x2="3270.27" y2="117.53">
  </linearGradient>
  <linearGradient id="id56" gradientUnits="userSpaceOnUse" xlink:href="#id0" x1="78.81" y1="1404.02" x2="3270.27" y2="117.53">
  </linearGradient>
  <linearGradient id="id57" gradientUnits="userSpaceOnUse" xlink:href="#id0" x1="78.81" y1="1404.02" x2="3270.27" y2="117.53">
  </linearGradient>
  <linearGradient id="id58" gradientUnits="userSpaceOnUse" xlink:href="#id0" x1="78.81" y1="1404.02" x2="3270.27" y2="117.53">
  </linearGradient>
  <linearGradient id="id59" gradientUnits="userSpaceOnUse" xlink:href="#id0" x1="78.81" y1="1404.02" x2="3270.27" y2="117.53">
  </linearGradient>
  <linearGradient id="id60" gradientUnits="userSpaceOnUse" xlink:href="#id0" x1="78.81" y1="1404.02" x2="3270.27" y2="117.53">
  </linearGradient>
  <linearGradient id="id61" gradientUnits="userSpaceOnUse" xlink:href="#id0" x1="78.81" y1="1404.02" x2="3270.27" y2="117.53">
  </linearGradient>
  <linearGradient id="id62" gradientUnits="userSpaceOnUse" xlink:href="#id0" x1="78.81" y1="1404.02" x2="3270.27" y2="117.53">
  </linearGradient>
 </defs>
 <g id="Layer_x0020_1">
  <metadata id="CorelCorpID_0Corel-Layer"/>
  <g id="_105553315306560">
   <path class="fil0" d="M2310.85 1803.68c18.03,-28.25 33.3,-57.9 45.41,-88.48 40.13,-101.33 43.99,-208.67 10.85,-302.23 -19.59,-55.33 -51.31,-108.04 -81.97,-159.01 -45.66,-75.89 -92.86,-154.35 -99.34,-241.4 -8.27,-111.17 58.69,-276.21 271.44,-406.05 140.85,-85.96 307.41,-136.87 468.49,-186.1 19.57,-5.98 39.13,-11.96 58.61,-17.99 73.79,-22.83 149.05,-47.31 223.29,-75.18l0 -1.52c-74.41,27.96 -149.86,52.5 -223.83,75.39 -19.48,6.03 -39.04,12 -58.61,17.99 -161.18,49.26 -327.85,100.2 -468.88,186.27 -139.85,85.35 -284.78,237.17 -272.12,407.3 6.5,87.34 53.79,165.94 99.52,241.95 30.64,50.92 62.31,103.57 81.86,158.78 33.03,93.28 29.19,200.31 -10.84,301.36 -12.18,30.75 -27.56,60.55 -45.74,88.94l1.84 0z"/>
   <path class="fil1" d="M2262.43 1803.68c26.13,-34.44 47.85,-71.51 64.29,-110.22 41.7,-98.2 47.73,-202.84 16.98,-294.66 -18.18,-54.29 -48.37,-106.23 -77.57,-156.45 -43.46,-74.77 -88.4,-152.07 -92.98,-237.08 -5.85,-108.57 63.63,-268.47 276.2,-391.66 140.74,-81.56 306.11,-128.51 466.04,-173.91 19.43,-5.52 38.84,-11.03 58.19,-16.59 77.32,-22.24 156.29,-46.23 234.07,-74.05l0 -1.51c-77.93,27.9 -157.09,51.95 -234.57,74.24 -19.34,5.56 -38.75,11.07 -58.18,16.59 -160.03,45.43 -325.51,92.41 -466.43,174.08 -139.74,80.99 -285.87,226.73 -276.91,392.89 4.6,85.3 49.62,162.75 93.16,237.65 29.16,50.17 59.32,102.04 77.46,156.21 30.65,91.52 24.63,195.86 -16.94,293.77 -16.52,38.91 -38.38,76.15 -64.71,110.71l1.93 0z"/>
   <path class="fil2" d="M2209.57 1803.68c36.28,-40.02 66.05,-84.65 87.59,-131.98 43.26,-95.06 51.47,-197.01 23.11,-287.07 -16.77,-53.26 -45.44,-104.41 -73.16,-153.88 -41.27,-73.64 -83.94,-149.79 -86.63,-232.76 -3.43,-105.97 68.57,-260.72 280.95,-377.26 140.61,-77.16 304.79,-120.15 463.56,-161.72 19.3,-5.06 38.58,-10.1 57.79,-15.2 80.84,-21.46 163.53,-44.79 244.85,-72.39l0 -1.5c-81.46,27.68 -164.32,51.06 -245.31,72.56 -19.21,5.1 -38.49,10.15 -57.78,15.2 -158.87,41.6 -323.16,84.62 -463.95,161.88 -139.63,76.62 -286.96,216.28 -281.7,378.49 2.7,83.28 45.45,159.56 86.79,233.33 27.69,49.41 56.33,100.51 73.06,153.64 28.27,89.77 20.08,191.41 -23.05,286.19 -21.63,47.54 -51.61,92.36 -88.14,132.49l2.04 0z"/>
   <path class="fil3" d="M2150.97 1803.68c49.02,-44.67 89.02,-97.07 116.65,-153.72 44.83,-91.93 55.21,-191.19 29.24,-279.5 -15.36,-52.22 -42.51,-102.6 -68.76,-151.32 -39.08,-72.52 -79.48,-147.51 -80.28,-228.44 -1.01,-103.37 73.51,-252.98 285.71,-362.87 140.51,-72.76 303.5,-111.79 461.13,-149.54 19.15,-4.59 38.27,-9.16 57.33,-13.8 84.35,-20.5 170.78,-42.97 255.63,-70.22l0 -1.49c-84.98,27.31 -171.56,49.83 -256.06,70.36 -19.06,4.63 -38.18,9.21 -57.33,13.8 -157.74,37.77 -320.84,76.83 -461.53,149.69 -139.52,72.25 -288.05,205.84 -286.5,364.08 0.8,81.24 41.28,156.37 80.43,229.03 26.22,48.66 53.34,98.98 68.66,151.07 25.88,88.01 15.53,186.95 -29.16,278.6 -27.75,56.91 -68.02,109.51 -117.39,154.27l2.22 0z"/>
   <path class="fil4" d="M2084.45 1803.68c65.27,-47.81 118.55,-108.35 153.61,-175.47 46.39,-88.79 58.95,-185.36 35.37,-271.92 -13.94,-51.18 -39.57,-100.79 -64.35,-148.75 -36.88,-71.4 -75.02,-145.23 -73.92,-224.12 1.41,-100.77 78.45,-245.23 290.47,-348.47 140.39,-68.36 302.21,-103.43 458.69,-137.36 19,-4.12 37.98,-8.23 56.89,-12.4 87.86,-19.35 178.03,-40.78 266.41,-67.51l0 -1.48c-88.5,26.79 -178.8,48.26 -266.8,67.64 -18.92,4.17 -37.89,8.28 -56.89,12.39 -156.59,33.94 -318.51,69.04 -459.09,137.5 -139.41,67.88 -289.14,195.39 -291.29,349.68 -1.1,79.21 37.11,153.18 74.07,224.71 24.75,47.91 50.35,97.45 64.25,148.5 23.5,86.25 10.97,182.5 -35.27,271.01 -35.23,67.43 -88.89,128.2 -154.64,176.05l2.49 0z"/>
   <path class="fil5" d="M2005.76 1803.68c86.71,-48.26 158.2,-117.63 202.75,-197.21 47.95,-85.66 62.69,-179.53 41.5,-264.34 -12.53,-50.15 -36.64,-98.97 -59.95,-146.2 -34.69,-70.27 -70.57,-142.94 -67.57,-219.8 3.82,-98.17 83.39,-237.49 295.23,-334.08 140.27,-63.96 300.89,-95.07 456.21,-125.16 18.87,-3.66 37.71,-7.31 56.5,-11.01 91.36,-18.01 185.27,-38.19 277.19,-64.25l0 -1.47c-92.02,26.11 -186.06,46.32 -277.54,64.35 -18.79,3.7 -37.63,7.36 -56.49,11.01 -155.43,30.11 -316.15,61.25 -456.61,125.29 -139.3,63.52 -290.23,184.95 -296.09,335.27 -3.01,77.17 32.94,149.99 67.7,220.4 23.28,47.16 47.35,95.93 59.85,145.94 21.12,84.5 6.42,178.05 -41.37,263.42 -44.79,79.99 -116.86,149.65 -204.28,197.83l2.97 0z"/>
   <path class="fil6" d="M1905.03 1803.68c16.56,-6.44 32.81,-13.33 48.62,-20.8 95.79,-45.28 175.8,-115.66 225.31,-198.16 49.52,-82.52 66.44,-173.71 47.63,-256.76 -11.12,-49.11 -33.7,-97.16 -55.54,-143.62 -32.5,-69.16 -66.11,-140.66 -61.22,-215.49 6.24,-95.57 88.33,-229.74 299.98,-319.68 140.15,-59.56 299.57,-86.71 453.75,-112.98 18.73,-3.19 37.44,-6.38 56.09,-9.62 94.85,-16.47 192.52,-35.2 287.97,-60.43l0 -1.46c-95.54,25.27 -193.32,44.03 -288.28,60.52 -18.65,3.24 -37.35,6.42 -56.08,9.61 -154.27,26.28 -313.8,53.46 -454.14,113.1 -139.19,59.15 -291.32,174.5 -300.88,320.86 -4.91,75.14 28.77,146.8 61.34,216.1 21.81,46.41 44.36,94.39 55.45,143.36 18.73,82.74 1.87,173.6 -47.48,255.84 -49.36,82.26 -129.15,152.43 -224.66,197.58 -16.81,7.95 -34.14,15.24 -51.8,22.03l3.95 0z"/>
   <path class="fil7" d="M1765.14 1803.68c53.58,-14.42 107.09,-30.53 156.47,-52.25 95.83,-42.16 176.73,-109.08 227.8,-188.45 51.09,-79.39 70.18,-167.88 53.77,-249.18 -9.7,-48.07 -30.77,-95.35 -51.13,-141.06 -30.31,-68.03 -61.65,-138.37 -54.87,-211.16 13.21,-141.8 166.08,-250.68 304.74,-305.29 140.03,-55.16 298.27,-78.35 451.29,-100.79 18.59,-2.73 37.16,-5.45 55.67,-8.23 98.33,-14.74 199.76,-31.81 298.75,-56.04l0 -1.45c-99.06,24.27 -200.59,41.36 -299.02,56.11 -18.51,2.77 -37.08,5.5 -55.67,8.22 -153.12,22.45 -311.46,45.66 -451.68,100.89 -139.07,54.78 -292.41,164.05 -305.67,306.45 -6.81,73.11 24.59,143.61 54.97,211.79 20.34,45.65 41.37,92.86 51.05,140.79 16.35,80.98 -2.68,169.15 -53.59,248.26 -50.92,79.13 -131.58,145.85 -227.13,187.88 -50.8,22.35 -106.03,38.76 -161.21,53.5l5.46 0z"/>
   <path class="fil8" d="M1582.58 1803.68c31.79,-8.38 64.36,-15.91 96,-23.23 71.09,-16.44 144.6,-33.45 210.98,-60.48 95.87,-39.03 177.66,-102.51 230.3,-178.74 52.65,-76.25 73.92,-162.05 59.9,-241.6 -8.29,-47.04 -27.83,-93.53 -46.73,-138.49 -28.12,-66.91 -57.19,-136.1 -48.51,-206.85 16.9,-137.83 170.95,-240.64 309.49,-290.9 139.92,-50.75 296.96,-69.99 448.83,-88.6 18.45,-2.26 36.88,-4.52 55.26,-6.83 101.8,-12.79 207,-28 309.54,-51.06l0 -1.44c-102.59,23.1 -207.88,38.32 -309.76,51.12 -18.38,2.31 -36.81,4.57 -55.25,6.82 -151.97,18.62 -309.11,37.87 -449.22,88.7 -138.96,50.41 -293.5,153.6 -310.47,292.04 -8.71,71.08 20.42,140.42 48.6,207.48 18.87,44.9 38.38,91.33 46.65,138.23 13.97,79.22 -7.23,164.69 -59.69,240.66 -52.48,76 -134.02,139.28 -229.6,178.19 -66.26,26.98 -139.7,43.97 -210.72,60.39 -33.33,7.71 -67.71,15.66 -101.12,24.58l5.53 0z"/>
   <path class="fil9" d="M1420.91 1803.68c34.19,-13.96 73.17,-26.34 116.85,-37.07 36,-8.85 73.32,-16.47 109.41,-23.84 70.76,-14.45 143.93,-29.39 210.35,-54.25 95.91,-35.91 178.58,-95.94 232.78,-169.02 54.22,-73.12 77.67,-156.23 66.04,-234.02 -6.88,-46 -24.9,-91.72 -42.32,-135.93 -25.93,-65.79 -52.73,-133.81 -42.17,-202.53 20.58,-133.87 175.83,-230.61 314.25,-276.51 139.81,-46.36 295.66,-61.63 446.38,-76.41 18.3,-1.8 36.59,-3.59 54.82,-5.43 105.25,-10.65 214.23,-23.75 320.32,-45.49l0 -1.44c-106.13,21.76 -215.18,34.88 -320.5,45.54 -18.23,1.84 -36.51,3.64 -54.82,5.43 -150.82,14.79 -306.78,30.08 -446.78,76.5 -138.85,46.04 -294.59,143.15 -315.27,277.63 -10.62,69.05 16.25,137.23 42.24,203.17 17.4,44.15 35.39,89.8 42.24,135.66 11.59,77.47 -11.78,160.24 -65.79,233.08 -54.03,72.86 -136.45,132.7 -232.08,168.5 -66.28,24.81 -139.38,39.74 -210.08,54.18 -36.11,7.38 -73.44,15 -109.48,23.86 -45.07,11.07 -85.15,23.9 -120.15,38.41l3.74 0z"/>
   <path class="fil10" d="M1299.96 1803.68c49.65,-32.67 118.84,-58.75 206.83,-77.86 35.88,-7.79 73.02,-14.36 108.94,-20.71 70.45,-12.46 143.29,-25.34 209.74,-48.04 95.96,-32.78 179.51,-89.36 235.28,-159.31 55.79,-69.98 81.42,-150.39 72.17,-226.44 -5.46,-44.96 -21.96,-89.9 -37.91,-133.37 -23.73,-64.67 -48.27,-131.53 -35.82,-198.21 24.27,-129.91 180.7,-220.58 319,-262.12 139.68,-41.95 294.34,-53.28 443.9,-64.23 18.17,-1.33 36.32,-2.66 54.43,-4.04 108.69,-8.29 221.44,-19.08 331.1,-39.31l0 -1.43c-109.69,20.25 -222.5,31.05 -331.24,39.34 -18.1,1.38 -36.25,2.71 -54.42,4.04 -149.66,10.96 -304.42,22.29 -444.29,64.3 -138.74,41.67 -295.68,132.7 -320.06,263.22 -12.52,67.01 12.08,134.04 35.87,198.86 15.93,43.4 32.39,88.27 37.84,133.09 9.2,75.71 -16.33,155.79 -71.9,225.49 -55.59,69.73 -138.88,126.13 -234.54,158.81 -66.32,22.65 -139.09,35.53 -209.47,47.97 -35.94,6.36 -73.1,12.93 -109.01,20.73 -89.2,19.38 -159.15,45.91 -209.1,79.22l2.65 0z"/>
   <path class="fil11" d="M1210.76 1803.68c47.02,-54.45 136.16,-94.36 265.06,-118.66 35.76,-6.74 72.74,-12.26 108.5,-17.6 70.12,-10.46 142.63,-21.29 209.1,-41.82 96,-29.65 180.44,-82.78 237.77,-149.6 57.35,-66.84 85.16,-144.57 78.31,-218.86 -4.05,-43.92 -19.03,-88.09 -33.5,-130.8 -21.54,-63.54 -43.82,-129.24 -29.47,-193.89 27.96,-125.94 185.57,-210.55 323.76,-247.73 139.57,-37.55 293.02,-44.91 441.43,-52.04 18.04,-0.87 36.05,-1.73 54.02,-2.65 112.1,-5.71 228.64,-13.95 341.89,-32.5l0 -1.43c-113.25,18.57 -229.83,26.81 -341.98,32.53 -17.97,0.92 -35.98,1.78 -54.02,2.65 -148.51,7.13 -302.07,14.49 -441.82,52.1 -138.63,37.3 -296.77,122.25 -324.86,248.8 -14.42,64.98 7.91,130.85 29.5,194.55 14.45,42.64 29.41,86.74 33.44,130.52 6.82,73.95 -20.88,151.34 -78,217.91 -57.14,66.6 -141.31,119.55 -237.02,149.12 -66.34,20.49 -138.78,31.3 -208.83,41.76 -35.78,5.34 -72.77,10.86 -108.57,17.61 -129.95,24.49 -219.66,64.86 -266.73,120.02l2.01 0z"/>
   <path class="fil12" d="M1145.12 1803.68c7.59,-16.48 17.34,-32.34 30.43,-47.11 47.54,-53.61 138.14,-91.41 269.31,-112.34 35.63,-5.69 72.44,-10.16 108.03,-14.48 69.81,-8.47 141.99,-17.23 208.49,-35.61 96.04,-26.53 181.36,-76.21 240.26,-139.88 58.92,-63.7 88.91,-138.74 84.45,-211.28 -2.64,-42.89 -16.09,-86.28 -29.1,-128.24 -19.35,-62.42 -39.35,-126.96 -23.12,-189.57 31.64,-121.98 190.44,-200.52 328.51,-233.35 139.45,-33.15 291.72,-36.56 438.98,-39.85 17.9,-0.4 35.77,-0.8 53.6,-1.25 115.51,-2.92 235.83,-8.38 352.67,-25.06l0 -1.42c-116.83,16.7 -237.18,22.16 -352.72,25.08 -17.83,0.45 -35.7,0.85 -53.6,1.25 -147.35,3.3 -299.72,6.7 -439.36,39.9 -138.52,32.93 -297.86,111.8 -329.65,234.38 -16.33,62.95 3.73,127.66 23.13,190.25 12.99,41.89 26.41,85.21 29.04,127.95 4.44,72.2 -25.42,146.89 -84.1,210.32 -58.7,63.46 -143.75,112.98 -239.49,139.43 -66.37,18.33 -138.49,27.09 -208.23,35.55 -35.61,4.32 -72.43,8.79 -108.09,14.48 -131.57,21 -222.5,58.97 -270.29,112.86 -13.34,15.04 -23.22,31.2 -30.89,47.97l1.73 0z"/>
   <path class="fil13" d="M1091.5 1803.68c10.1,-34.57 23.89,-68.57 51.74,-97.65 48.87,-51.02 139.93,-85.53 270.65,-102.59 35.52,-4.64 72.16,-8.05 107.59,-11.36 69.48,-6.48 141.32,-13.18 207.84,-29.38 96.08,-23.4 182.28,-69.64 242.75,-130.17 60.49,-60.57 92.66,-132.91 90.58,-203.7 -1.22,-41.85 -13.15,-84.46 -24.69,-125.67 -17.16,-61.3 -34.9,-124.68 -16.77,-185.25 35.32,-118.02 195.32,-190.5 333.27,-218.96 139.33,-28.75 290.41,-28.18 436.51,-27.66 17.76,0.06 35.5,0.13 53.2,0.14 118.88,0.14 242.99,-2.32 363.46,-16.97l0 -1.41c-120.47,14.67 -244.61,17.12 -363.45,16.99 -17.7,-0.01 -35.43,-0.08 -53.19,-0.14 -146.21,-0.53 -297.37,-1.09 -436.89,27.7 -138.4,28.56 -298.95,101.35 -334.45,219.97 -18.23,60.92 -0.44,124.47 16.76,185.94 11.52,41.14 23.42,83.68 24.64,125.38 2.06,70.44 -29.97,142.44 -90.19,202.74 -60.26,60.33 -146.19,106.41 -241.97,129.74 -66.39,16.17 -138.17,22.87 -207.58,29.34 -35.45,3.3 -72.1,6.72 -107.66,11.37 -131.12,17.11 -222.51,51.79 -271.64,103.08 -28.16,29.4 -42.01,63.7 -52.16,98.55l1.65 0z"/>
   <path class="fil14" d="M1039.65 1803.68c2.19,-7.03 4.27,-14.05 6.33,-21 13.18,-44.45 26.81,-90.41 64.94,-127.2 50.2,-48.42 141.71,-79.66 271.99,-92.85 35.39,-3.58 71.86,-5.95 107.13,-8.24 69.16,-4.48 140.67,-9.12 207.23,-23.16 96.12,-20.28 183.21,-63.06 245.23,-120.45 62.05,-57.43 96.41,-127.08 96.73,-196.11 0.19,-40.81 -10.22,-82.65 -20.28,-123.11 -14.97,-60.17 -30.44,-122.4 -10.42,-180.93 39.01,-114.07 200.19,-180.47 338.02,-204.58 139.21,-24.35 289.09,-19.84 434.03,-15.48 17.63,0.53 35.23,1.06 52.8,1.54 122.23,3.33 250.12,4.17 374.24,-8.24l0 -1.41c-124.09,12.43 -251.97,11.59 -374.19,8.25 -17.57,-0.48 -35.17,-1.01 -52.8,-1.54 -145.04,-4.37 -295.01,-8.88 -434.4,15.51 -138.29,24.19 -300.03,90.89 -339.24,205.55 -20.14,58.88 -4.62,121.28 10.39,181.63 10.04,40.39 20.43,82.15 20.24,122.81 -0.32,68.68 -34.52,137.99 -96.3,195.16 -61.81,57.2 -148.62,99.84 -244.44,120.05 -66.42,14.01 -137.87,18.65 -206.97,23.13 -35.28,2.29 -71.76,4.65 -107.19,8.24 -130.68,13.23 -222.53,44.62 -272.99,93.3 -38.4,37.04 -52.08,83.18 -65.31,127.79 -2.09,7.06 -4.21,14.2 -6.44,21.35l1.66 0z"/>
   <path class="fil15" d="M977.86 1803.68c2.31,-3.98 4.49,-7.99 6.52,-12.04 10.46,-20.86 18.02,-43.05 25.33,-64.5 14.63,-42.96 29.76,-87.39 68.9,-122.2 51.53,-45.83 143.5,-73.79 273.33,-83.1 35.27,-2.53 71.56,-3.84 106.66,-5.12 68.84,-2.49 140.02,-5.07 206.61,-16.94 96.16,-17.15 184.13,-56.48 247.72,-110.74 63.62,-54.29 100.16,-121.25 102.87,-188.53 1.6,-39.78 -7.28,-80.84 -15.87,-120.55 -12.77,-59.05 -25.99,-120.11 -4.07,-176.61 42.69,-110.1 205.06,-170.44 342.78,-190.2 139.12,-19.96 287.83,-11.48 431.65,-3.29 17.46,1 34.9,1.99 52.31,2.93 125.55,6.8 257.22,11.16 385.03,1.16l0 -1.4c-127.76,10.01 -259.4,5.65 -384.93,-1.16 -17.4,-0.94 -34.84,-1.93 -52.3,-2.93 -143.91,-8.2 -292.72,-16.67 -432.02,3.3 -138.18,19.82 -301.12,80.44 -344.04,191.13 -22.04,56.85 -8.8,118.09 4.02,177.32 8.57,39.63 17.44,80.62 15.84,120.24 -2.7,66.92 -39.06,133.54 -102.39,187.58 -63.37,54.07 -151.06,93.26 -246.92,110.37 -66.46,11.85 -137.58,14.43 -206.35,16.92 -35.12,1.27 -71.42,2.58 -106.73,5.12 -130.23,9.34 -222.54,37.44 -274.35,83.51 -39.43,35.06 -54.61,79.66 -69.3,122.78 -7.29,21.42 -14.84,43.57 -25.26,64.34 -2.13,4.24 -4.42,8.44 -6.86,12.6l1.8 0z"/>
   <path class="fil16" d="M887.49 1803.68c24.74,-21.34 44.52,-44.82 58.47,-69.89 11.15,-20.04 19.45,-41.47 27.48,-62.19 16.08,-41.47 32.7,-84.36 72.86,-117.2 52.86,-43.24 145.28,-67.92 274.68,-73.35 35.15,-1.48 71.28,-1.74 106.22,-2 68.52,-0.5 139.36,-1.02 205.97,-10.73 96.2,-14.03 185.05,-49.9 250.2,-101.02 65.19,-51.15 103.91,-115.41 109.01,-180.94 3.02,-38.74 -4.34,-79.02 -11.46,-117.98 -10.58,-57.93 -21.53,-117.83 2.27,-172.3 30.41,-69.6 137.68,-152.33 347.53,-175.82 139.01,-15.55 286.53,-3.12 429.19,8.9 17.32,1.46 34.63,2.92 51.89,4.33 128.84,10.5 264.27,18.64 395.82,11.24l0 -1.4c-131.47,7.4 -266.87,-0.73 -395.67,-11.23 -17.27,-1.41 -34.57,-2.86 -51.89,-4.33 -142.75,-12.03 -290.37,-24.47 -429.55,-8.89 -81.37,9.1 -156.28,29.08 -216.63,57.77 -66.24,31.49 -111.96,72.62 -132.2,118.94 -23.95,54.82 -12.97,114.9 -2.35,173.01 7.1,38.88 14.45,79.08 11.44,117.66 -5.07,65.17 -43.6,129.09 -108.48,180 -64.93,50.94 -153.49,86.69 -249.39,100.68 -66.48,9.69 -137.27,10.21 -205.72,10.71 -34.95,0.25 -71.09,0.52 -106.28,2 -129.79,5.46 -222.55,30.26 -275.7,73.73 -40.45,33.08 -57.14,76.14 -73.28,117.77 -8.02,20.68 -16.3,42.06 -27.41,62.02 -14.08,25.32 -34.15,49.01 -59.3,70.51l2.27 0zm-795.78 0c-19.15,-10.88 -38,-21.93 -56.69,-32.9 -11.54,-6.77 -23.22,-13.62 -35.02,-20.46l0 1.68c11.49,6.66 22.87,13.34 34.12,19.94 18.02,10.57 36.19,21.23 54.64,31.74l2.94 0z"/>
   <path class="fil17" d="M737.38 1803.68c78.04,-30.86 137.8,-75.19 170.14,-127.76 11.83,-19.23 20.89,-39.88 29.64,-59.86 17.53,-39.98 35.65,-81.33 76.82,-112.2 54.2,-40.64 147.07,-62.05 276.02,-63.61 35.05,-0.42 71.01,0.36 105.78,1.12 68.19,1.49 138.7,3.04 205.33,-4.51 96.23,-10.9 185.97,-43.33 252.68,-91.3 66.76,-48.01 107.66,-109.58 115.16,-173.36 4.43,-37.7 -1.4,-77.21 -7.05,-115.42 -8.39,-56.81 -17.07,-115.54 8.61,-167.97 32.83,-67.01 142.61,-144.6 352.3,-161.44 138.89,-11.16 285.22,5.23 426.74,21.09 17.18,1.92 34.35,3.85 51.48,5.72 132.09,14.43 271.3,26.61 406.6,22.01l0 -1.4c-135.21,4.6 -274.35,-7.57 -406.4,-22 -17.13,-1.87 -34.29,-3.79 -51.47,-5.72 -141.6,-15.86 -288.02,-32.27 -427.09,-21.1 -137.95,11.08 -303.28,59.52 -353.62,162.28 -25.85,52.79 -17.15,111.72 -8.73,168.71 5.63,38.13 11.46,77.55 7.04,115.1 -7.45,63.41 -48.15,124.64 -114.58,172.42 -66.48,47.81 -155.93,80.13 -251.87,91 -66.5,7.53 -136.95,5.98 -205.08,4.5 -34.79,-0.76 -70.77,-1.55 -105.84,-1.12 -129.34,1.57 -222.56,23.08 -277.05,63.95 -41.47,31.1 -59.67,72.62 -77.27,112.76 -8.74,19.94 -17.77,40.55 -29.56,59.7 -32.63,53.03 -93.34,97.64 -172.66,128.42l3.93 0zm-514.77 0c-82.31,-31.26 -153.56,-75.23 -222.61,-117.87l0 1.71c67.89,41.92 137.95,85.08 218.63,116.16l3.97 0z"/>
   <path class="fil18" d="M458.51 1775.61c43.48,0 87.01,-3.53 129.39,-10.71 130.26,-22.07 232.75,-75.58 281.19,-146.83 12.52,-18.41 22.32,-38.3 31.8,-57.54 18.98,-38.5 38.6,-78.31 80.77,-107.21 55.53,-38.05 148.89,-56.19 277.37,-53.86 34.92,0.63 70.7,2.47 105.31,4.24 67.88,3.48 138.06,7.09 204.72,1.71 96.27,-7.78 186.89,-36.75 255.17,-81.58 68.33,-44.87 111.4,-103.74 121.3,-165.77 5.85,-36.66 1.53,-75.4 -2.64,-112.86 -6.2,-55.68 -12.62,-113.26 14.96,-163.66 35.24,-64.41 147.55,-136.87 357.06,-147.06 138.78,-6.77 283.91,13.6 424.27,33.27 17.05,2.39 34.07,4.78 51.07,7.12 135.3,18.61 278.24,35.09 417.39,33.48l0 -1.4c-139.03,1.6 -281.9,-14.86 -417.14,-33.46 -16.99,-2.34 -34.02,-4.72 -51.07,-7.11 -140.44,-19.69 -285.67,-40.04 -424.61,-33.29 -137.83,6.7 -304.36,49.07 -358.41,147.86 -27.77,50.75 -21.33,108.52 -15.11,164.39 4.16,37.38 8.47,76.02 2.65,112.53 -9.83,61.65 -52.69,120.2 -120.67,164.84 -68.04,44.68 -158.37,73.56 -254.35,81.31 -66.55,5.38 -136.67,1.78 -204.48,-1.71 -34.62,-1.78 -70.42,-3.62 -105.37,-4.25 -128.91,-2.32 -222.57,15.91 -278.39,54.17 -42.5,29.12 -62.2,69.1 -81.26,107.76 -9.46,19.19 -19.24,39.04 -31.71,57.38 -48.2,70.91 -150.3,124.18 -280.12,146.17 -130.31,22.08 -271.63,9.62 -387.76,-34.17 -74.19,-27.98 -138.54,-66.52 -199.83,-105.83l0 1.73c61.09,39.15 125.23,77.48 199.2,105.38 78.63,29.65 168.81,44.98 259.31,44.98z"/>
   <path class="fil19" d="M440.01 1701.88c35.07,0 70.1,-2.27 104.49,-6.89 130.77,-17.56 235.07,-66.69 286.15,-134.79 13.2,-17.6 23.76,-36.72 33.96,-55.22 20.42,-37.01 41.54,-75.29 84.73,-102.22 56.87,-35.46 150.64,-50.31 278.72,-44.12 34.8,1.68 70.42,4.57 104.87,7.36 67.55,5.48 137.4,11.15 204.08,7.93 96.31,-4.65 187.81,-30.17 257.65,-71.87 69.9,-41.73 115.16,-97.9 127.44,-158.17 7.27,-35.63 4.47,-73.59 1.77,-110.29 -4.01,-54.56 -8.16,-110.97 21.3,-159.34 37.66,-61.82 152.48,-129.14 361.82,-132.68 138.67,-2.35 282.59,21.95 421.79,45.46 16.91,2.85 33.81,5.71 50.68,8.51 138.47,23.02 285.15,44.07 428.17,45.66l0 -1.4c-142.89,-1.59 -289.48,-22.63 -427.87,-45.63 -16.87,-2.8 -33.76,-5.65 -50.67,-8.51 -139.28,-23.52 -283.3,-47.85 -422.13,-45.48 -137.72,2.33 -305.45,38.61 -363.2,133.43 -29.67,48.71 -25.51,105.33 -21.48,160.09 2.69,36.62 5.48,74.49 -1.75,109.96 -12.21,59.9 -57.23,115.75 -126.77,157.27 -69.6,41.55 -160.81,66.99 -256.83,71.62 -66.57,3.23 -136.35,-2.45 -203.84,-7.92 -34.46,-2.8 -70.1,-5.68 -104.93,-7.37 -128.46,-6.19 -222.57,8.73 -279.74,44.39 -43.52,27.14 -64.73,65.57 -85.24,102.74 -10.19,18.45 -20.71,37.54 -33.86,55.06 -50.84,67.76 -154.74,116.67 -285.05,134.17 -130.82,17.57 -271.28,1.08 -385.37,-45.23 -58.28,-23.66 -110.03,-53.71 -158.89,-85.39l0 1.74c48.65,31.49 100.18,61.36 158.21,84.91 84.38,34.25 183.16,52.23 281.8,52.23z"/>
   <path class="fil20" d="M422.37 1628.95c26.38,0 52.72,-1.28 78.73,-3.86 131.27,-13.06 237.38,-57.8 291.11,-122.74 13.89,-16.78 25.19,-35.14 36.12,-52.9 21.87,-35.53 44.5,-72.26 88.69,-97.22 58.2,-32.87 152.42,-44.44 280.07,-34.38 34.67,2.73 70.12,6.67 104.4,10.48 67.23,7.47 136.75,15.21 203.47,14.14 96.35,-1.53 188.74,-23.59 260.13,-62.15 71.46,-38.59 118.9,-92.07 133.59,-150.58 8.68,-34.59 7.41,-71.77 6.18,-107.73 -1.82,-53.44 -3.71,-108.69 27.64,-155.02 40.07,-59.23 157.4,-121.38 366.58,-118.31 138.54,2.05 281.3,30.32 419.36,57.65 16.77,3.32 33.52,6.64 50.24,9.9 141.6,27.66 291.99,53.56 438.96,58.54l0 -1.4c-146.83,-4.98 -297.11,-30.86 -438.61,-58.51 -16.72,-3.26 -33.47,-6.58 -50.23,-9.9 -138.14,-27.35 -280.98,-55.64 -419.69,-57.69 -137.63,-2.01 -306.52,28.16 -367.99,119 -31.58,46.68 -29.69,102.14 -27.86,155.77 1.22,35.87 2.49,72.96 -6.15,107.39 -14.59,58.15 -61.77,111.31 -132.86,149.69 -71.16,38.42 -163.25,60.42 -259.31,61.94 -66.6,1.05 -136.06,-6.66 -203.24,-14.13 -34.29,-3.81 -69.75,-7.75 -104.45,-10.49 -128.02,-10.08 -222.58,1.56 -281.09,34.6 -44.54,25.16 -67.26,62.05 -89.23,97.73 -10.91,17.71 -22.19,36.03 -36.01,52.74 -53.47,64.62 -159.17,109.15 -289.99,122.17 -131.32,13.06 -270.91,-7.45 -382.99,-56.28 -42.54,-18.54 -81.32,-40.41 -117.94,-63.75l0 1.73c36.4,23.15 74.95,44.85 117.22,63.27 90.14,39.28 198.04,60.28 305.15,60.28z"/>
   <path class="fil21" d="M405.51 1556.86c17.47,0 34.89,-0.55 52.2,-1.68 131.77,-8.56 239.68,-48.91 296.07,-110.7 14.57,-15.97 26.62,-33.56 38.28,-50.57 23.32,-34.04 47.44,-69.24 92.65,-92.23 59.53,-30.28 154.22,-38.57 281.42,-24.63 34.56,3.79 69.84,8.78 103.96,13.61 66.91,9.46 136.08,19.25 202.82,20.36 96.45,1.57 189.65,-17.02 262.61,-52.43 73.03,-35.45 122.65,-86.23 139.73,-142.99 10.09,-33.56 10.35,-69.96 10.6,-105.16 0.37,-52.31 0.74,-106.41 33.98,-150.71 42.49,-56.63 162.33,-113.69 371.35,-103.94 138.42,6.45 279.99,38.67 416.9,69.84 16.63,3.78 33.24,7.57 49.82,11.3 144.68,32.55 298.75,63.57 449.75,72.15l0 -1.4c-150.82,-8.58 -304.78,-39.57 -449.35,-72.11 -16.58,-3.73 -33.19,-7.51 -49.82,-11.3 -136.98,-31.18 -278.63,-63.42 -417.22,-69.88 -137.47,-6.39 -307.6,17.7 -372.77,104.57 -33.49,44.64 -33.87,98.95 -34.24,151.47 -0.24,35.11 -0.5,71.43 -10.54,104.81 -16.97,56.39 -66.32,106.86 -138.96,142.12 -72.72,35.3 -165.67,53.81 -261.8,52.26 -66.63,-1.11 -135.75,-10.89 -202.59,-20.34 -34.13,-4.83 -69.43,-9.82 -104.02,-13.61 -127.56,-13.97 -222.58,-5.62 -282.43,24.81 -45.56,23.17 -69.78,58.53 -93.21,92.72 -11.63,16.97 -23.65,34.53 -38.16,50.42 -56.1,61.48 -163.6,101.64 -294.93,110.17 -131.83,8.56 -270.55,-15.98 -380.6,-67.34 -27.15,-12.67 -52.66,-26.67 -76.99,-41.51l0 1.71c24.09,14.66 49.36,28.5 76.23,41.04 95.85,44.73 213.42,69.17 329.28,69.17z"/>
   <path class="fil22" d="M389.3 1485.65c8.36,0 16.69,-0.13 25.01,-0.38 132.27,-4.06 241.99,-40.02 301.02,-98.65 15.26,-15.16 28.06,-31.98 40.44,-48.25 24.77,-32.55 50.39,-66.22 96.61,-87.24 60.87,-27.69 156,-32.7 282.78,-14.89 34.44,4.84 69.56,10.88 103.51,16.73 66.58,11.46 135.42,23.3 202.18,26.58 96.43,4.72 190.57,-10.44 265.09,-42.71 74.59,-32.3 126.4,-80.39 145.87,-135.39 11.51,-32.52 13.29,-68.14 15.01,-102.6 2.55,-51.19 5.2,-104.12 40.31,-146.39 44.91,-54.04 167.32,-105.96 376.12,-89.57 138.3,10.85 278.66,47.03 414.4,82.02 16.5,4.26 32.99,8.5 49.45,12.7 147.7,37.69 305.45,74.11 460.53,86.49l0 -1.4c-154.9,-12.38 -312.51,-48.77 -460.08,-86.43 -16.46,-4.2 -32.94,-8.45 -49.44,-12.7 -135.82,-35.01 -276.26,-71.21 -414.72,-82.07 -137.36,-10.78 -308.67,7.24 -377.56,90.14 -35.41,42.61 -38.05,95.75 -40.62,147.15 -1.71,34.37 -3.48,69.9 -14.94,102.25 -19.34,54.64 -70.85,102.42 -145.05,134.55 -74.27,32.16 -168.14,47.29 -264.28,42.57 -66.65,-3.27 -135.44,-15.1 -201.96,-26.55 -33.97,-5.85 -69.1,-11.89 -103.57,-16.74 -127.11,-17.86 -222.59,-12.8 -283.77,15.03 -46.58,21.19 -72.31,55.01 -97.2,87.71 -12.35,16.23 -25.13,33.01 -40.31,48.1 -58.74,58.35 -168.04,94.13 -299.87,98.18 -132.34,4.09 -270.19,-24.51 -378.21,-78.39 -12.36,-6.17 -24.36,-12.6 -36.04,-19.26l0 1.67c11.43,6.49 23.16,12.78 35.24,18.8 101.48,50.62 229.23,78.95 354.06,78.96z"/>
   <path class="fil23" d="M373.63 1415.37c131.58,0 241.99,-31.51 303.25,-86.61 15.94,-14.34 29.49,-30.4 42.6,-45.93 26.22,-31.07 53.34,-63.2 100.57,-82.25 62.2,-25.09 157.8,-26.82 284.13,-5.14 34.32,5.89 69.26,12.99 103.04,19.84 66.26,13.45 134.78,27.36 201.58,32.8 96.45,7.85 191.48,-3.86 267.56,-32.99 76.16,-29.16 130.14,-74.54 152.02,-127.79 12.92,-31.48 16.23,-66.33 19.42,-100.03 4.74,-50.07 9.65,-101.84 46.65,-142.08 47.32,-51.45 172.23,-98.22 380.88,-75.2 138.19,15.25 277.37,55.4 411.97,94.21 16.35,4.72 32.69,9.43 49.01,14.09 150.66,43.06 312.03,85.16 471.32,101.56l0 -1.41c-159.09,-16.4 -320.3,-58.46 -470.82,-101.48 -16.31,-4.66 -32.65,-9.37 -49,-14.09 -134.67,-38.84 -273.93,-79 -412.28,-94.27 -137.24,-15.15 -309.75,-3.22 -382.34,75.71 -37.31,40.57 -42.24,92.56 -47,142.84 -3.18,33.61 -6.47,68.37 -19.33,99.68 -21.72,52.89 -75.4,97.98 -151.15,126.98 -75.83,29.04 -170.58,40.71 -266.77,32.88 -66.69,-5.43 -135.15,-19.32 -201.36,-32.77 -33.8,-6.86 -68.75,-13.95 -103.1,-19.85 -126.67,-21.75 -222.59,-19.98 -285.11,5.25 -47.6,19.21 -74.84,51.48 -101.18,82.69 -13.07,15.49 -26.6,31.51 -42.46,45.78 -60.95,54.82 -170.96,86.18 -302.09,86.18 -0.91,0 -1.81,0 -2.72,-0 -130.8,-0.43 -265.62,-32.05 -370.92,-86.86l0 1.63c105.42,54.67 240.17,86.2 370.91,86.63 0.91,0 1.82,0 2.72,0z"/>
   <path class="fil24" d="M358.14 1346.03c119.93,0 220.96,-26.87 280.3,-75.13 16.63,-13.52 30.93,-28.81 44.77,-43.6 27.67,-29.58 56.28,-60.18 104.53,-77.26 63.54,-22.51 159.6,-20.95 285.48,4.6 34.2,6.95 68.98,15.09 102.61,22.96 65.93,15.44 134.11,31.41 200.93,39.01 96.49,10.98 192.4,2.71 270.04,-23.28 77.73,-26.01 133.89,-68.7 158.15,-120.19 14.35,-30.44 19.17,-64.52 23.84,-97.47 6.93,-48.95 14.1,-99.56 52.99,-137.77 49.74,-48.86 177.18,-90.5 385.66,-60.83 138.07,19.65 276.05,63.75 409.49,106.39 16.23,5.18 32.43,10.37 48.62,15.5 149.41,47.36 309.62,94.14 468.85,115.63 4.43,0.6 8.85,1.17 13.26,1.72l0 -1.41c-4.32,-0.54 -8.66,-1.1 -13.01,-1.69 -159.09,-21.47 -319.21,-68.23 -468.54,-115.57 -16.19,-5.13 -32.39,-10.31 -48.61,-15.49 -133.51,-42.67 -271.56,-86.79 -409.78,-106.46 -137.12,-19.52 -310.82,-13.67 -387.11,61.28 -39.22,38.53 -46.42,89.36 -53.38,138.52 -4.65,32.86 -9.47,66.84 -23.73,97.11 -24.09,51.13 -79.94,93.54 -157.24,119.42 -77.39,25.91 -173.02,34.15 -269.26,23.19 -66.71,-7.59 -134.84,-23.54 -200.72,-38.97 -33.64,-7.88 -68.43,-16.03 -102.66,-22.98 -126.21,-25.63 -222.59,-27.16 -286.45,-4.54 -48.62,17.22 -77.37,47.96 -105.16,77.67 -13.8,14.75 -28.07,30 -44.61,43.46 -64.01,52.06 -176.93,79.1 -309.77,74.18 -114.52,-4.24 -231.09,-31.86 -327.58,-76.9l0 1.58c96.56,44.93 213.05,72.47 327.51,76.71 10.33,0.38 20.55,0.57 30.62,0.57z"/>
   <path class="fil25" d="M342.36 1277.63c108.65,0 200.6,-22.74 257.63,-64.6 17.31,-12.71 32.36,-27.23 46.92,-41.28 29.12,-28.1 59.24,-57.15 108.49,-72.27 64.88,-19.92 161.39,-15.09 286.84,14.35 34.08,8 68.69,17.2 102.16,26.09 65.61,17.43 133.45,35.46 200.29,45.22 96.53,14.11 193.32,9.29 272.51,-13.56 79.29,-22.87 137.63,-62.86 164.29,-112.59 15.76,-29.41 22.11,-62.7 28.25,-94.9 9.12,-47.83 18.55,-97.28 59.33,-133.46 52.16,-46.27 182.12,-82.78 390.43,-46.46 137.96,24.06 274.77,72.12 407.07,118.59 16.07,5.65 32.13,11.29 48.17,16.88 148.15,51.65 307.17,103.12 466.3,129.7 8.92,1.49 17.78,2.88 26.59,4.19l0 -1.42c-8.7,-1.29 -17.46,-2.67 -26.29,-4.15 -158.99,-26.56 -317.93,-78 -466.01,-129.62 -16.04,-5.59 -32.09,-11.23 -48.16,-16.88 -132.37,-46.5 -269.24,-94.59 -407.36,-118.67 -137,-23.88 -311.89,-24.13 -391.89,46.85 -41.13,36.49 -50.6,86.17 -59.76,134.21 -6.12,32.11 -12.45,65.31 -28.12,94.54 -26.47,49.38 -84.48,89.11 -163.35,111.85 -78.95,22.78 -175.46,27.57 -271.74,13.51 -66.74,-9.75 -134.53,-27.76 -200.09,-45.19 -33.48,-8.9 -68.1,-18.1 -102.21,-26.1 -125.77,-29.52 -222.6,-34.33 -287.79,-14.32 -49.64,15.24 -79.89,44.43 -109.15,72.66 -14.52,14.01 -29.54,28.5 -46.77,41.15 -66.65,48.93 -181.35,71.59 -314.71,62.19 -98.62,-6.96 -197.99,-30.86 -284.24,-67.53l0 1.56c86.27,36.58 185.57,60.42 284.11,67.37 19.86,1.4 39.31,2.09 58.24,2.09z"/>
   <path class="fil26" d="M326.14 1210.19c97.82,0 181.03,-19.08 235.4,-55.02 18,-11.89 33.8,-25.65 49.09,-38.96 30.57,-26.62 62.18,-54.14 112.45,-67.29 66.23,-17.32 163.19,-9.22 288.2,24.1 33.96,9.05 68.4,19.3 101.7,29.2 65.29,19.43 132.8,39.52 199.67,51.45 96.57,17.23 194.23,15.86 274.99,-3.84 80.85,-19.73 141.38,-57.02 170.43,-104.99 17.18,-28.37 25.05,-60.88 32.66,-92.34 11.31,-46.7 23,-95 65.66,-129.14 54.58,-43.69 187.06,-75.06 395.21,-32.09 137.85,28.46 273.46,80.47 404.6,130.78 15.94,6.11 31.86,12.22 47.76,18.28 146.87,55.94 304.7,112.08 463.75,143.76 13.43,2.68 26.74,5.14 39.92,7.39l0 -1.43c-13.06,-2.24 -26.25,-4.68 -39.56,-7.33 -158.93,-31.65 -316.67,-87.76 -463.47,-143.68 -15.9,-6.06 -31.82,-12.16 -47.75,-18.27 -131.21,-50.33 -266.89,-102.37 -404.88,-130.86 -136.88,-28.26 -312.96,-34.58 -396.66,32.42 -43.04,34.45 -54.78,82.97 -66.14,129.89 -7.59,31.35 -15.44,63.78 -32.52,91.97 -28.84,47.63 -89.02,84.68 -169.44,104.3 -80.51,19.65 -177.9,21 -274.23,3.82 -66.77,-11.91 -134.23,-31.98 -199.48,-51.4 -33.31,-9.91 -67.76,-20.16 -101.74,-29.22 -125.32,-33.4 -222.6,-41.51 -289.13,-24.1 -50.65,13.25 -82.41,40.9 -113.12,67.64 -15.24,13.27 -31.01,26.99 -48.92,38.83 -69.29,45.79 -185.8,64.08 -319.67,50.19 -83.01,-8.62 -166.02,-28.97 -240.91,-58.35l0 1.53c74.87,29.3 157.79,49.6 240.72,58.2 29.41,3.05 58,4.55 85.42,4.55z"/>
   <path class="fil27" d="M3207.63 1128.73c-17.39,-3.38 -35.01,-7.12 -52.84,-11.24 -158.87,-36.75 -315.42,-97.53 -460.94,-157.74 -15.75,-6.52 -31.52,-13.09 -47.31,-19.66 -130.06,-54.16 -264.56,-110.17 -402.44,-143.06 -136.76,-32.63 -314.04,-45.03 -401.43,17.99 -44.95,32.41 -58.97,79.77 -72.53,125.57 -9.06,30.6 -18.43,62.25 -36.91,89.4 -31.22,45.88 -93.57,80.24 -175.55,96.73 -82.08,16.52 -180.35,14.43 -276.72,-5.87 -66.8,-14.07 -133.93,-36.2 -198.85,-57.61 -33.15,-10.93 -67.43,-22.23 -101.3,-32.34 -124.87,-37.28 -222.6,-48.69 -290.46,-33.88 -51.67,11.27 -84.93,37.37 -117.1,62.62 -15.97,12.53 -32.48,25.49 -51.07,36.51 -71.92,42.65 -190.24,56.58 -324.62,38.19 -67.64,-9.25 -134.94,-26.12 -197.57,-49.02l0 1.51c62.58,22.83 129.78,39.65 197.32,48.89 134.77,18.44 253.51,4.43 325.76,-38.42 18.68,-11.08 35.23,-24.07 51.24,-36.63 32.02,-25.13 65.14,-51.11 116.42,-62.3 67.56,-14.74 164.98,-3.34 289.55,33.85 33.85,10.1 68.11,21.4 101.25,32.32 64.97,21.42 132.15,43.57 199.04,57.66 96.61,20.35 195.14,22.43 277.46,5.87 82.41,-16.58 145.12,-51.17 176.57,-97.38 18.6,-27.33 27.99,-59.07 37.08,-89.77 13.49,-45.58 27.45,-92.72 71.99,-124.84 57,-41.1 192,-67.33 399.99,-17.72 137.74,32.86 272.17,88.84 402.17,142.98 15.79,6.58 31.56,13.14 47.32,19.66 145.58,60.24 302.22,121.05 461.21,157.82 17.96,4.16 35.72,7.93 53.25,11.33l0 -1.44z"/>
   <path class="fil28" d="M3207.63 1168.14c-21.7,-4.71 -43.76,-10 -66.11,-15.9 -158.77,-41.84 -314.14,-107.29 -458.4,-171.79 -15.61,-6.98 -31.23,-14.01 -46.87,-21.05 -128.92,-57.99 -262.23,-117.97 -400,-155.27 -136.64,-37 -315.1,-55.49 -406.2,3.56 -46.86,30.37 -63.15,76.56 -78.91,121.24 -10.53,29.85 -21.41,60.72 -41.3,86.83 -33.6,44.14 -98.11,75.81 -181.65,89.18 -83.64,13.39 -182.8,7.86 -279.21,-15.56 -66.83,-16.23 -133.63,-40.43 -198.24,-63.82 -32.98,-11.94 -67.09,-24.3 -100.83,-35.46 -124.42,-41.17 -222.6,-55.85 -291.8,-43.66 -52.69,9.29 -87.46,33.85 -121.08,57.6 -16.69,11.79 -33.95,23.98 -53.22,34.2 -74.56,39.51 -194.69,49.06 -329.57,26.19 -52.48,-8.9 -104.55,-22.28 -154.23,-39.34l0 1.5c49.59,17 101.55,30.34 153.93,39.21 135.27,22.93 255.81,13.32 330.71,-26.37 19.37,-10.26 36.67,-22.49 53.39,-34.3 33.48,-23.65 68.09,-48.1 120.39,-57.32 68.91,-12.14 166.78,2.52 290.91,43.59 33.72,11.15 67.82,23.5 100.79,35.44 64.65,23.41 131.49,47.62 198.42,63.88 96.65,23.47 196.06,29.01 279.93,15.58 83.97,-13.44 148.86,-45.32 182.7,-89.78 20.01,-26.29 30.94,-57.26 41.5,-87.2 15.68,-44.46 31.89,-90.44 78.33,-120.53 59.41,-38.5 196.95,-59.61 404.77,-3.34 137.63,37.27 270.88,97.21 399.74,155.18 15.64,7.04 31.26,14.06 46.88,21.05 144.32,64.53 299.77,130.02 458.66,171.89 22.51,5.93 44.73,11.27 66.58,16l0 -1.44z"/>
   <path class="fil29" d="M3207.63 1208.27c-26,-6.23 -52.5,-13.32 -79.39,-21.27 -158.68,-46.93 -312.87,-117.06 -455.85,-185.85 -15.48,-7.45 -30.98,-14.95 -46.49,-22.45 -127.76,-61.82 -259.86,-125.75 -397.5,-167.45 -136.52,-41.36 -316.18,-65.93 -410.97,-10.87 -48.76,28.33 -67.33,73.37 -85.29,116.92 -12,29.1 -24.4,59.19 -45.69,84.27 -35.98,42.38 -102.66,71.37 -187.76,81.61 -85.2,10.25 -185.24,1.29 -281.7,-25.25 -66.86,-18.4 -133.34,-44.65 -197.62,-70.04 -32.81,-12.96 -66.74,-26.36 -100.37,-38.58 -123.98,-45.05 -222.61,-63.04 -293.14,-53.44 -53.7,7.3 -89.98,30.32 -125.06,52.58 -17.41,11.05 -35.42,22.48 -55.37,31.88 -77.21,36.37 -199.14,41.54 -334.53,14.19 -37.52,-7.58 -74.72,-17.4 -110.89,-29.14l0 1.49c36.07,11.68 73.14,21.46 110.53,29.01 135.76,27.43 258.11,22.21 335.65,-14.33 20.05,-9.44 38.1,-20.9 55.55,-31.98 34.93,-22.16 71.04,-45.08 124.36,-52.33 70.24,-9.55 168.57,8.4 292.27,53.34 33.6,12.21 67.52,25.6 100.32,38.56 64.33,25.41 130.85,51.68 197.8,70.1 96.68,26.6 196.97,35.59 282.4,25.3 85.53,-10.3 152.59,-39.48 188.83,-82.17 21.43,-25.25 33.88,-55.43 45.91,-84.63 17.87,-43.34 36.35,-88.16 84.67,-116.23 61.84,-35.92 201.9,-51.88 409.56,11.03 137.51,41.66 269.56,105.56 397.25,167.35 15.51,7.51 31.01,15 46.49,22.46 143.05,68.82 297.31,138.99 456.12,185.95 27.07,8.01 53.74,15.14 79.91,21.4l0 -1.45z"/>
   <path class="fil30" d="M3207.63 1249.12c-30.28,-7.93 -61.23,-17.05 -92.67,-27.37 -158.6,-52.02 -311.6,-126.82 -453.32,-199.91 -15.35,-7.92 -30.71,-15.88 -46.08,-23.86 -126.6,-65.65 -257.51,-133.53 -395.03,-179.64 -136.4,-45.73 -317.24,-76.39 -415.74,-25.3 -50.67,26.28 -71.51,70.16 -91.67,112.6 -13.46,28.35 -27.38,57.66 -50.08,81.71 -38.36,40.64 -107.21,66.94 -193.87,74.06 -86.77,7.13 -187.69,-5.28 -284.19,-34.94 -66.89,-20.56 -133.02,-48.87 -196.98,-76.24 -32.66,-13.98 -66.43,-28.44 -99.94,-41.71 -123.53,-48.93 -222.61,-70.2 -294.48,-63.21 -54.72,5.32 -92.5,26.8 -129.03,47.57 -18.13,10.31 -36.89,20.97 -57.52,29.56 -79.84,33.24 -203.58,34.04 -339.48,2.19 -22.72,-5.32 -45.29,-11.45 -67.55,-18.31l0 1.48c22.13,6.8 44.56,12.88 67.14,18.18 136.27,31.93 260.41,31.1 340.59,-2.28 20.73,-8.63 39.53,-19.32 57.71,-29.65 36.38,-20.68 73.99,-42.07 128.34,-47.35 71.56,-6.94 170.36,14.27 293.63,63.1 33.49,13.26 67.24,27.71 99.89,41.69 64,27.4 130.18,55.73 197.15,76.31 96.72,29.72 197.88,42.15 284.87,35.01 87.09,-7.15 156.33,-33.63 194.96,-74.56 22.85,-24.21 36.82,-53.62 50.33,-82.06 20.06,-42.23 40.8,-85.89 91.01,-111.93 64.26,-33.33 206.85,-44.16 414.34,25.4 137.39,46.06 268.24,113.92 394.78,179.54 15.38,7.97 30.73,15.94 46.09,23.85 141.78,73.12 294.85,147.96 453.57,200.02 31.63,10.38 62.77,19.56 93.24,27.52l0 -1.46z"/>
   <path class="fil31" d="M3207.63 1290.69c-34.56,-9.81 -69.96,-21.21 -105.95,-34.18 -158.53,-57.12 -310.34,-136.59 -450.78,-213.97 -15.2,-8.37 -30.4,-16.79 -45.62,-25.22 -125.46,-69.49 -255.19,-141.34 -392.61,-191.86 -136.27,-50.1 -318.3,-86.85 -420.5,-39.73 -52.58,24.24 -75.69,66.96 -98.05,108.27 -14.94,27.6 -30.37,56.13 -54.48,79.14 -40.74,38.9 -111.76,62.51 -199.98,66.5 -88.33,3.99 -190.14,-11.85 -286.68,-44.63 -66.92,-22.72 -132.74,-53.1 -196.38,-82.47 -32.49,-14.99 -66.07,-30.49 -99.45,-44.82 -123.09,-52.81 -222.62,-77.38 -295.81,-72.98 -55.73,3.33 -95.01,23.27 -133,42.55 -18.86,9.57 -38.36,19.47 -59.68,27.25 -82.48,30.1 -208.03,26.52 -344.44,-9.81 -8.1,-2.16 -16.17,-4.42 -24.21,-6.77l0 1.48c7.89,2.3 15.8,4.52 23.74,6.63 136.77,36.42 262.7,39.98 345.53,9.76 21.41,-7.81 40.96,-17.74 59.87,-27.33 37.83,-19.2 76.95,-39.05 132.3,-42.36 72.91,-4.34 172.16,20.15 294.99,72.85 33.36,14.31 66.93,29.81 99.41,44.79 63.68,29.39 129.54,59.79 196.55,82.54 96.75,32.84 198.78,48.72 287.35,44.73 88.65,-4.01 160.06,-27.79 201.08,-66.96 24.27,-23.17 39.76,-51.8 54.74,-79.49 22.24,-41.1 45.24,-83.61 97.34,-107.63 66.68,-30.73 211.81,-36.43 419.13,39.78 137.29,50.47 266.97,122.3 392.37,191.75 15.22,8.43 30.43,16.85 45.63,25.23 140.5,77.41 292.38,156.92 451.02,214.08 36.2,13.04 71.81,24.51 106.56,34.36l0 -1.48z"/>
   <path class="fil32" d="M3207.63 1255.17c-37.06,-9.58 -75.15,-20.98 -113.97,-34.17 -158.41,-53.81 -310.62,-129.78 -451.51,-203.87 -15.27,-8.03 -30.54,-16.1 -45.83,-24.19 -125.85,-66.53 -255.98,-135.32 -393.3,-182.96 -136.2,-47.25 -317.52,-80.59 -417.94,-32.49 -51.66,24.74 -73.73,67.24 -95.07,108.35 -14.25,27.46 -28.99,55.85 -52.43,78.93 -39.62,39.01 -109.59,63.43 -197.03,68.77 -87.54,5.33 -188.85,-8.67 -285.29,-39.46 -66.85,-21.35 -132.75,-50.26 -196.48,-78.21 -32.53,-14.27 -66.17,-29.03 -99.57,-42.63 -123.18,-50.13 -222.41,-72.78 -294.93,-67.29 -55.22,4.18 -93.78,24.46 -131.07,44.08 -18.52,9.74 -37.66,19.81 -58.65,27.82 -81.22,31 -205.83,29.46 -341.88,-4.19 -10.93,-2.71 -21.83,-5.59 -32.66,-8.65l0 1.47c10.69,3.01 21.44,5.86 32.23,8.52 136.41,33.76 261.41,35.26 342.96,4.14 21.09,-8.05 40.27,-18.15 58.83,-27.91 37.14,-19.53 75.54,-39.74 130.39,-43.89 72.23,-5.46 171.19,17.13 294.11,67.16 33.38,13.59 67.01,28.34 99.53,42.61 63.77,27.98 129.71,56.91 196.65,78.28 96.65,30.86 198.2,44.89 285.95,39.54 87.86,-5.37 158.22,-29.95 198.12,-69.24 23.6,-23.24 38.39,-51.73 52.69,-79.28 21.23,-40.89 43.18,-83.18 94.38,-107.7 65.53,-31.38 209.37,-39.31 416.58,32.57 137.2,47.59 267.27,116.35 393.06,182.85 15.29,8.09 30.56,16.16 45.83,24.19 140.95,74.12 293.24,150.13 451.76,203.98 39.01,13.25 77.31,24.71 114.55,34.33l0 -1.46z"/>
   <path class="fil33" d="M3207.63 1219.28c-39.53,-9.22 -80.33,-20.5 -121.99,-33.79 -158.3,-50.5 -310.91,-122.97 -452.25,-193.77 -15.3,-7.66 -30.6,-15.37 -45.93,-23.09 -126.27,-63.6 -256.84,-129.35 -394.1,-174.11 -136.13,-44.39 -316.73,-74.34 -415.39,-25.26 -50.75,25.25 -71.77,67.53 -92.09,108.43 -13.57,27.31 -27.61,55.56 -50.39,78.7 -38.51,39.12 -107.43,64.35 -194.08,71.04 -86.76,6.69 -187.57,-5.48 -283.9,-34.29 -66.77,-19.97 -132.76,-47.42 -196.58,-73.96 -32.57,-13.55 -66.26,-27.56 -99.69,-40.43 -123.26,-47.45 -222.18,-68.16 -294.04,-61.58 -54.7,5.02 -92.55,25.66 -129.14,45.62 -18.17,9.91 -36.96,20.15 -57.62,28.4 -79.94,31.9 -203.62,32.42 -339.33,1.42 -13.77,-3.15 -27.49,-6.58 -41.11,-10.28l0 1.46c13.49,3.66 27.07,7.06 40.71,10.17 136.05,31.08 260.13,30.54 340.4,-1.5 20.76,-8.28 39.59,-18.55 57.8,-28.48 36.44,-19.88 74.13,-40.43 128.46,-45.41 71.56,-6.58 170.22,14.12 293.22,61.47 33.41,12.86 67.08,26.87 99.65,40.41 63.85,26.56 129.89,54.03 196.75,74.02 96.54,28.87 197.6,41.07 284.57,34.36 87.07,-6.72 156.37,-32.12 195.16,-71.52 22.94,-23.31 37.02,-51.65 50.65,-79.06 20.22,-40.68 41.12,-82.75 91.41,-107.77 64.37,-32.02 206.93,-42.18 414.03,25.36 137.14,44.72 267.65,110.45 393.86,174.02 15.33,7.72 30.63,15.42 45.93,23.09 141.4,70.82 294.09,143.33 452.5,193.87 41.85,13.35 82.83,24.68 122.54,33.92l0 -1.45z"/>
   <path class="fil34" d="M3207.63 1183.02c-41.98,-8.73 -85.48,-19.76 -130.01,-33.05 -158.19,-47.21 -311.2,-116.17 -452.98,-183.67 -15.36,-7.31 -30.73,-14.67 -46.11,-22.03 -126.66,-60.64 -257.64,-123.34 -394.81,-165.23 -136.05,-41.53 -315.95,-68.09 -412.83,-18.03 -49.84,25.75 -69.81,67.82 -89.11,108.51 -12.89,27.17 -26.23,55.27 -48.35,78.49 -37.39,39.24 -105.26,65.27 -191.12,73.31 -85.96,8.05 -186.29,-2.29 -282.52,-29.12 -66.69,-18.59 -132.77,-44.58 -196.67,-69.7 -32.62,-12.83 -66.36,-26.09 -99.81,-38.24 -123.36,-44.77 -222,-63.58 -293.16,-55.88 -54.19,5.86 -91.32,26.85 -127.23,47.15 -17.82,10.07 -36.25,20.5 -56.59,28.97 -78.67,32.8 -201.42,35.36 -336.77,7.03 -16.62,-3.48 -33.16,-7.37 -49.57,-11.65l0 1.46c16.29,4.24 32.7,8.1 49.2,11.55 135.7,28.41 258.83,25.81 337.83,-7.13 20.42,-8.52 38.9,-18.96 56.77,-29.06 35.75,-20.21 72.72,-41.11 126.55,-46.93 70.89,-7.66 169.25,11.1 292.34,55.78 33.43,12.14 67.16,25.4 99.77,38.22 63.94,25.14 130.06,51.14 196.84,69.76 96.43,26.88 197,37.25 283.17,29.18 86.28,-8.07 154.53,-34.28 192.19,-73.8 22.28,-23.38 35.66,-51.58 48.6,-78.85 19.2,-40.47 39.06,-82.32 88.45,-107.84 63.21,-32.66 204.5,-45.05 411.48,18.15 137.05,41.84 267.97,104.52 394.57,165.13 15.39,7.37 30.75,14.73 46.12,22.04 141.84,67.53 294.92,136.53 453.23,183.77 44.71,13.34 88.38,24.41 130.53,33.16l0 -1.44z"/>
   <path class="fil35" d="M3207.63 1146.4c-44.4,-8.11 -90.6,-18.76 -138.03,-31.93 -158.09,-43.9 -311.49,-109.37 -453.71,-173.57 -15.39,-6.95 -30.79,-13.94 -46.21,-20.94 -127.09,-57.7 -258.5,-117.37 -395.62,-156.38 -135.98,-38.68 -315.17,-61.84 -410.27,-10.8 -48.94,26.26 -67.85,68.11 -86.14,108.59 -12.22,27.03 -24.84,54.99 -46.31,78.27 -36.27,39.35 -103.1,66.19 -188.18,75.58 -85.17,9.39 -185.01,0.89 -281.13,-23.95 -66.62,-17.22 -132.78,-41.74 -196.76,-65.45 -32.67,-12.11 -66.45,-24.63 -99.93,-36.04 -123.43,-42.09 -221.76,-58.98 -292.27,-50.17 -53.68,6.69 -90.09,28.04 -125.3,48.68 -17.48,10.25 -35.55,20.84 -55.56,29.55 -77.4,33.7 -199.21,38.3 -334.21,12.64 -19.46,-3.7 -38.83,-7.97 -58.02,-12.75l0 1.46c19.07,4.75 38.33,8.98 57.67,12.66 135.35,25.73 257.55,21.09 335.27,-12.76 20.1,-8.75 38.21,-19.37 55.74,-29.64 35.06,-20.55 71.32,-41.81 124.63,-48.46 70.23,-8.76 168.29,8.09 291.46,50.09 33.46,11.41 67.23,23.92 99.88,36.03 64.03,23.73 130.24,48.27 196.94,65.5 96.32,24.9 196.39,33.42 281.78,24 85.49,-9.43 152.69,-36.45 189.22,-76.09 21.62,-23.45 34.29,-51.5 46.55,-78.63 18.19,-40.26 37,-81.9 85.49,-107.92 62.05,-33.3 202.07,-47.91 408.93,10.94 137,38.97 268.35,98.62 395.38,156.29 15.42,7 30.82,13.99 46.21,20.94 142.29,64.23 295.76,129.73 453.97,173.66 47.58,13.21 93.95,23.91 138.51,32.03l0 -1.43z"/>
   <path class="fil36" d="M3207.63 1109.41c-46.79,-7.35 -95.7,-17.52 -146.05,-30.46 -157.99,-40.6 -311.78,-102.56 -454.45,-163.47 -15.46,-6.6 -30.93,-13.24 -46.42,-19.9 -127.47,-54.75 -259.28,-111.36 -396.31,-147.48 -135.91,-35.83 -314.39,-55.59 -407.72,-3.57 -48.02,26.77 -65.88,68.41 -83.15,108.68 -11.54,26.89 -23.46,54.7 -44.26,78.05 -35.16,39.47 -100.94,67.11 -185.23,77.85 -84.38,10.75 -183.73,4.08 -279.74,-18.78 -66.54,-15.84 -132.79,-38.9 -196.85,-61.2 -32.72,-11.39 -66.55,-23.16 -100.06,-33.85 -123.52,-39.41 -221.55,-54.38 -291.39,-44.47 -53.16,7.54 -88.85,29.24 -123.37,50.22 -17.13,10.42 -34.85,21.18 -54.53,30.12 -76.13,34.6 -197.01,41.25 -331.65,18.26 -22.31,-3.81 -44.51,-8.36 -66.47,-13.58l0 1.45c21.85,5.19 43.96,9.71 66.16,13.51 134.99,23.05 256.25,16.35 332.7,-18.39 19.77,-8.98 37.53,-19.78 54.7,-30.22 34.37,-20.89 69.91,-42.49 122.71,-49.98 69.56,-9.87 167.32,5.07 290.57,44.4 33.49,10.68 67.3,22.45 100.01,33.84 64.11,22.31 130.4,45.38 197.03,61.24 96.22,22.9 195.8,29.58 280.39,18.81 84.7,-10.79 150.85,-38.62 186.26,-78.37 20.95,-23.52 32.92,-51.43 44.5,-78.42 17.18,-40.05 34.95,-81.47 82.52,-107.99 60.89,-33.94 199.63,-50.79 406.39,3.72 136.9,36.1 268.65,92.68 396.06,147.4 15.49,6.65 30.96,13.3 46.42,19.9 142.73,60.94 296.6,122.93 454.7,163.56 50.49,12.98 99.56,23.17 146.5,30.54l0 -1.43z"/>
   <path class="fil37" d="M3207.63 1072.05c-49.14,-6.47 -100.77,-16.02 -154.07,-28.61 -157.88,-37.3 -312.07,-95.75 -455.18,-153.37 -15.48,-6.23 -30.97,-12.51 -46.47,-18.79 -127.91,-51.81 -260.17,-105.39 -397.15,-138.65 -135.83,-32.98 -313.59,-49.34 -405.16,3.67 -47.11,27.27 -63.92,68.7 -80.18,108.76 -10.86,26.75 -22.08,54.41 -42.22,77.83 -34.04,39.58 -98.78,68.04 -182.28,80.12 -83.6,12.1 -182.45,7.27 -278.35,-13.6 -66.48,-14.47 -132.83,-36.07 -197,-56.96 -32.75,-10.66 -66.61,-21.68 -100.13,-31.64 -123.61,-36.73 -221.34,-49.76 -290.5,-38.77 -52.65,8.38 -87.62,30.43 -121.44,51.75 -16.79,10.58 -34.15,21.53 -53.5,30.7 -74.86,35.5 -194.81,44.2 -329.1,23.87 -25.15,-3.81 -50.2,-8.55 -74.91,-14.14l0 1.45c24.63,5.56 49.58,10.28 74.64,14.07 134.63,20.39 254.97,11.63 330.14,-24.02 19.44,-9.22 36.83,-20.19 53.67,-30.8 33.68,-21.23 68.5,-43.19 120.79,-51.51 68.88,-10.98 166.35,2.06 289.69,38.71 33.5,9.95 67.35,20.97 100.08,31.63 64.21,20.9 130.61,42.52 197.17,57 96.11,20.92 195.19,25.76 279,13.63 83.91,-12.14 149,-40.78 183.29,-80.65 20.29,-23.59 31.55,-51.35 42.45,-78.2 16.17,-39.84 32.89,-81.04 79.55,-108.06 59.74,-34.58 197.2,-53.65 403.84,-3.48 136.85,33.23 269.05,86.78 396.9,138.57 15.51,6.28 31,12.55 46.48,18.79 143.18,57.64 297.45,116.13 455.44,153.45 53.43,12.62 105.2,22.2 154.49,28.68l0 -1.41z"/>
   <path class="fil38" d="M3207.63 1034.32c-51.46,-5.46 -105.82,-14.27 -162.09,-26.4 -157.75,-33.99 -312.35,-88.95 -455.92,-143.28 -15.55,-5.88 -31.11,-11.81 -46.68,-17.74 -128.29,-48.86 -260.95,-99.38 -397.84,-129.75 -135.76,-30.12 -312.81,-43.08 -402.6,10.9 -46.2,27.77 -61.96,68.99 -77.2,108.84 -10.18,26.61 -20.7,54.13 -40.18,77.61 -32.93,39.7 -96.61,68.96 -179.32,82.39 -82.81,13.44 -181.17,10.45 -276.96,-8.44 -66.41,-13.09 -132.85,-33.23 -197.11,-52.7 -32.79,-9.94 -66.7,-20.22 -100.24,-29.45 -123.7,-34.05 -221.14,-45.17 -289.61,-33.06 -52.14,9.22 -86.39,31.62 -119.52,53.29 -16.44,10.75 -33.44,21.87 -52.46,31.28 -73.59,36.4 -192.61,47.14 -326.54,29.48 -28,-3.69 -55.89,-8.54 -83.37,-14.42l0 1.44c27.4,5.86 55.21,10.68 83.13,14.36 134.28,17.71 253.67,6.91 327.57,-29.65 19.11,-9.45 36.15,-20.6 52.63,-31.38 32.98,-21.57 67.09,-43.87 118.87,-53.03 68.2,-12.06 165.38,-0.95 288.81,33.02 33.52,9.23 67.41,19.5 100.19,29.44 64.3,19.49 130.79,39.64 197.28,52.75 95.99,18.93 194.59,21.93 277.61,8.45 83.12,-13.49 147.16,-42.95 180.33,-82.94 19.62,-23.66 30.18,-51.28 40.4,-77.99 15.16,-39.64 30.83,-80.62 76.59,-108.13 58.58,-35.23 194.77,-56.53 401.29,-10.7 136.76,30.35 269.36,80.84 397.6,129.68 15.58,5.93 31.14,11.86 46.68,17.74 143.64,54.35 298.31,109.33 456.17,143.35 56.4,12.15 110.88,20.98 162.47,26.44l0 -1.41z"/>
   <path class="fil39" d="M197.57 1013.76c89.43,0 166.32,-14.23 219.04,-41.43 18.78,-9.68 35.47,-21.01 51.6,-31.95 32.29,-21.91 65.68,-44.56 116.95,-54.55 67.54,-13.16 164.41,-3.97 287.93,27.33 33.55,8.5 67.5,18.03 100.32,27.24 64.38,18.07 130.95,36.76 197.36,48.49 95.89,16.94 193.99,18.1 276.22,3.26 82.33,-14.85 145.32,-45.12 177.36,-85.23 18.96,-23.73 28.82,-51.2 38.35,-77.77 14.14,-39.42 28.77,-80.19 73.62,-108.2 57.42,-35.87 192.33,-59.4 398.75,-17.91 136.7,27.47 269.74,74.93 398.39,120.83 15.61,5.57 31.2,11.13 46.78,16.65 144.08,51.06 299.16,102.54 456.91,133.25 59.41,11.56 116.61,19.52 170.46,23.84l0 -1.4c-53.74,-4.32 -110.82,-12.26 -170.11,-23.8 -157.63,-30.69 -312.63,-82.14 -456.65,-133.18 -15.58,-5.52 -31.17,-11.08 -46.78,-16.65 -128.72,-45.92 -261.82,-93.4 -398.64,-120.9 -135.69,-27.28 -312.03,-36.83 -400.04,18.13 -45.29,28.28 -60,69.28 -74.22,108.92 -9.49,26.47 -19.31,53.84 -38.13,77.39 -31.81,39.81 -94.45,69.88 -176.37,84.66 -82.02,14.8 -179.89,13.64 -275.57,-3.27 -66.32,-11.72 -132.85,-30.39 -197.19,-48.44 -32.84,-9.22 -66.8,-18.75 -100.37,-27.26 -123.79,-31.37 -220.93,-40.57 -288.73,-27.35 -51.62,10.06 -85.15,32.81 -117.59,54.82 -16.1,10.92 -32.74,22.21 -51.44,31.86 -72.32,37.3 -190.4,50.09 -323.98,35.09 -30.84,-3.46 -61.58,-8.31 -91.82,-14.41l0 1.44c30.17,6.08 60.84,10.91 91.61,14.37 36.69,4.12 72.22,6.14 105.96,6.14z"/>
   <path class="fil40" d="M189.48 1030.8c95.88,0 178.15,-15.63 233.06,-45.16 18.44,-9.92 34.78,-21.42 50.56,-32.53 31.6,-22.25 64.27,-45.25 115.04,-56.08 66.87,-14.27 163.44,-6.98 287.05,21.64 33.57,7.78 67.56,16.56 100.43,25.05 64.47,16.66 131.13,33.88 197.47,44.23 95.78,14.95 193.38,14.27 274.82,-1.92 81.54,-16.21 143.47,-47.29 174.4,-87.51 18.3,-23.8 27.45,-51.13 36.3,-77.56 13.13,-39.21 26.71,-79.76 70.66,-108.27 56.27,-36.5 189.89,-62.27 396.2,-25.11 136.62,24.6 270.06,69.01 399.11,111.95 15.67,5.22 31.32,10.42 46.96,15.59 144.52,47.76 299.99,95.73 457.64,123.14 62.44,10.86 122.37,17.81 178.44,20.86l0 -1.4c-55.97,-3.05 -115.79,-9.99 -178.13,-20.83 -157.54,-27.39 -312.93,-75.34 -457.39,-123.08 -15.64,-5.17 -31.29,-10.38 -46.96,-15.59 -129.11,-42.97 -262.62,-87.4 -399.36,-112.02 -135.61,-24.42 -311.24,-30.58 -397.48,25.37 -44.38,28.79 -58.04,69.56 -71.24,109 -8.81,26.33 -17.93,53.55 -36.09,77.17 -30.7,39.93 -92.28,70.8 -173.42,86.92 -81.24,16.15 -178.61,16.83 -274.18,1.9 -66.25,-10.34 -132.87,-27.55 -197.29,-44.2 -32.88,-8.49 -66.89,-17.28 -100.48,-25.06 -123.87,-28.69 -220.71,-35.97 -287.84,-21.65 -51.11,10.9 -83.93,34.01 -115.66,56.35 -15.75,11.09 -32.04,22.56 -50.4,32.43 -71.05,38.2 -188.2,53.04 -321.43,40.71 -33.68,-3.12 -67.28,-7.88 -100.26,-14.12l0 1.43c32.93,6.22 66.48,10.97 100.1,14.08 30.77,2.85 60.69,4.25 89.38,4.25z"/>
   <path class="fil41" d="M180.45 1048.17c102.8,0 190.87,-17.19 248,-49.21 18.12,-10.15 34.09,-21.82 49.54,-33.11 30.91,-22.58 62.87,-45.94 113.12,-57.61 66.2,-15.36 162.48,-9.99 286.17,15.96 33.6,7.05 67.64,15.09 100.57,22.86 64.55,15.24 131.3,31 197.55,39.97 95.67,12.96 192.78,10.44 273.43,-7.1 80.75,-17.56 141.63,-49.45 171.43,-89.79 17.63,-23.87 26.08,-51.06 34.25,-77.34 12.12,-39 24.66,-79.34 67.7,-108.34 55.11,-37.14 187.46,-65.14 393.65,-32.33 136.52,21.72 270.37,63.08 399.81,103.07 15.74,4.87 31.46,9.72 47.17,14.54 144.96,44.46 300.82,88.94 458.37,113.04 65.52,10.02 128.17,15.85 186.43,17.5l0 -1.4c-58.16,-1.66 -120.72,-7.47 -186.15,-17.48 -157.44,-24.09 -313.23,-68.53 -458.12,-112.98 -15.71,-4.82 -31.43,-9.67 -47.16,-14.54 -129.5,-40.01 -263.41,-81.39 -400.05,-103.13 -135.54,-21.57 -310.46,-24.33 -394.92,32.6 -43.47,29.29 -56.07,69.86 -68.26,109.08 -8.14,26.19 -16.55,53.27 -34.05,76.95 -29.58,40.04 -90.12,71.72 -170.47,89.19 -80.44,17.5 -177.33,20.01 -272.8,7.08 -66.17,-8.96 -132.87,-24.71 -197.38,-39.94 -32.94,-7.78 -66.99,-15.81 -100.61,-22.87 -123.95,-26 -220.5,-31.37 -286.96,-15.95 -50.6,11.74 -82.69,35.2 -113.73,57.88 -15.41,11.26 -31.34,22.9 -49.38,33.01 -69.78,39.1 -186,55.99 -318.87,46.32 -36.51,-2.66 -72.98,-7.23 -108.71,-13.54l0 1.43c35.69,6.29 72.11,10.85 108.58,13.51 24.58,1.79 48.61,2.67 71.86,2.67z"/>
   <path class="fil42" d="M170.43 1065.87c110.19,0 204.54,-18.91 263.94,-53.6 17.79,-10.39 33.4,-22.23 48.5,-33.69 30.21,-22.93 61.46,-46.63 111.2,-59.13 65.53,-16.46 161.51,-13.01 285.28,10.27 33.63,6.32 67.72,13.61 100.69,20.66 64.63,13.82 131.47,28.12 197.64,35.72 95.56,10.97 192.18,6.61 272.04,-12.29 79.96,-18.92 139.78,-51.62 168.46,-92.08 16.97,-23.94 24.71,-50.98 32.2,-77.13 11.11,-38.8 22.6,-78.91 64.73,-108.41 53.95,-37.78 185.03,-68.01 391.11,-39.54 136.46,18.85 270.74,57.17 400.6,94.22 15.78,4.5 31.53,8.99 47.27,13.45 145.41,41.17 301.67,82.14 459.11,102.93 68.64,9.07 134.03,13.63 194.41,13.76l0 -1.39c-60.3,-0.13 -125.61,-4.69 -194.17,-13.75 -157.33,-20.78 -313.52,-61.73 -458.86,-102.88 -15.74,-4.46 -31.49,-8.95 -47.26,-13.45 -129.92,-37.07 -264.26,-75.41 -400.85,-94.27 -135.46,-18.71 -309.67,-18.07 -392.36,39.83 -42.56,29.81 -54.11,70.15 -65.29,109.17 -7.46,26.05 -15.17,52.98 -32,76.73 -28.47,40.15 -87.96,72.64 -167.52,91.46 -79.66,18.85 -176.05,23.2 -271.41,12.25 -66.09,-7.59 -132.88,-21.87 -197.47,-35.69 -32.98,-7.05 -67.08,-14.35 -100.73,-20.67 -124.04,-23.33 -220.28,-26.78 -286.07,-10.25 -50.08,12.58 -81.46,36.4 -111.81,59.42 -15.06,11.43 -30.64,23.24 -48.34,33.58 -68.51,40 -183.8,58.93 -316.31,51.93 -39.34,-2.08 -78.69,-6.37 -117.16,-12.66l0 1.42c38.44,6.28 77.76,10.56 117.07,12.64 18.13,0.96 35.95,1.43 53.36,1.43z"/>
   <path class="fil43" d="M159.4 1083.94c118.08,0 219.19,-20.82 280.89,-58.36 17.46,-10.62 32.71,-22.64 47.47,-34.27 29.52,-23.26 60.05,-47.32 109.28,-60.65 64.85,-17.57 160.53,-16.03 284.4,4.58 33.65,5.6 67.79,12.14 100.81,18.47 64.71,12.41 131.64,25.24 197.74,31.46 95.45,8.98 191.58,2.78 270.65,-17.47 79.17,-20.27 137.94,-53.78 165.5,-94.36 16.31,-24.01 23.34,-50.9 30.15,-76.91 10.1,-38.58 20.54,-78.48 61.77,-108.48 52.79,-38.42 182.59,-70.88 388.57,-46.75 136.37,15.98 271.07,51.24 401.32,85.35 15.83,4.15 31.64,8.29 47.44,12.39 145.84,37.88 302.49,75.34 459.84,92.83 71.81,7.98 139.94,11.15 202.39,9.63l0 -1.39c-62.38,1.52 -130.45,-1.65 -202.19,-9.62 -157.23,-17.48 -313.81,-54.93 -459.59,-92.78 -15.8,-4.11 -31.61,-8.24 -47.44,-12.39 -130.32,-34.12 -265.07,-69.41 -401.57,-85.4 -135.39,-15.85 -308.89,-11.82 -389.8,47.06 -41.65,30.31 -52.15,70.44 -62.31,109.25 -6.78,25.9 -13.79,52.69 -29.96,76.51 -27.35,40.27 -85.79,73.56 -164.57,93.73 -78.87,20.2 -174.77,26.38 -270.02,17.42 -66.02,-6.21 -132.89,-19.03 -197.57,-31.43 -33.03,-6.33 -67.18,-12.88 -100.85,-18.48 -124.13,-20.65 -220.08,-22.18 -285.18,-4.54 -49.57,13.43 -80.23,37.59 -109.88,60.95 -14.72,11.6 -29.94,23.59 -47.31,34.16 -67.24,40.9 -181.59,61.88 -313.76,57.55 -42.17,-1.38 -84.4,-5.29 -125.61,-11.49l0 1.42c41.19,6.18 83.41,10.09 125.55,11.47 11.42,0.37 22.72,0.56 33.85,0.56z"/>
   <path class="fil44" d="M147.35 1102.4c126.46,0 234.84,-22.95 298.85,-63.51 17.13,-10.85 32.02,-23.05 46.43,-34.84 28.83,-23.6 58.64,-48.01 107.37,-62.18 64.17,-18.66 159.56,-19.04 283.53,-1.11 33.67,4.87 67.85,10.67 100.91,16.27 64.81,10.99 131.83,22.36 197.86,27.21 95.36,7 190.98,-1.05 269.25,-22.65 78.38,-21.62 136.1,-55.95 162.53,-96.64 15.64,-24.08 21.98,-50.83 28.1,-76.7 9.08,-38.37 18.48,-78.05 58.81,-108.55 51.64,-39.06 180.16,-73.75 386.02,-53.96 136.32,13.11 271.45,45.33 402.12,76.5 15.87,3.78 31.71,7.56 47.54,11.3 146.31,34.58 303.37,68.54 460.58,82.73 75.02,6.76 145.9,8.41 210.38,5.11l0 -1.39c-64.41,3.3 -135.24,1.65 -210.21,-5.11 -157.1,-14.18 -314.08,-48.12 -460.33,-82.69 -15.83,-3.74 -31.67,-7.52 -47.54,-11.3 -130.74,-31.18 -265.93,-63.43 -402.37,-76.54 -135.32,-13 -308.1,-5.57 -387.25,54.3 -40.74,30.81 -50.19,70.73 -59.33,109.33 -6.1,25.76 -12.4,52.4 -27.92,76.29 -26.23,40.38 -83.63,74.48 -161.62,96 -78.08,21.55 -173.49,29.57 -268.64,22.59 -65.95,-4.84 -132.92,-16.2 -197.69,-27.19 -33.07,-5.61 -67.26,-11.41 -100.95,-16.28 -124.22,-17.96 -219.87,-17.57 -284.3,1.17 -49.06,14.27 -79,38.78 -107.96,62.49 -14.37,11.76 -29.23,23.93 -46.28,34.73 -65.97,41.8 -179.39,64.79 -311.2,63.16 -44.99,-0.57 -90.12,-4 -134.06,-10.02l0 1.42c43.94,6.01 89.06,9.44 134.04,10.01 4.45,0.06 8.91,0.08 13.32,0.08z"/>
   <path class="fil45" d="M134.32 1121.29c2.74,0 5.47,-0.01 8.2,-0.03 131.79,-1.01 244.63,-26.18 309.6,-69.06 16.8,-11.09 31.34,-23.46 45.4,-35.42 28.14,-23.94 57.23,-48.69 105.44,-63.7 63.5,-19.76 158.6,-22.05 282.65,-6.8 33.68,4.14 67.89,9.19 100.98,14.08 64.9,9.58 132.02,19.48 197.99,22.95 95.25,5 190.37,-4.88 267.86,-27.83 77.59,-22.98 134.26,-58.12 159.57,-98.93 14.98,-24.15 20.6,-50.75 26.05,-76.48 8.07,-38.17 16.42,-77.63 55.84,-108.63 50.48,-39.7 177.74,-76.61 383.48,-61.17 136.22,10.23 271.75,39.4 402.81,67.62 15.94,3.43 31.85,6.86 47.75,10.25 146.75,31.29 304.2,61.74 461.31,72.62 78.28,5.42 151.93,5.41 218.36,0.21l0 -1.41c-66.37,5.21 -139.98,5.22 -218.24,-0.19 -157,-10.87 -314.38,-41.31 -461.06,-72.59 -15.9,-3.39 -31.82,-6.82 -47.75,-10.25 -131.12,-28.23 -266.71,-57.42 -403.06,-67.66 -135.24,-10.15 -307.32,0.68 -384.69,61.53 -39.83,31.32 -48.22,71.02 -56.35,109.41 -5.42,25.62 -11.02,52.12 -25.88,76.07 -25.12,40.5 -81.47,75.4 -158.67,98.27 -77.3,22.9 -172.22,32.76 -267.25,27.76 -65.89,-3.46 -132.96,-13.36 -197.83,-22.93 -33.1,-4.88 -67.33,-9.94 -101.03,-14.08 -124.3,-15.28 -219.66,-12.97 -283.41,6.87 -48.54,15.11 -77.76,39.97 -106.02,64.02 -14.03,11.93 -28.53,24.27 -45.25,35.31 -64.7,42.7 -177.19,67.76 -308.65,68.77 -47.79,0.37 -95.83,-2.48 -142.51,-8.25l0 1.41c44.01,5.43 89.24,8.27 134.32,8.27z"/>
   <path class="fil46" d="M120.6 1140.63c10.14,0 20.28,-0.14 30.4,-0.43 131.43,-3.68 243.35,-30.9 307.03,-74.68 16.47,-11.32 30.65,-23.87 44.37,-36.01 27.45,-24.28 55.82,-49.39 103.53,-65.23 62.83,-20.86 157.64,-25.06 281.76,-12.49 33.71,3.42 67.97,7.72 101.11,11.88 64.99,8.16 132.19,16.61 198.08,18.7 95.14,3.03 189.77,-8.7 266.47,-33.01 76.8,-24.34 132.41,-60.28 156.6,-101.21 14.31,-24.22 19.24,-50.68 24,-76.27 7.06,-37.95 14.36,-77.2 52.88,-108.7 49.32,-40.34 175.29,-79.51 380.93,-68.38 136.18,7.35 272.15,33.49 403.65,58.77 15.96,3.06 31.9,6.13 47.82,9.16 147.19,28 305.05,54.95 462.05,62.52 81.61,3.93 158.03,2.11 226.35,-5.12l0 -1.4c-68.27,7.24 -144.65,9.07 -226.26,5.13 -156.89,-7.57 -314.67,-34.51 -461.8,-62.49 -15.92,-3.03 -31.85,-6.09 -47.81,-9.16 -131.56,-25.29 -267.59,-51.44 -403.89,-58.8 -135.17,-7.3 -306.53,6.93 -382.13,68.76 -38.91,31.83 -46.26,71.31 -53.36,109.49 -4.74,25.48 -9.64,51.83 -23.84,75.86 -24,40.61 -79.31,76.32 -155.72,100.54 -76.51,24.25 -170.94,35.94 -265.86,32.93 -65.8,-2.09 -132.96,-10.53 -197.91,-18.68 -33.15,-4.16 -67.43,-8.47 -101.16,-11.89 -124.39,-12.6 -219.44,-8.37 -282.52,12.57 -48.03,15.95 -76.53,41.17 -104.1,65.55 -13.68,12.1 -27.83,24.62 -44.22,35.89 -63.42,43.6 -174.99,70.71 -306.09,74.38 -50.6,1.43 -101.56,-0.73 -150.96,-6.17l0 1.4c39.53,4.34 80.07,6.59 120.6,6.59z"/>
   <path class="fil47" d="M106.27 1160.42c17.75,0 35.51,-0.43 53.22,-1.28 131.08,-6.36 242.05,-35.63 304.46,-80.31 16.14,-11.56 29.97,-24.28 43.34,-36.58 26.75,-24.62 54.41,-50.08 101.61,-66.75 62.17,-21.96 156.67,-28.08 280.89,-18.18 33.74,2.69 68.05,6.25 101.24,9.69 65.07,6.75 132.36,13.73 198.17,14.44 95.02,1.02 189.17,-12.53 265.08,-38.2 76.01,-25.7 130.57,-62.45 153.63,-103.5 13.65,-24.29 17.86,-50.6 21.95,-76.06 6.05,-37.74 12.3,-76.77 49.91,-108.77 48.17,-40.98 172.85,-82.38 378.39,-75.6 136.08,4.48 272.45,27.57 404.34,49.89 16.03,2.71 32.04,5.43 48.03,8.1 147.63,24.7 305.88,48.15 462.78,52.42 84.99,2.32 164.19,-1.45 234.33,-10.84l0 -1.42c-70.1,9.4 -149.28,13.17 -234.28,10.86 -156.79,-4.26 -314.96,-27.7 -462.53,-52.39 -15.99,-2.68 -31.99,-5.39 -48.02,-8.1 -131.94,-22.34 -268.38,-45.44 -404.58,-49.92 -135.09,-4.43 -305.74,13.19 -379.57,76 -38,32.33 -44.3,71.6 -50.38,109.58 -4.06,25.34 -8.26,51.54 -21.8,75.63 -22.89,40.73 -77.14,77.24 -152.77,102.81 -75.72,25.6 -169.59,39.1 -264.48,38.1 -65.73,-0.71 -132.97,-7.69 -198,-14.43 -33.2,-3.44 -67.52,-7 -101.28,-9.69 -124.47,-9.92 -219.23,-3.78 -281.63,18.28 -47.52,16.79 -75.3,42.36 -102.17,67.09 -13.34,12.27 -27.13,24.96 -43.19,36.46 -62.15,44.5 -172.79,73.66 -303.54,80 -53.38,2.59 -107.28,1.22 -159.4,-3.8l0 1.4c34.86,3.35 70.51,5.08 106.27,5.08z"/>
   <path class="fil48" d="M91.42 1180.71c25.5,0 51.1,-0.87 76.56,-2.63 130.73,-9.03 240.76,-40.35 301.9,-85.94 15.81,-11.79 29.28,-24.69 42.31,-37.17 26.06,-24.96 53.01,-50.76 99.69,-68.27 61.49,-23.07 155.69,-31.09 280,-23.87 33.76,1.96 68.13,4.78 101.35,7.49 65.16,5.34 132.52,10.81 198.27,10.18 94.92,-0.96 188.56,-16.36 263.68,-43.38 75.22,-27.05 128.72,-64.62 150.66,-105.78 12.99,-24.36 16.5,-50.53 19.9,-75.84 5.04,-37.53 10.25,-76.34 46.95,-108.84 47,-41.62 170.46,-85.28 375.84,-82.81 136.03,1.6 272.83,21.65 405.14,41.04 16.06,2.36 32.1,4.71 48.12,7.02 148.08,21.4 306.73,41.34 463.52,42.31 3.76,0.02 7.53,0.04 11.26,0.04 84.15,0 162.24,-5.85 231.05,-17.03l0 -1.42c-68.78,11.2 -146.88,17.05 -231.05,17.05 -3.74,0 -7.49,-0.01 -11.25,-0.04 -156.68,-0.96 -315.25,-20.9 -463.27,-42.29 -16.02,-2.31 -32.06,-4.66 -48.12,-7.02 -132.36,-19.4 -269.23,-39.45 -405.38,-41.06 -135.03,-1.6 -304.96,19.44 -377.01,83.22 -37.09,32.84 -42.33,71.89 -47.4,109.66 -3.38,25.2 -6.88,51.26 -19.76,75.41 -21.77,40.84 -74.98,78.16 -149.82,105.07 -74.93,26.95 -168.37,42.32 -263.09,43.28 -65.66,0.64 -132.99,-4.85 -198.1,-10.18 -33.24,-2.72 -67.61,-5.53 -101.4,-7.5 -124.56,-7.24 -219.01,0.83 -280.74,23.98 -47,17.63 -74.07,43.55 -100.24,68.61 -12.99,12.45 -26.43,25.31 -42.16,37.04 -60.88,45.4 -170.59,76.61 -300.98,85.61 -56.16,3.88 -113.01,3.4 -167.85,-1.13l0 1.41c30.02,2.48 60.64,3.74 91.42,3.74z"/>
   <path class="fil49" d="M76.17 1201.48c33.35,0 66.96,-1.47 100.3,-4.46 130.37,-11.71 239.47,-45.08 299.33,-91.57 15.48,-12.02 28.59,-25.09 41.27,-37.74 25.37,-25.3 51.6,-51.46 97.77,-69.8 60.82,-24.17 154.72,-34.11 279.13,-29.56 33.79,1.24 68.2,3.3 101.48,5.3 65.24,3.91 132.69,7.96 198.36,5.93 94.81,-2.95 187.96,-20.2 262.29,-48.56 74.42,-28.41 126.88,-66.78 147.7,-108.06 12.32,-24.43 15.13,-50.46 17.85,-75.63 4.03,-37.32 8.19,-75.91 43.99,-108.91 45.85,-42.26 168,-88.1 373.3,-90.02 135.97,-1.22 273.16,15.73 405.87,32.17 16.12,2 32.22,3.99 48.29,5.95 148.53,18.11 307.56,34.53 464.25,32.2 91.97,-1.38 176.77,-9.48 250.3,-23.57l0 -1.43c-73.49,14.11 -158.31,22.22 -250.33,23.6 -156.54,2.34 -315.53,-14.09 -464,-32.19 -16.07,-1.96 -32.17,-3.95 -48.29,-5.95 -132.76,-16.45 -270.11,-33.46 -406.11,-32.18 -134.94,1.26 -304.17,25.68 -374.45,90.45 -36.18,33.35 -40.37,72.18 -44.42,109.74 -2.7,25.06 -5.5,50.97 -17.72,75.2 -20.66,40.96 -72.82,79.08 -146.87,107.35 -74.15,28.3 -167.09,45.5 -261.71,48.45 -65.57,2.04 -132.99,-2.01 -198.19,-5.92 -33.29,-2 -67.71,-4.07 -101.52,-5.3 -124.66,-4.56 -218.8,5.43 -279.86,29.69 -46.49,18.47 -72.84,44.74 -98.32,70.15 -12.65,12.61 -25.72,25.65 -41.13,37.61 -59.61,46.3 -168.38,79.55 -298.42,91.22 -58.92,5.29 -118.75,5.82 -176.3,1.87l0 1.4c25.05,1.72 50.52,2.59 76.17,2.59z"/>
   <path class="fil50" d="M60.65 1222.77c41.22,0 83.01,-2.25 124.3,-6.82 130.01,-14.38 238.17,-49.8 296.76,-97.2 15.15,-12.26 27.9,-25.51 40.24,-38.32 24.68,-25.63 50.19,-52.14 95.86,-71.32 60.15,-25.27 153.73,-37.11 278.24,-35.25 33.81,0.51 68.27,1.83 101.6,3.1 65.33,2.5 132.88,5.09 198.45,1.67 94.7,-4.94 187.36,-24.02 260.9,-53.74 73.63,-29.76 125.03,-68.95 144.73,-110.35 11.66,-24.5 13.76,-50.38 15.79,-75.41 3.01,-37.11 6.13,-75.49 41.03,-108.99 44.7,-42.9 165.56,-90.97 370.75,-97.23 135.86,-4.14 273.49,9.81 406.59,23.3 16.18,1.64 32.33,3.28 48.47,4.88 149,14.82 308.46,27.74 464.99,22.1 95.57,-3.45 183.2,-13.95 258.28,-30.58l0 -1.44c-75.05,16.66 -162.72,27.17 -258.35,30.62 -156.42,5.65 -315.8,-7.28 -464.74,-22.09 -16.13,-1.61 -32.29,-3.25 -48.46,-4.89 -133.16,-13.5 -270.85,-27.46 -406.83,-23.31 -134.87,4.11 -303.38,31.93 -371.89,97.69 -35.27,33.85 -38.41,72.48 -41.44,109.83 -2.02,24.92 -4.12,50.69 -15.68,74.98 -19.54,41.07 -70.66,80 -143.92,109.61 -73.36,29.65 -165.81,48.69 -260.32,53.62 -65.5,3.41 -133.01,0.83 -198.29,-1.67 -33.34,-1.28 -67.81,-2.59 -101.64,-3.1 -124.74,-1.87 -218.59,10.02 -278.97,35.39 -45.97,19.31 -71.6,45.94 -96.39,71.68 -12.3,12.78 -25.02,26 -40.1,38.19 -90.85,73.49 -292.57,111.99 -480.62,101.87l0 1.52c19.98,1.09 40.24,1.65 60.65,1.65z"/>
   <path class="fil51" d="M45.02 1244.57c49.04,0 99.13,-3.2 148.41,-9.68 129.65,-17.05 236.88,-54.53 294.19,-102.83 14.82,-12.49 27.22,-25.92 39.2,-38.9 23.98,-25.97 48.78,-52.83 93.94,-72.85 59.48,-26.36 152.79,-40.14 277.36,-40.94 33.83,-0.22 68.33,0.36 101.7,0.91 65.41,1.08 133.06,2.21 198.57,-2.59 94.6,-6.92 186.76,-27.85 259.5,-58.92 72.84,-31.12 123.19,-71.12 141.76,-112.63 10.99,-24.57 12.39,-50.31 13.74,-75.2 2,-36.9 4.07,-75.06 38.06,-109.05 43.54,-43.54 163.13,-93.84 368.21,-104.44 135.81,-7.03 273.85,3.89 407.36,14.44 16.22,1.28 32.42,2.56 48.6,3.81 149.43,11.52 309.28,20.96 465.72,12 99.25,-5.68 189.73,-18.74 266.26,-38.04l0 -1.45c-76.51,19.33 -167.03,32.41 -266.37,38.1 -156.33,8.95 -316.1,-0.48 -465.47,-12 -16.18,-1.25 -32.38,-2.53 -48.6,-3.81 -133.57,-10.55 -271.69,-21.46 -407.6,-14.44 -134.79,6.97 -302.6,38.19 -369.33,104.92 -34.36,34.36 -36.44,72.76 -38.46,109.9 -1.35,24.78 -2.74,50.4 -13.64,74.76 -18.43,41.19 -68.49,80.92 -140.97,111.88 -72.58,31 -164.53,51.88 -258.94,58.79 -65.43,4.79 -133.02,3.67 -198.41,2.58 -33.37,-0.56 -67.88,-1.14 -101.74,-0.91 -124.82,0.8 -218.38,14.63 -278.08,41.09 -45.46,20.15 -70.37,47.13 -94.46,73.22 -11.96,12.95 -24.32,26.34 -39.07,38.77 -90.21,76.03 -295.69,118.7 -486.51,111.1l0 1.51c14.87,0.61 29.9,0.91 45.02,0.91z"/>
   <path class="fil52" d="M29.44 1266.9c56.74,0 115.23,-4.33 172.48,-13.07 129.3,-19.73 235.59,-59.26 291.62,-108.46 14.49,-12.73 26.53,-26.32 38.17,-39.48 23.29,-26.31 47.38,-53.52 92.02,-74.37 58.81,-27.47 151.83,-43.15 276.49,-46.63 33.86,-0.94 68.4,-1.12 101.81,-1.28 65.5,-0.33 133.24,-0.67 198.67,-6.84 94.49,-8.91 186.15,-31.68 258.11,-64.11 72.05,-32.47 121.34,-73.28 138.79,-114.91 10.33,-24.64 11.02,-50.23 11.69,-74.99 0.99,-36.69 2.02,-74.63 35.11,-109.12 42.38,-44.18 160.7,-96.71 365.67,-111.65 135.72,-9.9 274.2,-2.03 408.11,5.58 16.27,0.92 32.51,1.84 48.74,2.74 149.88,8.23 310.13,14.15 466.45,1.89 103.03,-8.08 196.37,-23.86 274.25,-45.96l0 -1.47c-77.85,22.14 -171.25,37.95 -274.39,46.04 -156.22,12.25 -316.39,6.33 -466.21,-1.9 -16.22,-0.89 -32.47,-1.81 -48.74,-2.73 -133.97,-7.61 -272.51,-15.48 -408.35,-5.57 -134.72,9.82 -301.81,44.44 -366.76,112.15 -33.44,34.86 -34.48,73.05 -35.48,109.98 -0.67,24.64 -1.36,50.11 -11.6,74.54 -17.31,41.31 -66.33,81.84 -138.02,114.15 -71.79,32.35 -163.25,55.06 -257.55,63.96 -65.36,6.17 -133.05,6.5 -198.51,6.83 -33.42,0.17 -67.98,0.34 -101.85,1.28 -124.9,3.48 -218.16,19.23 -277.19,46.79 -44.94,20.99 -69.14,48.32 -92.53,74.75 -11.61,13.12 -23.62,26.68 -38.04,39.35 -89.51,78.6 -298.8,125.64 -492.41,120.63l0 1.49c9.75,0.26 19.57,0.39 29.44,0.39z"/>
   <path class="fil53" d="M14.08 1289.75c64.25,0 131.18,-5.66 196.33,-16.98 128.94,-22.4 234.3,-63.98 289.05,-114.08 14.16,-12.96 25.84,-26.73 37.14,-40.06 22.6,-26.65 45.97,-54.21 90.1,-75.9 58.14,-28.57 150.86,-46.17 275.61,-52.32 33.87,-1.67 68.46,-2.59 101.9,-3.48 65.6,-1.74 133.43,-3.55 198.8,-11.1 94.38,-10.9 185.55,-35.51 256.72,-69.29 71.26,-33.83 119.5,-75.45 135.83,-117.2 9.66,-24.71 9.65,-50.16 9.64,-74.77 -0.02,-36.48 -0.04,-74.21 32.14,-109.19 41.22,-44.82 158.26,-99.58 363.13,-118.86 135.65,-12.77 274.55,-7.95 408.88,-3.29 16.31,0.57 32.6,1.13 48.87,1.66 150.32,4.94 310.96,7.36 467.19,-8.21 106.92,-10.65 203.14,-29.34 282.23,-54.36l0 -1.48c-79.07,25.07 -175.37,43.79 -282.41,54.45 -156.12,15.55 -316.69,13.13 -466.95,8.2 -16.27,-0.53 -32.56,-1.1 -48.87,-1.66 -134.39,-4.66 -273.35,-9.48 -409.12,3.29 -134.64,12.68 -301.02,50.69 -364.2,119.38 -32.53,35.37 -32.51,73.35 -32.49,110.07 0.01,24.5 0.03,49.83 -9.55,74.32 -16.2,41.42 -64.17,82.76 -135.08,116.42 -71,33.7 -161.98,58.25 -256.16,69.13 -65.29,7.54 -133.08,9.34 -198.64,11.09 -33.46,0.89 -68.05,1.81 -101.94,3.48 -124.99,6.16 -217.95,23.83 -276.3,52.5 -44.43,21.83 -67.91,49.51 -90.61,76.28 -11.27,13.29 -22.92,27.03 -37.01,39.92 -88.75,81.22 -301.88,132.81 -498.3,130.45l0 1.49c4.68,0.06 9.37,0.09 14.08,0.09z"/>
   <path class="fil54" d="M-0 1313.11c71.22,-0.06 146.27,-7.24 218.89,-21.4 128.59,-25.07 233.01,-68.71 286.48,-119.72 13.83,-13.19 25.16,-27.14 36.1,-40.63 21.91,-26.99 44.56,-54.9 88.19,-77.42 57.47,-29.67 149.9,-49.19 274.72,-58.01 33.9,-2.4 68.54,-4.06 102.03,-5.67 65.68,-3.16 133.6,-6.42 198.88,-15.35 94.27,-12.89 184.95,-39.34 255.33,-74.47 70.47,-35.18 117.65,-77.62 132.86,-119.48 9,-24.78 8.28,-50.08 7.59,-74.56 -1.03,-36.27 -2.1,-73.78 29.18,-109.26 40.07,-45.46 155.83,-102.45 360.58,-126.08 135.57,-15.64 274.88,-13.87 409.61,-12.16 16.37,0.21 32.72,0.42 49.05,0.6 150.76,1.63 311.8,0.56 467.92,-18.31 110.92,-13.41 210.04,-35.17 290.22,-63.25l0 -1.5c-80.15,28.14 -179.36,49.94 -290.44,63.37 -156.01,18.86 -316.98,19.94 -467.68,18.3 -16.32,-0.18 -32.67,-0.38 -49.04,-0.6 -134.77,-1.71 -274.15,-3.49 -409.84,12.17 -134.56,15.53 -300.24,56.94 -361.64,126.61 -31.62,35.88 -30.55,73.64 -29.51,110.15 0.69,24.36 1.41,49.54 -7.51,74.1 -15.08,41.53 -62.01,83.68 -132.13,118.69 -70.21,35.05 -160.69,61.44 -254.78,74.31 -65.21,8.92 -133.09,12.18 -198.72,15.33 -33.51,1.61 -68.15,3.28 -102.07,5.68 -125.07,8.84 -217.73,28.42 -275.41,58.2 -43.92,22.67 -66.67,50.71 -88.68,77.81 -10.92,13.46 -22.21,27.37 -35.98,40.5 -87.93,83.87 -304.95,140.22 -504.19,140.58l0 1.48z"/>
   <path class="fil55" d="M-0 1336.87c73.93,-1.08 152.08,-9.93 227.38,-26.22 128.23,-27.75 231.71,-73.43 283.92,-125.34 13.5,-13.42 24.46,-27.55 35.07,-41.21 21.22,-27.33 43.15,-55.59 86.27,-78.95 56.79,-30.77 148.93,-52.2 273.85,-63.7 33.92,-3.13 68.6,-5.54 102.14,-7.87 65.76,-4.57 133.77,-9.3 198.98,-19.61 94.16,-14.87 184.34,-43.17 253.93,-79.65 69.68,-36.53 115.81,-79.78 129.89,-121.76 8.34,-24.85 6.91,-50.01 5.54,-74.34 -2.04,-36.06 -4.15,-73.36 26.22,-109.34 38.91,-46.1 153.4,-105.32 358.04,-133.29 135.51,-18.52 275.26,-19.79 410.41,-21.02 16.4,-0.15 32.79,-0.3 49.14,-0.48 151.2,-1.65 312.63,-6.24 468.65,-28.42 115.03,-16.35 217.09,-41.38 298.2,-72.65l0 -1.53c-81.08,31.33 -183.24,56.42 -298.46,72.8 -155.92,22.16 -317.27,26.74 -468.42,28.4 -16.36,0.18 -32.74,0.33 -49.14,0.48 -135.21,1.23 -275.02,2.5 -410.64,21.04 -134.49,18.38 -299.45,63.19 -359.08,133.84 -30.71,36.38 -28.58,73.93 -26.53,110.23 1.37,24.22 2.79,49.26 -5.47,73.88 -13.97,41.65 -59.84,84.6 -129.18,120.96 -69.43,36.4 -159.41,64.63 -253.39,79.47 -65.14,10.29 -133.1,15.02 -198.83,19.59 -33.55,2.33 -68.24,4.75 -102.18,7.87 -125.16,11.52 -217.53,33.02 -274.52,63.91 -43.41,23.52 -65.44,51.9 -86.75,79.35 -10.58,13.63 -21.51,27.71 -34.95,41.07 -87.04,86.56 -308.01,147.85 -510.09,151.02l0 1.47z"/>
   <path class="fil56" d="M-0 1360.92c76.65,-2.17 157.9,-12.79 235.86,-31.34 127.87,-30.42 230.42,-78.16 281.35,-130.97 13.17,-13.66 23.78,-27.96 34.04,-41.79 20.52,-27.67 41.74,-56.28 84.35,-80.47 56.12,-31.87 147.96,-55.21 272.97,-69.39 33.96,-3.85 68.69,-7.01 102.27,-10.06 65.85,-5.99 133.94,-12.18 199.07,-23.86 94.05,-16.87 183.74,-46.99 252.54,-84.83 68.89,-37.89 113.96,-81.95 126.92,-124.05 7.67,-24.92 5.54,-49.93 3.48,-74.12 -3.05,-35.85 -6.21,-72.93 23.26,-109.41 37.75,-46.74 150.97,-108.2 355.49,-140.5 135.43,-21.39 275.59,-25.71 411.14,-29.88 16.46,-0.51 32.9,-1.01 49.32,-1.55 151.66,-4.95 313.49,-13.04 469.38,-38.52 119.31,-19.5 224.31,-48 306.19,-82.59l0 -1.55c-81.84,34.67 -186.96,63.23 -306.48,82.77 -155.79,25.47 -317.55,33.56 -469.15,38.5 -16.41,0.53 -32.85,1.04 -49.32,1.55 -135.6,4.18 -275.82,8.5 -411.36,29.9 -134.42,21.23 -298.66,69.44 -356.52,141.07 -29.8,36.89 -26.62,74.22 -23.55,110.32 2.05,24.07 4.17,48.97 -3.43,73.66 -12.85,41.76 -57.68,85.53 -126.23,123.23 -68.64,37.75 -158.14,67.82 -252,84.65 -65.06,11.66 -133.11,17.86 -198.91,23.84 -33.6,3.06 -68.34,6.22 -102.31,10.07 -125.25,14.2 -217.31,37.62 -273.64,69.6 -42.89,24.36 -64.21,53.1 -84.82,80.89 -10.23,13.79 -20.81,28.06 -33.92,41.65 -86.1,89.29 -311.02,155.73 -515.98,161.75l0 1.46z"/>
   <path class="fil57" d="M-0 1385.27c79.36,-3.33 163.75,-15.84 244.35,-36.76 127.52,-33.09 229.13,-82.88 278.78,-136.6 12.84,-13.89 23.09,-28.37 33,-42.37 19.83,-28.01 40.34,-56.97 82.43,-82 55.46,-32.97 147,-58.23 272.09,-75.08 33.98,-4.58 68.75,-8.48 102.39,-12.26 65.93,-7.4 134.11,-15.06 199.17,-28.12 93.94,-18.85 183.13,-50.82 251.14,-90.02 68.1,-39.25 112.12,-84.11 123.95,-126.33 7.01,-24.99 4.17,-49.86 1.43,-73.91 -4.06,-35.64 -8.26,-72.5 20.3,-109.48 36.6,-47.38 148.53,-111.06 352.95,-147.71 135.34,-24.27 275.92,-31.62 411.86,-38.74 16.52,-0.87 33.02,-1.73 49.5,-2.63 152.11,-8.24 314.34,-19.84 470.12,-48.62 123.73,-22.87 231.73,-55.04 314.17,-93.09l0 -1.58c-82.39,38.13 -190.53,70.39 -314.5,93.3 -155.68,28.77 -317.84,40.36 -469.89,48.6 -16.47,0.89 -32.97,1.76 -49.49,2.62 -136,7.13 -276.63,14.49 -412.08,38.77 -134.34,24.08 -297.87,75.69 -353.96,148.3 -28.89,37.4 -24.66,74.51 -20.57,110.4 2.73,23.94 5.55,48.68 -1.39,73.44 -11.74,41.88 -55.52,86.45 -123.28,125.5 -67.86,39.11 -156.86,71 -250.62,89.82 -64.98,13.04 -133.12,20.69 -199.02,28.09 -33.64,3.78 -68.43,7.69 -102.43,12.27 -125.33,16.88 -217.09,42.22 -272.75,75.3 -42.38,25.2 -62.98,54.28 -82.9,82.42 -9.89,13.96 -20.11,28.4 -32.89,42.22 -85.09,92.06 -314.03,163.85 -521.88,172.78l0 1.46z"/>
   <path class="fil58" d="M-0 1409.92c82.07,-4.56 169.61,-19.07 252.83,-42.47 127.16,-35.77 227.84,-87.61 276.21,-142.23 12.51,-14.13 22.4,-28.78 31.97,-42.94 19.14,-28.35 38.93,-57.66 80.51,-83.52 54.78,-34.07 146.03,-61.25 271.21,-80.77 34,-5.3 68.81,-9.95 102.49,-14.45 66.03,-8.82 134.3,-17.94 199.29,-32.37 93.84,-20.84 182.53,-54.65 249.75,-95.19 67.31,-40.6 110.27,-86.28 120.99,-128.62 6.34,-25.06 2.8,-49.79 -0.63,-73.7 -5.07,-35.43 -10.32,-72.07 17.34,-109.55 35.44,-48.02 146.1,-113.94 350.41,-154.93 135.27,-27.14 276.27,-37.55 412.62,-47.61 16.57,-1.22 33.11,-2.45 49.63,-3.69 152.55,-11.54 315.18,-26.63 470.85,-58.73 128.32,-26.46 239.36,-62.54 322.16,-104.17l0 -1.61c-82.74,41.73 -193.92,77.91 -322.52,104.42 -155.58,32.07 -318.13,47.16 -470.62,58.69 -16.52,1.25 -33.06,2.47 -49.63,3.69 -136.41,10.07 -277.46,20.49 -412.84,47.65 -134.27,26.94 -297.09,81.94 -351.4,155.53 -27.97,37.9 -22.69,74.8 -17.58,110.48 3.41,23.79 6.93,48.4 0.65,73.22 -10.62,41.99 -53.36,87.36 -120.33,127.77 -67.07,40.45 -155.58,74.19 -249.23,94.99 -64.91,14.41 -133.14,23.53 -199.13,32.34 -33.68,4.5 -68.51,9.15 -102.53,14.46 -125.42,19.57 -216.89,46.82 -271.86,81.02 -41.86,26.03 -61.74,55.48 -80.97,83.95 -9.54,14.13 -19.41,28.75 -31.86,42.8 -84.01,94.86 -317.01,172.21 -527.77,184.11l0 1.45z"/>
   <path class="fil59" d="M-0 1434.87c84.78,-5.84 175.5,-22.47 261.31,-48.48 126.81,-38.44 226.55,-92.33 273.65,-147.85 12.18,-14.36 21.71,-29.19 30.93,-43.52 18.45,-28.69 37.52,-58.35 78.6,-85.05 54.11,-35.17 145.06,-64.26 270.33,-86.47 34.03,-6.03 68.9,-11.43 102.62,-16.65 66.11,-10.23 134.46,-20.81 199.37,-36.62 93.72,-22.83 181.93,-58.48 248.35,-100.38 66.52,-41.96 108.43,-88.45 118.02,-130.9 5.68,-25.13 1.43,-49.71 -2.68,-73.48 -6.09,-35.22 -12.38,-71.65 14.38,-109.62 34.28,-48.66 143.67,-116.81 347.86,-162.14 135.21,-30.02 276.62,-43.47 413.39,-56.48 16.61,-1.58 33.2,-3.16 49.76,-4.76 152.99,-14.83 316.01,-33.43 471.59,-68.83 133.12,-30.29 247.22,-70.52 330.14,-115.88l0 -1.65c-82.83,45.47 -197.11,85.82 -330.54,116.18 -155.48,35.38 -318.43,53.97 -471.36,68.79 -16.56,1.6 -33.15,3.18 -49.76,4.76 -136.82,13.02 -278.29,26.48 -413.61,56.52 -134.19,29.79 -296.3,88.19 -348.83,162.76 -27.06,38.41 -20.73,75.09 -14.6,110.56 4.09,23.65 8.31,48.11 2.69,73.01 -9.51,42.1 -51.2,88.28 -117.39,130.03 -66.28,41.8 -154.3,77.38 -247.85,100.16 -64.83,15.79 -133.15,26.37 -199.22,36.59 -33.73,5.22 -68.62,10.62 -102.66,16.66 -125.5,22.24 -216.67,51.42 -270.97,86.71 -41.35,26.88 -60.51,56.67 -79.04,85.48 -9.2,14.3 -18.71,29.09 -30.83,43.38 -82.88,97.71 -319.95,180.81 -533.67,195.72l0 1.45z"/>
   <path class="fil60" d="M-0 1460.1c87.49,-7.18 181.42,-26.04 269.8,-54.78 126.45,-41.11 225.25,-97.05 271.07,-153.48 11.85,-14.59 21.03,-29.6 29.9,-44.1 17.75,-29.03 36.12,-59.04 76.68,-86.57 53.44,-36.27 144.09,-67.28 269.45,-92.16 34.05,-6.76 68.97,-12.9 102.73,-18.84 66.19,-11.65 134.64,-23.7 199.47,-40.88 93.62,-24.82 181.32,-62.3 246.96,-105.56 65.73,-43.31 106.59,-90.61 115.06,-133.18 5.01,-25.2 0.06,-49.64 -4.73,-73.26 -7.1,-35.02 -14.43,-71.22 11.42,-109.7 33.13,-49.3 141.24,-119.68 345.32,-169.35 135.13,-32.89 276.97,-49.39 414.14,-65.34 16.66,-1.94 33.3,-3.88 49.91,-5.84 153.45,-18.12 316.87,-40.23 472.32,-78.93 138.15,-34.4 255.37,-79.05 338.12,-128.27l0 -1.69c-82.65,49.34 -200.07,94.13 -338.57,128.61 -155.35,38.68 -318.71,60.77 -472.09,78.89 -16.61,1.96 -33.25,3.89 -49.91,5.84 -137.22,15.96 -279.12,32.47 -414.35,65.38 -134.12,32.64 -295.51,94.45 -346.27,170 -26.15,38.92 -18.76,75.38 -11.61,110.65 4.76,23.51 9.69,47.82 4.72,72.78 -8.39,42.22 -49.04,89.21 -114.44,132.31 -65.49,43.16 -153.02,80.57 -246.46,105.34 -64.76,17.17 -133.17,29.2 -199.32,40.85 -33.78,5.94 -68.7,12.09 -102.77,18.85 -125.59,24.93 -216.46,56.02 -270.08,92.42 -40.84,27.72 -59.28,57.86 -77.11,87.02 -8.85,14.47 -18.01,29.43 -29.8,43.95 -81.68,100.58 -322.88,189.66 -539.56,207.63l0 1.44z"/>
   <path class="fil61" d="M-0 1485.61c90.2,-8.57 187.36,-29.78 278.28,-61.36 126.09,-43.79 223.96,-101.78 268.5,-159.11 11.52,-14.83 20.34,-30 28.87,-44.68 17.06,-29.36 34.71,-59.73 74.76,-88.1 52.76,-37.37 143.12,-70.29 268.57,-97.84 34.06,-7.48 69.02,-14.37 102.82,-21.03 66.29,-13.06 134.83,-26.57 199.6,-45.14 93.51,-26.81 180.72,-66.13 245.57,-110.74 64.94,-44.67 104.74,-92.78 112.08,-135.47 4.35,-25.27 -1.31,-49.56 -6.78,-73.05 -8.11,-34.8 -16.49,-70.79 8.46,-109.76 31.97,-49.95 138.81,-122.55 342.78,-176.57 135.06,-35.77 277.32,-55.31 414.89,-74.21 16.71,-2.3 33.4,-4.59 50.06,-6.91 153.89,-21.42 317.71,-47.03 473.05,-89.04 143.45,-38.79 263.86,-88.15 346.11,-141.38l0 -1.74c-82.11,53.37 -202.74,102.88 -346.59,141.78 -155.25,41.98 -319,67.58 -472.83,89 -16.65,2.32 -33.34,4.61 -50.05,6.9 -137.63,18.91 -279.95,38.46 -415.11,74.26 -134.04,35.49 -294.73,100.69 -343.71,177.22 -25.24,39.42 -16.79,75.67 -8.63,110.73 5.44,23.37 11.07,47.54 6.77,72.56 -7.28,42.34 -46.88,90.13 -111.49,134.58 -64.7,44.51 -151.74,83.75 -245.07,110.51 -64.69,18.54 -133.2,32.05 -199.45,45.1 -33.81,6.67 -68.78,13.56 -102.86,21.04 -125.68,27.61 -216.25,60.62 -269.19,98.12 -40.32,28.56 -58.04,59.06 -75.18,88.55 -8.51,14.64 -17.3,29.78 -28.77,44.53 -80.42,103.5 -325.78,198.75 -545.46,219.81l0 1.45z"/>
   <path class="fil62" d="M-0 1511.41c92.91,-10.02 193.32,-33.69 286.77,-68.22 125.73,-46.46 222.66,-106.5 265.94,-164.74 11.19,-15.06 19.65,-30.41 27.84,-45.26 16.37,-29.71 33.3,-60.42 72.85,-89.62 52.09,-38.47 142.16,-73.31 267.69,-103.53 34.09,-8.21 69.09,-15.84 102.94,-23.23 66.37,-14.48 135.01,-29.45 199.7,-49.4 93.4,-28.79 180.12,-69.96 244.17,-115.92 64.14,-46.02 102.89,-94.94 109.11,-137.75 3.68,-25.34 -2.68,-49.48 -8.83,-72.83 -9.12,-34.6 -18.54,-70.37 5.5,-109.84 30.81,-50.58 136.37,-125.42 340.23,-183.78 134.99,-38.64 277.67,-61.23 415.66,-83.08 16.75,-2.65 33.49,-5.3 50.19,-7.97 154.33,-24.71 318.54,-53.83 473.79,-99.14 149.06,-43.51 272.74,-97.9 354.1,-155.28l0 -1.81c-81.18,57.53 -205.08,112.11 -354.61,155.76 -155.15,45.29 -319.3,74.39 -473.57,99.1 -16.7,2.67 -33.43,5.32 -50.18,7.97 -138.04,21.86 -280.78,44.46 -415.88,83.13 -133.97,38.35 -293.94,106.94 -341.15,184.45 -24.32,39.93 -14.83,75.96 -5.64,110.81 6.12,23.23 12.45,47.25 8.81,72.34 -6.17,42.45 -44.71,91.05 -108.54,136.84 -63.92,45.86 -150.46,86.94 -243.69,115.68 -64.62,19.92 -133.21,34.89 -199.55,49.36 -33.86,7.39 -68.87,15.03 -102.97,23.24 -125.76,30.28 -216.03,65.21 -268.31,103.82 -39.81,29.39 -56.81,60.25 -73.25,90.08 -8.16,14.81 -16.6,30.12 -27.74,45.11 -79.09,106.45 -328.65,208.1 -551.35,232.29l0 1.43z"/>
  </g>
 </g>
</svg>
