<?xml version="1.0" encoding="UTF-8"?>
<!DOCTYPE svg PUBLIC "-//W3C//DTD SVG 1.0//EN" "http://www.w3.org/TR/2001/REC-SVG-20010904/DTD/svg10.dtd">
<!-- Creator: CorelDRAW -->
<svg xmlns="http://www.w3.org/2000/svg" xml:space="preserve" width="24.2016mm" height="24.2016mm" version="1.0" style="shape-rendering:geometricPrecision; text-rendering:geometricPrecision; image-rendering:optimizeQuality; fill-rule:evenodd; clip-rule:evenodd"
viewBox="0 0 764.6 764.6"
 xmlns:xlink="http://www.w3.org/1999/xlink"
 xmlns:xodm="http://www.corel.com/coreldraw/odm/2003">
 <defs>
  <style type="text/css">
   <![CDATA[
    .fil2 {fill:none}
    .fil1 {fill:#006633}
    .fil0 {fill:url(#id0)}
   ]]>
  </style>
  <linearGradient id="id0" gradientUnits="objectBoundingBox" x1="16.6445%" y1="11.4847%" x2="62.4112%" y2="63.8923%">
   <stop offset="0" style="stop-opacity:1; stop-color:#86C2A2"/>
   <stop offset="0.560784" style="stop-opacity:1; stop-color:#61A681"/>
   <stop offset="1" style="stop-opacity:1; stop-color:#1D6941"/>
  </linearGradient>
 </defs>
 <g id="Layer_x0020_1">
  <metadata id="CorelCorpID_0Corel-Layer"/>
  <g id="_105553149743040">
   <g>
    <path class="fil0" d="M315.05 145.13l-28.32 -12.39c-14.16,-5.31 -33.63,-19.47 -47.79,-5.31 -10.62,12.39 -7.08,21.24 -3.54,35.4 1.77,5.31 3.54,14.16 3.54,19.47 1.77,14.16 5.31,26.55 7.08,40.71 1.77,12.39 7.08,51.33 12.39,58.41 3.54,3.54 8.85,8.85 15.93,8.85l214.16 0c14.16,0 19.47,-15.93 21.24,-26.55 3.54,-15.93 23.01,-113.27 23.01,-122.12 0,-10.62 -10.62,-21.24 -24.78,-21.24 -8.85,0 -33.63,12.39 -44.25,17.7 -5.31,1.77 -10.62,5.31 -14.16,7.08 -1.77,-3.54 -3.54,-8.85 -7.08,-12.39l-37.17 -61.95c-10.62,-17.7 -10.62,-19.47 -28.32,-19.47 -12.39,0 -19.47,17.7 -26.55,30.09l-35.4 61.95 0 1.78z"/>
    <path class="fil0" d="M215.93 653.1c0,24.78 -5.31,60.18 24.78,60.18l284.96 0c30.09,0 24.78,-37.17 24.78,-60.18 0,-51.33 -37.17,-90.26 -79.65,-90.26l-175.22 0c-21.24,0 -46.02,12.39 -56.64,26.55 -12.39,15.93 -21.24,35.4 -21.24,63.72l-1.77 0z"/>
    <path class="fil1" d="M292.04 421.24l0 10.62c0,42.48 42.48,84.96 84.96,84.96l10.62 0c42.48,0 84.96,-42.48 84.96,-84.96l0 -10.62c0,-42.48 -42.48,-84.96 -84.96,-84.96l-10.62 0c-42.48,0 -84.96,42.48 -84.96,84.96z"/>
    <path class="fil0" d="M559.29 534.51c3.54,10.62 49.56,35.4 49.56,116.81l115.04 0c8.85,0 19.47,-10.62 19.47,-19.47 0,-30.09 0,-56.64 -26.55,-79.65 -33.63,-28.32 -74.33,-21.24 -123.89,-21.24 -8.85,0 -10.62,0 -17.7,1.77 -7.08,0 -10.62,1.77 -15.93,3.54l0 -1.77z"/>
    <path class="fil0" d="M21.24 610.62l0 23.01c0,8.85 10.62,19.47 19.47,19.47l115.04 0c0,-83.18 46.02,-106.19 49.56,-116.81 -8.85,0 -15.93,-3.54 -33.63,-3.54 -49.56,0 -90.26,-7.08 -123.89,21.24 -12.39,10.62 -26.55,33.63 -26.55,56.64l0 0z"/>
    <path class="fil1" d="M562.83 437.17c0,30.09 10.62,49.56 37.17,61.95 46.02,19.47 99.11,-26.55 79.65,-79.65 -7.08,-17.7 -28.32,-37.17 -51.33,-37.17 -19.47,0 -33.63,3.54 -47.79,17.7 -7.08,7.08 -17.7,23.01 -17.7,37.17l-0 0z"/>
    <path class="fil1" d="M201.77 446.02c0,-19.47 -3.54,-33.63 -15.93,-47.79 -40.71,-42.48 -115.04,-5.31 -102.65,56.64 3.54,14.16 8.85,21.24 15.93,28.32 7.08,7.08 14.16,12.39 28.32,15.93 14.16,3.54 24.78,1.77 37.17,-1.77 17.7,-7.08 37.17,-28.32 37.17,-51.33l-0 -0z"/>
   </g>
   <rect class="fil2" width="764.6" height="764.6"/>
  </g>
 </g>
</svg>
