<?xml version="1.0" encoding="UTF-8"?>
<!DOCTYPE svg PUBLIC "-//W3C//DTD SVG 1.1//EN" "http://www.w3.org/Graphics/SVG/1.1/DTD/svg11.dtd">
<!-- Creator: CorelDRAW -->
<svg xmlns="http://www.w3.org/2000/svg" xml:space="preserve" width="1.04761in" height="1.16189in" version="1.1" style="shape-rendering:geometricPrecision; text-rendering:geometricPrecision; image-rendering:optimizeQuality; fill-rule:evenodd; clip-rule:evenodd"
viewBox="0 0 93.03 103.18"
 xmlns:xlink="http://www.w3.org/1999/xlink"
 xmlns:xodm="http://www.corel.com/coreldraw/odm/2003">
 <defs>
  <style type="text/css">
   <![CDATA[
    .fil0 {fill:black}
   ]]>
  </style>
 </defs>
 <g id="Layer_x0020_1">
  <metadata id="CorelCorpID_0Corel-Layer"/>
  <g id="_105553435325632">
   <path class="fil0" d="M-0 101.97c2.54,-1.7 4.09,-4.28 6.53,-6.16 1.24,-0.96 2.1,-1.97 3.19,-3.06 0.59,-0.59 1.03,-1.02 1.61,-1.61 0.68,-0.68 0.97,-0.91 1.7,-1.52l4.74 -4.73c0.64,-0.65 1.1,-0.89 1.72,-1.51 2.05,-2.03 3.47,-3.65 5.63,-5.45l3.94 -3.92c1.15,-1.15 2.18,-1.98 3.33,-3.12 1.09,-1.09 2.04,-2.03 3.12,-3.12l3.33 -3.12c1.09,-1.09 2.04,-2.03 3.12,-3.13 0.64,-0.65 1.1,-0.89 1.72,-1.51 2.32,-2.3 3.11,-3.24 5.74,-5.55l2.37 -2.47c-0.59,-0.88 -2.22,-2.32 -3.07,-3.17l-6.45 -6.25c-1.15,-1.15 -2.18,-1.98 -3.33,-3.12 -1.65,-1.65 -3.07,-3.17 -4.83,-4.64l-8.07 -7.85c-1.84,-1.84 -2.04,-2.18 -4.02,-3.84 -0.33,-0.27 -0.52,-0.49 -0.82,-0.8l-16.02 -15.62c-0.62,-0.62 -1.08,-0.86 -1.72,-1.51 -0.86,-0.87 -2.38,-2.58 -3.27,-3.18 0,16.8 -0.2,33.12 -0.2,49.78 0,16.73 0,33.45 0,50.18z"/>
   <path class="fil0" d="M3.43 0.2c0.79,1.18 2.35,2.31 3.18,3.07 1.09,1.01 2.06,2.06 3.12,3.13l15.92 15.32c2.86,2.87 8.16,8.11 11.08,10.68 0.58,0.51 1.06,1.05 1.61,1.61 1.09,1.09 2.03,2.03 3.12,3.13l3.23 3.02c1.09,1.09 2.03,2.05 3.12,3.13 1.8,1.78 5.1,4.35 6.4,6.29 1.44,-0.96 4.12,-3.81 5.59,-5.29 0.33,-0.33 0.56,-0.6 0.92,-0.9l8.4 -8.12c-0.91,-1.24 -23.7,-13.68 -25.86,-14.85 -0.76,-0.41 -1.43,-0.71 -2.15,-1.07 -1.44,-0.72 -2.8,-1.4 -4.3,-2.15l-29.02 -14.91c-1.06,-0.53 -3.39,-1.86 -4.37,-2.08z"/>
   <path class="fil0" d="M4.23 102.98c0.86,-0.2 1.32,-0.65 2.01,-1.01 0.72,-0.37 1.19,-0.7 1.95,-1.08 4.66,-2.35 11.58,-6.63 15.99,-8.8 1.37,-0.67 2.66,-1.54 4.03,-2.22 1.37,-0.67 2.66,-1.54 4.03,-2.22 1.36,-0.67 2.67,-1.51 4.03,-2.22 3.65,-1.88 8.35,-4.76 11.96,-6.58l7.79 -4.5c3.72,-2.01 8.24,-4.92 11.89,-6.85 -0.6,-0.89 -2.41,-2.59 -3.34,-3.31l-6.79 -6.51c-0.86,-0.87 -2.5,-2.69 -3.37,-3.28l-12.54 12.04c-4.55,4.55 -9.53,9.08 -14.11,13.7 -0.64,0.64 -0.97,0.85 -1.61,1.41l-4.63 4.64c-0.62,0.63 -1.02,0.83 -1.62,1.4 -1.1,1.06 -2.04,2.04 -3.12,3.13 -0.55,0.55 -0.96,0.97 -1.51,1.52 -0.6,0.59 -1.01,0.79 -1.62,1.4 -1.93,1.94 -3.48,3.64 -5.53,5.35 -0.33,0.27 -0.52,0.5 -0.82,0.8 -0.86,0.87 -2.47,2.28 -3.07,3.17z"/>
   <path class="fil0" d="M57.03 51.99c0.53,0.8 2.63,2.82 3.43,3.43l10.48 10.28 16.92 -9.68c2.01,-1.15 4.51,-2.22 5.01,-4.07 0.85,-3.13 -1.73,-4.15 -3.3,-5.07 -1.96,-1.15 -3.87,-2.2 -5.74,-3.33 -0.94,-0.57 -10.56,-6.25 -11.48,-6.46 -0.72,0.48 -1.23,1.13 -1.86,1.76 -0.35,0.35 -0.55,0.57 -0.9,0.91 -0.47,0.45 -0.65,0.5 -1.11,0.9 -1.3,1.14 -2.58,2.57 -3.83,3.83 -1.52,1.52 -6.7,6.16 -7.61,7.51z"/>
   <polygon class="fil0" points="3.43,0.2 3.43,0 3.19,0.17 "/>
   <polygon class="fil0" points="4.23,102.98 4.03,102.98 4.17,103.18 4.2,103.18 "/>
  </g>
 </g>
</svg>
