<?xml version="1.0" encoding="UTF-8"?>
<!DOCTYPE svg PUBLIC "-//W3C//DTD SVG 1.0//EN" "http://www.w3.org/TR/2001/REC-SVG-20010904/DTD/svg10.dtd">
<!-- Creator: CorelDRAW -->
<svg xmlns="http://www.w3.org/2000/svg" xml:space="preserve" width="24.2016mm" height="24.2016mm" version="1.0" style="shape-rendering:geometricPrecision; text-rendering:geometricPrecision; image-rendering:optimizeQuality; fill-rule:evenodd; clip-rule:evenodd"
viewBox="0 0 413.72 413.72"
 xmlns:xlink="http://www.w3.org/1999/xlink"
 xmlns:xodm="http://www.corel.com/coreldraw/odm/2003">
 <defs>
  <style type="text/css">
   <![CDATA[
    .fil6 {fill:none}
    .fil4 {fill:#153624}
    .fil5 {fill:#65A985}
    .fil3 {fill:#9AD9B8}
    .fil1 {fill:url(#id1)}
    .fil0 {fill:url(#id2)}
    .fil2 {fill:url(#id3)}
   ]]>
  </style>
     <clipPath id="id0">
      <path d="M-0 413.72l413.72 0 0 -413.72 -413.72 0 0 413.72z"/>
     </clipPath>
  <linearGradient id="id1" gradientUnits="userSpaceOnUse" x1="254.68" y1="243.82" x2="324.17" y2="312.28">
   <stop offset="0" style="stop-opacity:1; stop-color:#86C2A2"/>
   <stop offset="0.560784" style="stop-opacity:1; stop-color:#61A681"/>
   <stop offset="1" style="stop-opacity:1; stop-color:#1D6941"/>
  </linearGradient>
  <linearGradient id="id2" gradientUnits="userSpaceOnUse" xlink:href="#id1" x1="57.76" y1="145.52" x2="127.28" y2="213.77">
  </linearGradient>
  <linearGradient id="id3" gradientUnits="userSpaceOnUse" xlink:href="#id1" x1="254.53" y1="47.42" x2="324.1" y2="115.6">
  </linearGradient>
 </defs>
 <g id="Layer_x0020_1">
  <metadata id="CorelCorpID_0Corel-Layer"/>
  <g id="_105553149098496">
   <g id="_105553459228000">
    <g>
    </g>
    <g style="clip-path:url(#id0)">
     <g>
      <g>
       <path class="fil0" d="M54.96 260.73c2.89,-1.94 5.43,-4.86 9.01,-7.4 3.09,-2.19 6.85,-4.62 10.55,-6.45 8.68,-4.31 16.22,-6 27,-7.7 2.68,-1.53 -1.12,1.8 0.89,-0.95 -14.91,-2.44 -27.67,-16.84 -25.95,-34.61 1.57,-16.22 14.48,-27.86 31.5,-28.87 30.79,0.64 41.08,34.36 25.26,52.45 -9.07,10.36 -13.24,8.41 -18.97,11.67 11.73,2.14 17.38,2.92 27.08,7.59 3.81,1.83 7.46,3.8 10.8,6.27 3.72,2.74 6.65,5.66 9.78,8.04 3.43,-2.66 6.77,-7.56 9.45,-11.01 2.85,-6.05 6.91,-10.97 8.86,-18.39 2.64,-4.82 4.17,-16.73 4.17,-24.52 0,-7.83 -1.53,-19.65 -4.16,-24.52 -2.7,-8.08 -5.66,-11.74 -8.87,-18.39 -3.5,-4.48 -6.71,-8.83 -10.98,-12.78l-6.74 -5.52c-11.35,-8.53 -28.36,-15.08 -45.17,-15.08 -8.48,0 -17.62,1.99 -24.14,4.17 -6.7,2.24 -13.84,5.71 -19.16,9.45 -10.76,7.57 -20.9,19.11 -26.08,31.14 -3.77,8.76 -6,17.81 -6.61,26.86l0 10.29c0.98,14.29 6.11,28.27 15.66,40.7 1.98,2.58 4.17,5.63 6.82,7.54z"/>
       <path class="fil1" d="M242.65 262.03c-2.45,5.98 -7.11,11.21 -9.1,19.07 -5.58,9.58 -5.04,33.88 -1.24,45.39 2.54,7.68 4.36,12.06 8.14,18.43 2.98,5.02 7.63,11.1 11.87,14.52 2.67,-3.99 13.94,-11.55 20.37,-14.54 8.74,-4.06 17.63,-6.62 28.51,-7.29 -6.22,-3.02 -12.53,-2.39 -19.9,-11.08 -18.18,-21.45 -3.39,-52.83 23.72,-53.19l0.34 -0.23c17.57,0.7 30.74,12.85 32.12,29.84 1.22,14.95 -8.37,28.29 -21.45,32.8 -1.86,0.64 -4.65,0.97 -6.32,1.84 10.17,0.48 20.42,3.34 28.31,7.18 7.83,3.82 16.01,9.08 20.33,14.66 3.53,-1.7 10.63,-11.89 12.44,-15.22 5.89,-10.88 9.4,-21.94 10.45,-32.89l0 -13.86c-1.27,-13.03 -6.18,-25.73 -14.88,-37.59 -3.3,-4.5 -8.88,-10.45 -13.33,-13.92 -15.08,-11.74 -22.89,-12.94 -39.23,-16.3 -10.03,-2.99 -32.87,2.56 -42.93,7.84 -9.42,4.94 -14.92,9.53 -21.97,16.86 -2.38,2.47 -3.85,5.18 -6.26,7.68z"/>
       <path class="fil2" d="M233.56 132.61c0.77,2.97 2.71,7.36 4.11,10.08 1.67,3.23 3.89,6.11 4.98,8.99 1.71,1.77 3.14,3.86 4.69,5.85 1.61,2.06 3.14,3.43 4.86,5.05 1.66,-2.8 5.85,-5.62 9.24,-8.09 3.09,-2.24 6.85,-4.59 10.62,-6.38 7.84,-3.74 17.85,-6.82 27.91,-7.37l0 -1.08c-12.67,-0.1 -27.17,-15.05 -26.67,-32.27 0.52,-18.08 17.52,-32.1 28.72,-30.51 0.75,-0.4 -0.72,-0.18 1.56,-0.62 0.62,-0.12 1.15,-0.1 1.78,-0.13 32.27,0.26 44.77,42.21 16.57,59.84 -3.91,2.44 -7.38,2.75 -11.22,4.64 14.59,1.12 27.07,5.74 38.2,13.43 1.73,1.19 3.64,2.68 5.04,3.82 2.18,1.77 2.52,2.76 4.81,4.15 11.85,-9.23 20.73,-28.84 22.48,-47.51l0 -12.81c-0.08,-0.74 -0.17,-1.47 -0.27,-2.19 -1.44,-9.93 -2.96,-14.43 -6.25,-22.36 -3.21,-7.76 -11.51,-19.68 -17.52,-24.71 -15.5,-12.96 -30.11,-19.95 -51.84,-19.95 -31.03,0 -55.52,17.09 -68.76,43.36 -5.56,11.03 -7.92,24.95 -7.27,37.7 0.25,4.88 2.34,15.88 4.22,19.07z"/>
       <path class="fil3" d="M301.21 337.61l3.56 -0.16 0.59 -0 4.36 0.15c1.67,-0.87 4.46,-1.2 6.32,-1.84 13.08,-4.5 22.66,-17.85 21.45,-32.8 -1.38,-16.99 -14.55,-29.14 -32.12,-29.84l-0.34 0.23c-27.12,0.36 -41.91,31.74 -23.72,53.19 7.37,8.7 13.68,8.06 19.9,11.08z"/>
       <path class="fil4" d="M252.19 162.58c6.42,6.68 15.96,12.9 25.3,16.55 5.84,2.29 27.42,7.89 36.31,4.88 5.72,-1.04 8.78,-1.29 13.88,-2.79 4.61,-1.36 8.24,-3.14 12.01,-5.02 6.61,-3.29 14.88,-8.62 19.07,-14.19 -2.28,-1.39 -2.62,-2.38 -4.81,-4.15 -1.41,-1.14 -3.32,-2.63 -5.04,-3.82 -11.13,-7.69 -23.61,-12.31 -38.2,-13.43l-5.35 -0.19 -5.39 0.31c-10.06,0.55 -20.08,3.64 -27.91,7.37 -3.77,1.8 -7.53,4.14 -10.62,6.38 -3.4,2.47 -7.59,5.29 -9.24,8.09z"/>
       <path class="fil4" d="M101.52 239.18c-10.78,1.69 -18.32,3.39 -27,7.7 -3.7,1.83 -7.46,4.27 -10.55,6.45 -3.58,2.53 -6.12,5.46 -9.01,7.4 1.7,2.41 2.35,2.39 4.56,4.24 5.84,4.91 9.97,7.65 17.47,11.15 4.44,2.07 9.4,3.68 14.2,4.87 4.35,1.08 12.22,2.17 17.29,2.17 10.53,0 23.96,-3.32 30.96,-6.8 6.53,-3.24 12.11,-6.3 17.55,-11.06 2.21,-1.93 3.1,-2.07 4.92,-4.5 -3.12,-2.38 -6.06,-5.29 -9.78,-8.04 -3.34,-2.47 -7,-4.43 -10.8,-6.27 -9.7,-4.67 -15.36,-5.45 -27.08,-7.59l-5.77 -0.04 -6.95 0.34z"/>
       <path class="fil3" d="M101.52 239.18l6.95 -0.34 5.77 0.04c5.73,-3.26 9.9,-1.31 18.97,-11.67 15.83,-18.09 5.53,-51.81 -25.26,-52.45 -17.02,1.01 -29.93,12.64 -31.5,28.87 -1.72,17.78 11.04,32.18 25.95,34.61 -2.01,2.74 1.79,-0.58 -0.89,0.95z"/>
       <path class="fil4" d="M252.32 359.44c2.71,3.23 6.35,6.19 9.98,8.59 4.25,2.81 7.4,4.61 12.22,6.85 8.8,4.1 18.24,6.35 30.85,6.35 17.15,0 36.52,-6.08 48.45,-17.2l3.65 -3.14c0.89,-0.95 0.6,-0.47 0.88,-1.45 -4.33,-5.58 -12.51,-10.84 -20.33,-14.66 -7.88,-3.84 -18.14,-6.7 -28.31,-7.18l-4.36 -0.15 -0.59 0 -3.56 0.16c-10.88,0.67 -19.77,3.23 -28.51,7.29 -6.44,2.99 -17.71,10.55 -20.37,14.54z"/>
       <path class="fil3" d="M302.02 76.88c-11.2,-1.59 -28.2,12.43 -28.72,30.51 -0.5,17.22 14,32.17 26.67,32.27l0 1.08 5.39 -0.31 5.35 0.19c3.84,-1.9 7.31,-2.2 11.22,-4.64 28.2,-17.63 15.69,-59.58 -16.57,-59.84 -0.62,0.02 -1.15,0.01 -1.78,0.13 -2.28,0.45 -0.81,0.23 -1.56,0.62z"/>
       <path class="fil5" d="M171.35 163.94c3.21,6.65 6.17,10.32 8.87,18.39l62.43 -30.65c-1.09,-2.88 -3.31,-5.76 -4.98,-8.99 -1.4,-2.72 -3.34,-7.11 -4.11,-10.08l-62.2 31.33z"/>
       <path class="fil5" d="M171.35 249.77l62.2 31.33c2,-7.87 6.65,-13.09 9.1,-19.07l-62.44 -30.65c-1.95,7.42 -6.01,12.34 -8.86,18.39z"/>
      </g>
     </g>
    </g>
    <polygon class="fil6" points="-0,413.72 413.72,413.72 413.72,0 -0,0 "/>
   </g>
  </g>
 </g>
</svg>
