<?xml version="1.0" encoding="UTF-8"?>
<!DOCTYPE svg PUBLIC "-//W3C//DTD SVG 1.1//EN" "http://www.w3.org/Graphics/SVG/1.1/DTD/svg11.dtd">
<!-- Creator: CorelDRAW -->
<svg xmlns="http://www.w3.org/2000/svg" xml:space="preserve" width="49.2747mm" height="44.427mm" version="1.1" style="shape-rendering:geometricPrecision; text-rendering:geometricPrecision; image-rendering:optimizeQuality; fill-rule:evenodd; clip-rule:evenodd"
viewBox="0 0 218.35 196.86"
 xmlns:xlink="http://www.w3.org/1999/xlink"
 xmlns:xodm="http://www.corel.com/coreldraw/odm/2003">
 <defs>
  <style type="text/css">
   <![CDATA[
    .fil11 {fill:#F29984}
    .fil0 {fill:black}
    .fil2 {fill:#153D28}
    .fil1 {fill:#31C174}
    .fil13 {fill:#BDFFDC}
    .fil15 {fill:#FB9C9A}
    .fil10 {fill:white}
    .fil12 {fill:white}
    .fil7 {fill:white;fill-rule:nonzero}
    .fil5 {fill:#F29984;fill-rule:nonzero}
    .fil3 {fill:#D1D3D1;fill-rule:nonzero}
    .fil9 {fill:#42C3F2;fill-rule:nonzero}
    .fil14 {fill:black;fill-rule:nonzero}
    .fil8 {fill:#31C174;fill-rule:nonzero}
    .fil18 {fill:url(#id0)}
    .fil19 {fill:url(#id1)}
    .fil20 {fill:url(#id2)}
    .fil4 {fill:url(#id3)}
    .fil6 {fill:url(#id4)}
    .fil23 {fill:url(#id5)}
    .fil17 {fill:url(#id6)}
    .fil22 {fill:url(#id7)}
    .fil24 {fill:url(#id8)}
    .fil21 {fill:url(#id9)}
    .fil16 {fill:url(#id10)}
   ]]>
  </style>
  <linearGradient id="id0" gradientUnits="userSpaceOnUse" x1="61.45" y1="149.86" x2="62.43" y2="149.86">
   <stop offset="0" style="stop-opacity:1; stop-color:#272734"/>
   <stop offset="0.0117647" style="stop-opacity:1; stop-color:#272734"/>
   <stop offset="1" style="stop-opacity:1; stop-color:#434352"/>
  </linearGradient>
  <linearGradient id="id1" gradientUnits="userSpaceOnUse" xlink:href="#id0" x1="63.32" y1="149.86" x2="64.31" y2="149.86">
  </linearGradient>
  <linearGradient id="id2" gradientUnits="userSpaceOnUse" xlink:href="#id0" x1="65.2" y1="149.86" x2="66.18" y2="149.86">
  </linearGradient>
  <linearGradient id="id3" gradientUnits="userSpaceOnUse" xlink:href="#id0" x1="48.42" y1="100.2" x2="72.69" y2="100.2">
  </linearGradient>
  <linearGradient id="id4" gradientUnits="userSpaceOnUse" xlink:href="#id0" x1="51.69" y1="95.51" x2="70.04" y2="95.51">
  </linearGradient>
  <linearGradient id="id5" gradientUnits="userSpaceOnUse" xlink:href="#id0" x1="70.82" y1="149.86" x2="71.8" y2="149.86">
  </linearGradient>
  <linearGradient id="id6" gradientUnits="userSpaceOnUse" xlink:href="#id0" x1="59.57" y1="149.86" x2="60.56" y2="149.86">
  </linearGradient>
  <linearGradient id="id7" gradientUnits="userSpaceOnUse" xlink:href="#id0" x1="68.94" y1="149.86" x2="69.93" y2="149.86">
  </linearGradient>
  <linearGradient id="id8" gradientUnits="userSpaceOnUse" xlink:href="#id0" x1="72.69" y1="149.86" x2="73.68" y2="149.86">
  </linearGradient>
  <linearGradient id="id9" gradientUnits="userSpaceOnUse" xlink:href="#id0" x1="67.07" y1="149.86" x2="68.05" y2="149.86">
  </linearGradient>
  <linearGradient id="id10" gradientUnits="userSpaceOnUse" x1="161.16" y1="85.16" x2="173.99" y2="61.7">
   <stop offset="0" style="stop-opacity:1; stop-color:black"/>
   <stop offset="1" style="stop-opacity:1; stop-color:#4D4D4D"/>
  </linearGradient>
 </defs>
 <g id="Layer_x0020_1">
  <metadata id="CorelCorpID_0Corel-Layer"/>
  <g id="_105553241131840">
   <path class="fil0" d="M96.64 23.48c50.88,42.91 104.3,26.47 110.28,75.85 6.36,52.5 -10.66,20.9 -51.64,53.66 -59.81,47.81 -149.63,31.13 -152.96,-54.15 -2.21,-56.81 53.89,-109.44 94.31,-75.35z"/>
   <path class="fil1" d="M0.01 144.98c0.25,1.77 1.08,3.59 2.23,5.36 1.47,2.26 3.4,4.45 4.89,6.31 1.32,1.67 2.71,3.26 4.15,4.79 1.45,1.54 2.97,3 4.56,4.41 2.09,1.86 4.3,3.6 6.67,5.2 5.51,3.72 11.84,6.68 19.32,8.61 0.78,0.18 1.57,-0.31 1.74,-1.09 0.18,-0.78 -0.31,-1.56 -1.1,-1.75 -7.29,-1.46 -13.59,-3.88 -19.03,-7.23 -2.37,-1.46 -4.57,-3.08 -6.61,-4.88 -1.55,-1.36 -2.99,-2.83 -4.35,-4.38 -1.35,-1.54 -2.61,-3.17 -3.81,-4.85 -1.32,-1.9 -3.06,-4.12 -4.32,-6.42 -0.8,-1.46 -1.37,-2.95 -1.46,-4.37 -0.08,-0.8 -0.79,-1.39 -1.59,-1.31 -0.8,0.08 -1.39,0.79 -1.31,1.59z"/>
   <path class="fil1" d="M47.08 7.45c1.21,-0.95 2.56,-1.69 4,-2.28 2.24,-0.92 4.66,-1.5 6.97,-1.98 5.36,-1.09 10.92,-1.34 16.31,-0.52 5.39,0.82 10.58,2.7 15.2,5.78 3.86,2.61 7.28,5.82 10.73,8.95 2.35,2.14 4.71,4.24 7.26,6.09 2.74,2 5.7,3.71 9.05,4.87 2.77,0.97 5.56,1.42 8.36,1.63 6.37,0.49 12.81,-0.31 19.17,1.06 2.63,0.57 5.03,1.57 7.28,2.82 3.47,1.93 6.6,4.49 9.69,7.11 0.62,0.51 1.54,0.42 2.05,-0.2 0.51,-0.62 0.42,-1.54 -0.2,-2.05 -3.3,-2.64 -6.65,-5.21 -10.32,-7.13 -2.5,-1.31 -5.15,-2.32 -8.04,-2.87 -6.49,-1.24 -13.01,-0.29 -19.51,-0.64 -2.65,-0.15 -5.3,-0.52 -7.93,-1.38 -3.2,-1.06 -6.04,-2.64 -8.68,-4.51 -2.52,-1.79 -4.87,-3.83 -7.17,-5.92 -3.51,-3.18 -6.93,-6.49 -10.83,-9.17 -4.77,-3.33 -10.18,-5.38 -15.8,-6.38 -5.61,-1 -11.44,-0.93 -17.08,0.04 -2.49,0.42 -5.09,0.96 -7.51,1.86 -1.7,0.63 -3.31,1.45 -4.77,2.51 -0.63,0.49 -0.76,1.4 -0.27,2.04 0.49,0.64 1.4,0.76 2.04,0.28z"/>
   <path class="fil2" d="M106.98 56.66c0,-5.21 -4.23,-9.45 -9.44,-9.45l-69.66 0c-5.21,0 -9.44,4.23 -9.44,9.45l0 98.41c0,5.21 4.23,9.45 9.44,9.45l69.66 0c5.21,0 9.44,-4.23 9.44,-9.45l0 -98.41z"/>
   <path class="fil3" d="M37.15 139.81c-0.11,0 -0.2,-0.09 -0.2,-0.2l0 -58.18c0,-0.11 0.09,-0.2 0.2,-0.2 0.11,0 0.2,0.09 0.2,0.2l0 58.18c0,0.11 -0.09,0.2 -0.2,0.2z"/>
   <path class="fil3" d="M46.63 139.81c-0.11,0 -0.2,-0.09 -0.2,-0.2l0 -58.18c0,-0.11 0.09,-0.2 0.2,-0.2 0.11,0 0.2,0.09 0.2,0.2l0 58.18c0,0.11 -0.09,0.2 -0.2,0.2z"/>
   <path class="fil3" d="M56.12 139.81c-0.11,0 -0.2,-0.09 -0.2,-0.2l0 -58.18c0,-0.11 0.09,-0.2 0.2,-0.2 0.11,0 0.2,0.09 0.2,0.2l0 58.18c0,0.11 -0.09,0.2 -0.2,0.2z"/>
   <path class="fil3" d="M65.61 139.81c-0.11,0 -0.2,-0.09 -0.2,-0.2l0 -58.18c0,-0.11 0.09,-0.2 0.2,-0.2 0.11,0 0.2,0.09 0.2,0.2l0 58.18c0,0.11 -0.09,0.2 -0.2,0.2z"/>
   <path class="fil3" d="M75.1 139.81c-0.11,0 -0.2,-0.09 -0.2,-0.2l0 -58.18c0,-0.11 0.09,-0.2 0.2,-0.2 0.11,0 0.2,0.09 0.2,0.2l0 58.18c0,0.11 -0.09,0.2 -0.2,0.2z"/>
   <path class="fil3" d="M84.58 139.81c-0.11,0 -0.2,-0.09 -0.2,-0.2l0 -58.18c0,-0.11 0.09,-0.2 0.2,-0.2 0.11,0 0.2,0.09 0.2,0.2l0 58.18c0,0.11 -0.09,0.2 -0.2,0.2z"/>
   <path class="fil3" d="M87.5 86.99l-53.27 0c-0.11,0 -0.2,-0.09 -0.2,-0.2 0,-0.11 0.09,-0.2 0.2,-0.2l53.27 0c0.11,0 0.2,0.09 0.2,0.2 0,0.11 -0.09,0.2 -0.2,0.2z"/>
   <path class="fil3" d="M87.5 96.48l-53.27 0c-0.11,0 -0.2,-0.09 -0.2,-0.2 0,-0.11 0.09,-0.2 0.2,-0.2l53.27 0c0.11,0 0.2,0.09 0.2,0.2 0,0.11 -0.09,0.2 -0.2,0.2z"/>
   <path class="fil3" d="M87.5 105.97l-53.27 0c-0.11,0 -0.2,-0.09 -0.2,-0.2 0,-0.11 0.09,-0.2 0.2,-0.2l53.27 0c0.11,0 0.2,0.09 0.2,0.2 0,0.11 -0.09,0.2 -0.2,0.2z"/>
   <path class="fil3" d="M87.5 115.46l-53.27 0c-0.11,0 -0.2,-0.09 -0.2,-0.2 0,-0.11 0.09,-0.2 0.2,-0.2l53.27 0c0.11,0 0.2,0.09 0.2,0.2 0,0.11 -0.09,0.2 -0.2,0.2z"/>
   <path class="fil3" d="M87.5 124.94l-53.27 0c-0.11,0 -0.2,-0.09 -0.2,-0.2 0,-0.11 0.09,-0.2 0.2,-0.2l53.27 0c0.11,0 0.2,0.09 0.2,0.2 0,0.11 -0.09,0.2 -0.2,0.2z"/>
   <path class="fil3" d="M87.5 134.43l-53.27 0c-0.11,0 -0.2,-0.09 -0.2,-0.2 0,-0.11 0.09,-0.2 0.2,-0.2l53.27 0c0.11,0 0.2,0.09 0.2,0.2 0,0.11 -0.09,0.2 -0.2,0.2z"/>
   <path class="fil4" d="M70.5 93.44c-0.69,-1.1 -1.55,-2.06 -2.54,-2.85 -2.01,-1.62 -5.24,-2.76 -7.41,-1.64 -2.17,-1.12 -5.4,0.03 -7.41,1.64 -0.99,0.79 -1.85,1.75 -2.54,2.85 -1.33,2.13 -2.16,4.65 -2.21,7.17 -0.02,1.32 2.56,7.35 3.1,7.91 0.97,1.01 2.37,2.43 3.79,2.71l0.06 0.01c2.27,-1.91 3.2,-2.69 5.21,-4.39 2.01,1.69 2.94,2.47 5.21,4.39l0.06 -0.01c1.42,-0.28 2.81,-1.7 3.79,-2.71 0.54,-0.56 3.12,-6.6 3.1,-7.91 -0.05,-2.52 -0.88,-5.04 -2.21,-7.17z"/>
   <path class="fil5" d="M65.8 114.21l-4.93 -2.1 -4.93 2.1c0,0 0.61,7.5 -1.83,9.26 0,0 1.76,5.61 6.76,5.61 5,0 6.76,-5.61 6.76,-5.61 -2.43,-1.76 -1.82,-9.26 -1.82,-9.26z"/>
   <path class="fil5" d="M58.7 122.98c2.4,-1.76 5.06,-2.78 7.09,-4.91 -0.14,-2.05 0.01,-3.86 0.01,-3.86l-4.93 -2.1 -4.93 2.1c0,0 0.61,7.5 -1.82,9.26 0,0 0.77,1.7 2.72,2.86 0,-1.21 0.47,-2.32 1.87,-3.35z"/>
   <path class="fil5" d="M52.42 106.28c0,0 -1.05,-0.99 -1.7,-0.5 -0.22,0.17 -0.57,0.69 -0.28,1.42 0.83,2.1 1.05,3.66 1.82,3.98 0.62,0.26 1.5,-0.57 1.5,-0.57l-1.34 -4.32z"/>
   <path class="fil5" d="M52.96 109.66c-0.12,-3.05 -1.93,-3.05 -1.93,-3.05 0.46,0.6 0.57,1.04 0.68,1.7 0.03,0.21 0.13,0.84 0.1,1.09 -0.15,1.35 1.19,1.44 1.15,0.27z"/>
   <path class="fil5" d="M69.31 106.28c0,0 1.05,-0.99 1.7,-0.5 0.22,0.17 0.57,0.69 0.28,1.42 -0.83,2.1 -1.05,3.66 -1.82,3.98 -0.62,0.26 -1.5,-0.57 -1.5,-0.57l1.34 -4.32z"/>
   <path class="fil5" d="M68.77 109.66c0.12,-3.05 1.93,-3.05 1.93,-3.05 -0.46,0.6 -0.57,1.04 -0.68,1.7 -0.03,0.21 -0.13,0.84 -0.1,1.09 0.15,1.35 -1.19,1.44 -1.15,0.27z"/>
   <path class="fil5" d="M60.87 92.44c0,0 -5.48,-0.74 -9.8,2.5 0,0 0.41,13.79 1.76,17.17 1.35,3.38 6.35,7.64 8.04,7.64 1.69,0 6.69,-4.26 8.04,-7.64 1.35,-3.38 1.76,-17.17 1.76,-17.17 -4.33,-3.24 -9.8,-2.5 -9.8,-2.5z"/>
   <path class="fil6" d="M60.87 90.68c-13.16,-0.07 -10.83,9.6 -10.83,9.6 6.91,-0.18 9.7,-3.35 10.83,-6 1.13,2.65 3.92,5.82 10.83,6 0,0 2.33,-9.67 -10.83,-9.6z"/>
   <path class="fil1" d="M39.63 133.3l42.47 0c-0.17,-3.28 -1.76,-7.37 -4.26,-9.53 -2.5,-2.16 -10.85,-1.05 -10.85,-1.05 -0.23,1.09 -0.72,1.97 -1.34,2.68 -2.49,2.87 -7.08,2.87 -9.57,0 -0.62,-0.71 -1.11,-1.59 -1.34,-2.68 0,0 -8.35,-1.12 -10.85,1.05 -2.5,2.16 -4.09,6.25 -4.26,9.53z"/>
   <path class="fil7" d="M61.48 98.65c0,0.34 -0.28,0.61 -0.61,0.61 -0.34,0 -0.62,-0.28 -0.62,-0.61 0,-0.34 0.28,-0.62 0.62,-0.62 0.34,0 0.61,0.28 0.61,0.62z"/>
   <path class="fil7" d="M61.48 102.03c0,0.34 -0.28,0.62 -0.61,0.62 -0.34,0 -0.62,-0.28 -0.62,-0.62 0,-0.34 0.28,-0.61 0.62,-0.61 0.34,0 0.61,0.28 0.61,0.61z"/>
   <path class="fil7" d="M61.48 105.41c0,0.34 -0.28,0.62 -0.61,0.62 -0.34,0 -0.62,-0.28 -0.62,-0.62 0,-0.34 0.28,-0.61 0.62,-0.61 0.34,0 0.61,0.28 0.61,0.61z"/>
   <path class="fil7" d="M61.48 108.79c0,0.34 -0.28,0.62 -0.61,0.62 -0.34,0 -0.62,-0.28 -0.62,-0.62 0,-0.34 0.28,-0.61 0.62,-0.61 0.34,0 0.61,0.28 0.61,0.61z"/>
   <path class="fil7" d="M61.48 112.17c0,0.34 -0.28,0.62 -0.61,0.62 -0.34,0 -0.62,-0.28 -0.62,-0.62 0,-0.34 0.28,-0.61 0.62,-0.61 0.34,0 0.61,0.28 0.61,0.61z"/>
   <path class="fil7" d="M61.48 115.29c0,0.34 -0.28,0.61 -0.61,0.61 -0.34,0 -0.62,-0.28 -0.62,-0.61 0,-0.34 0.28,-0.61 0.62,-0.61 0.34,0 0.61,0.28 0.61,0.61z"/>
   <path class="fil7" d="M61.48 118.54c0,0.34 -0.28,0.61 -0.61,0.61 -0.34,0 -0.62,-0.28 -0.62,-0.61 0,-0.34 0.28,-0.62 0.62,-0.62 0.34,0 0.61,0.28 0.61,0.62z"/>
   <path class="fil7" d="M66.62 114.68c0,0.34 -0.28,0.61 -0.61,0.61 -0.34,0 -0.61,-0.28 -0.61,-0.61 0,-0.34 0.27,-0.62 0.61,-0.62 0.34,0 0.61,0.28 0.61,0.62z"/>
   <path class="fil7" d="M64.19 113.6c0,0.34 -0.28,0.61 -0.61,0.61 -0.34,0 -0.62,-0.28 -0.62,-0.61 0,-0.34 0.28,-0.62 0.62,-0.62 0.34,0 0.61,0.28 0.61,0.62z"/>
   <path class="fil7" d="M64.53 108.91c0,0.34 -0.28,0.61 -0.62,0.61 -0.34,0 -0.61,-0.28 -0.61,-0.61 0,-0.34 0.28,-0.61 0.61,-0.61 0.34,0 0.62,0.28 0.62,0.61z"/>
   <path class="fil7" d="M67.38 108.04c0,0.34 -0.28,0.62 -0.61,0.62 -0.34,0 -0.61,-0.28 -0.61,-0.62 0,-0.34 0.28,-0.62 0.61,-0.62 0.34,0 0.61,0.28 0.61,0.62z"/>
   <path class="fil7" d="M69.68 106.82c0,0.34 -0.28,0.61 -0.62,0.61 -0.34,0 -0.61,-0.28 -0.61,-0.61 0,-0.34 0.28,-0.62 0.61,-0.62 0.34,0 0.62,0.28 0.62,0.62z"/>
   <path class="fil7" d="M66.53 101.39c0,0.34 -0.28,0.61 -0.61,0.61 -0.34,0 -0.61,-0.28 -0.61,-0.61 0,-0.34 0.27,-0.61 0.61,-0.61 0.34,0 0.61,0.28 0.61,0.61z"/>
   <path class="fil7" d="M68.31 99.85c0,0.34 -0.28,0.62 -0.62,0.62 -0.34,0 -0.61,-0.28 -0.61,-0.62 0,-0.34 0.28,-0.62 0.61,-0.62 0.34,0 0.62,0.28 0.62,0.62z"/>
   <path class="fil7" d="M68.39 105.41c0,0.34 -0.28,0.62 -0.62,0.62 -0.34,0 -0.61,-0.28 -0.61,-0.62 0,-0.34 0.28,-0.61 0.61,-0.61 0.34,0 0.62,0.28 0.62,0.61z"/>
   <path class="fil7" d="M70.66 101.66c0,0.34 -0.28,0.61 -0.61,0.61 -0.34,0 -0.62,-0.28 -0.62,-0.61 0,-0.34 0.28,-0.62 0.62,-0.62 0.34,0 0.61,0.28 0.61,0.62z"/>
   <path class="fil7" d="M68.39 111.3c0,0.34 -0.28,0.61 -0.62,0.61 -0.34,0 -0.61,-0.28 -0.61,-0.61 0,-0.34 0.28,-0.62 0.61,-0.62 0.34,0 0.62,0.28 0.62,0.62z"/>
   <path class="fil7" d="M60.95 98.75l0 19.63 5 -3.76 1.76 -3.35 1.28 -4.47 0.97 -5.24 -2.21 -1.72 -6.8 -1.09zm-0.16 19.96l0 -20.15 0.09 0.02 6.95 1.12 2.31 1.8 -1 5.34 -1.29 4.5 -1.8 3.41 -5.27 3.96z"/>
   <polygon class="fil7" points="60.87,102.11 60.86,101.95 65.65,101.45 60.82,98.72 60.9,98.58 66.17,101.56 "/>
   <polygon class="fil7" points="63.93,109 60.87,109 60.87,108.83 63.91,108.83 66.74,107.96 69.12,106.74 69.19,106.89 66.8,108.11 "/>
   <polygon class="fil7" points="63.58,113.69 63.54,113.67 60.83,112.24 60.9,112.1 63.58,113.51 67.68,111.37 66.69,108.06 66.84,108.01 67.88,111.46 67.82,111.49 "/>
   <polygon class="fil7" points="60.91,115.29 60.82,115.15 63.53,113.48 65.95,114.81 65.87,114.96 63.54,113.67 "/>
   <polygon class="fil7" points="63.6,113.74 63.43,113.73 63.84,108.91 64,108.92 "/>
   <polygon class="fil7" points="63.65,113.64 63.51,113.56 66.6,108.03 66.74,108.11 "/>
   <polygon class="fil7" points="60.93,108.84 60.8,108.74 63.1,106.11 65.73,101.55 65.87,101.63 63.24,106.21 "/>
   <polygon class="fil7" points="69,106.87 67.82,105.38 67.95,105.28 69.13,106.77 "/>
   <polygon class="fil7" points="66.74,108.27 66.59,108.21 67.79,105.41 65.78,101.3 65.92,101.31 70.03,101.58 70.02,101.74 66.05,101.49 67.97,105.41 "/>
   <polygon class="fil7" points="60.91,105.47 60.81,105.35 65.86,101.44 67.64,99.79 67.75,99.91 65.97,101.56 "/>
   <polygon class="fil8" points="34.66,90.03 35.9,90.03 35.9,84.33 41.6,84.33 41.6,83.09 34.66,83.09 "/>
   <polygon class="fil9" points="80.13,83.09 80.13,84.33 85.83,84.33 85.83,90.03 87.07,90.03 87.07,83.09 "/>
   <polygon class="fil8" points="85.83,136.69 80.13,136.69 80.13,137.93 87.07,137.93 87.07,130.99 85.83,130.99 "/>
   <polygon class="fil8" points="35.9,130.99 34.66,130.99 34.66,137.93 41.6,137.93 41.6,136.69 35.9,136.69 "/>
   <polygon class="fil8" points="30.97,87.15 32.39,87.15 32.39,80.65 38.89,80.65 38.89,79.23 30.97,79.23 "/>
   <polygon class="fil9" points="82.84,79.23 82.84,80.65 89.34,80.65 89.34,87.15 90.76,87.15 90.76,79.23 "/>
   <polygon class="fil8" points="89.34,140.37 82.84,140.37 82.84,141.79 90.76,141.79 90.76,133.87 89.34,133.87 "/>
   <polygon class="fil8" points="32.39,133.87 30.97,133.87 30.97,141.79 38.89,141.79 38.89,140.37 32.39,140.37 "/>
   <path class="fil8" d="M43.87 83.4l1.8 0 0 0.58 -1.8 0 0 -0.58zm3.6 0l1.8 0 0 0.58 -1.8 0 0 -0.58zm3.6 0l1.8 0 0 0.58 -1.8 0 0 -0.58zm3.6 0l1.8 0 0 0.58 -1.8 0 0 -0.58zm3.6 0l1.8 0 0 0.58 -1.8 0 0 -0.58zm3.6 0l1.8 0 0 0.58 -1.8 0 0 -0.58zm3.6 0l1.8 0 0 0.58 -1.8 0 0 -0.58zm3.6 0l1.8 0 0 0.58 -1.8 0 0 -0.58zm3.6 0l1.8 0 0 0.58 -1.8 0 0 -0.58zm3.6 0l1.55 0 0 0.58 -1.55 0 0 -0.58z"/>
   <path class="fil8" d="M43.87 137.05l1.8 0 0 0.58 -1.8 0 0 -0.58zm3.6 0l1.8 0 0 0.58 -1.8 0 0 -0.58zm3.6 0l1.8 0 0 0.58 -1.8 0 0 -0.58zm3.6 0l1.8 0 0 0.58 -1.8 0 0 -0.58zm3.6 0l1.8 0 0 0.58 -1.8 0 0 -0.58zm3.6 0l1.8 0 0 0.58 -1.8 0 0 -0.58zm3.6 0l1.8 0 0 0.58 -1.8 0 0 -0.58zm3.6 0l1.8 0 0 0.58 -1.8 0 0 -0.58zm3.6 0l1.8 0 0 0.58 -1.8 0 0 -0.58zm3.6 0l1.55 0 0 0.58 -1.55 0 0 -0.58z"/>
   <path class="fil8" d="M86.15 93.52l0.58 0 0 1.8 -0.58 0 0 -1.8zm0 3.6l0.58 0 0 1.8 -0.58 0 0 -1.8zm0 3.6l0.58 0 0 1.8 -0.58 0 0 -1.8zm0 3.6l0.58 0 0 1.8 -0.58 0 0 -1.8zm0 3.6l0.58 0 0 1.8 -0.58 0 0 -1.8zm0 3.6l0.58 0 0 1.8 -0.58 0 0 -1.8zm0 3.6l0.58 0 0 1.8 -0.58 0 0 -1.8zm0 3.6l0.58 0 0 1.8 -0.58 0 0 -1.8zm0 3.6l0.58 0 0 1.8 -0.58 0 0 -1.8zm0 3.6l0.58 0 0 1.55 -0.58 0 0 -1.55z"/>
   <path class="fil8" d="M34.93 93.52l0.58 0 0 1.8 -0.58 0 0 -1.8zm0 3.6l0.58 0 0 1.8 -0.58 0 0 -1.8zm0 3.6l0.58 0 0 1.8 -0.58 0 0 -1.8zm0 3.6l0.58 0 0 1.8 -0.58 0 0 -1.8zm0 3.6l0.58 0 0 1.8 -0.58 0 0 -1.8zm0 3.6l0.58 0 0 1.8 -0.58 0 0 -1.8zm0 3.6l0.58 0 0 1.8 -0.58 0 0 -1.8zm0 3.6l0.58 0 0 1.8 -0.58 0 0 -1.8zm0 3.6l0.58 0 0 1.8 -0.58 0 0 -1.8zm0 3.6l0.58 0 0 1.55 -0.58 0 0 -1.55z"/>
   <path class="fil8" d="M60.11 91.44l-0.14 -3.57c0.3,-0.01 0.6,-0.01 0.9,-0.02 0.25,0 0.5,0 0.75,0.01l-0.12 3.57c-0.22,-0.01 -0.44,-0.01 -0.67,-0.01 -0.25,0 -0.49,0.01 -0.73,0.02zm4.16 0.29c-0.45,-0.08 -0.92,-0.15 -1.38,-0.2l0.38 -3.55c0.55,0.06 1.1,0.14 1.64,0.23l-0.63 3.52zm-6.93 0.02l-0.66 -3.51c0.54,-0.1 1.09,-0.18 1.64,-0.24l0.4 3.55c-0.46,0.05 -0.92,0.12 -1.38,0.21zm9.63 0.67c-0.44,-0.15 -0.88,-0.28 -1.33,-0.4l0.89 -3.46c0.54,0.14 1.07,0.3 1.59,0.47l-1.14 3.38zm-12.32 0.04l-1.16 -3.38c0.52,-0.18 1.05,-0.34 1.59,-0.48l0.91 3.46c-0.45,0.12 -0.89,0.25 -1.33,0.4zm14.89 1.04c-0.41,-0.21 -0.84,-0.41 -1.26,-0.59l1.39 -3.29c0.51,0.21 1.02,0.45 1.5,0.7l-1.63 3.18zm-17.45 0.05l-1.65 -3.17c0.49,-0.25 0.99,-0.49 1.49,-0.71l1.41 3.28c-0.43,0.18 -0.85,0.38 -1.26,0.6zm19.83 1.39c-0.38,-0.27 -0.77,-0.53 -1.16,-0.77l1.85 -3.05c0.47,0.28 0.93,0.59 1.38,0.91l-2.07 2.91zm-22.2 0.07l-2.09 -2.9c0.45,-0.32 0.91,-0.63 1.38,-0.92l1.87 3.05c-0.39,0.24 -0.78,0.5 -1.16,0.77zm24.35 1.71c-0.33,-0.32 -0.68,-0.63 -1.04,-0.93l2.28 -2.75c0.42,0.35 0.84,0.72 1.24,1.1l-2.47 2.58zm-26.49 0.08l-2.49 -2.57c0.4,-0.38 0.81,-0.76 1.23,-1.11l2.29 2.74c-0.35,0.3 -0.7,0.61 -1.04,0.93zm28.36 1.99c-0.29,-0.37 -0.59,-0.73 -0.9,-1.07l2.65 -2.4c0.37,0.41 0.72,0.83 1.06,1.27l-2.82 2.2zm-30.21 0.09l-2.83 -2.18c0.34,-0.44 0.69,-0.86 1.06,-1.27l2.67 2.38c-0.31,0.35 -0.61,0.71 -0.89,1.07zm31.76 2.23c-0.23,-0.41 -0.48,-0.8 -0.73,-1.19l2.97 -1.98c0.3,0.45 0.59,0.93 0.87,1.41l-3.11 1.77zm-33.3 0.1l-3.12 -1.75c0.27,-0.48 0.56,-0.96 0.86,-1.41l2.98 1.97c-0.25,0.39 -0.5,0.79 -0.72,1.19zm34.49 2.41c-0.17,-0.43 -0.35,-0.86 -0.55,-1.28l3.23 -1.53c0.24,0.5 0.46,1.01 0.65,1.52l-3.33 1.29zm-35.67 0.11l-3.34 -1.27c0.19,-0.51 0.41,-1.03 0.65,-1.53l3.24 1.51c-0.2,0.42 -0.38,0.85 -0.54,1.29zm36.48 2.55c-0.1,-0.45 -0.22,-0.91 -0.36,-1.35l3.42 -1.04c0.16,0.52 0.3,1.06 0.42,1.6l-3.49 0.79zm-37.27 0.12l-3.49 -0.77c0.12,-0.54 0.26,-1.07 0.41,-1.6l3.43 1.02c-0.13,0.45 -0.25,0.9 -0.35,1.35zm37.69 2.63c-0.03,-0.46 -0.09,-0.93 -0.16,-1.38l3.53 -0.53c0.08,0.54 0.14,1.1 0.19,1.65l-3.56 0.27zm-38.08 0.12l-3.57 -0.25c0.04,-0.55 0.1,-1.1 0.18,-1.65l3.54 0.51c-0.07,0.46 -0.12,0.92 -0.15,1.39zm41.65 3.01l-3.56 -0.26c0.03,-0.46 0.05,-0.93 0.05,-1.4l0 -0.07 3.57 -0.03 0 0.1c0,0.55 -0.02,1.1 -0.06,1.65zm-45.21 0.05c-0.04,-0.55 -0.06,-1.1 -0.06,-1.65l3.57 -0.01c0,0.47 0.02,0.93 0.05,1.39l-3.56 0.27zm44.74 3.22l-3.49 -0.77c0.1,-0.46 0.18,-0.92 0.25,-1.37l3.54 0.52c-0.08,0.54 -0.18,1.09 -0.3,1.63zm-44.25 0.05c-0.12,-0.54 -0.22,-1.09 -0.3,-1.63l3.54 -0.52c0.07,0.46 0.15,0.92 0.25,1.37l-3.49 0.78zm43.3 3.13l-3.34 -1.28c0.17,-0.43 0.32,-0.88 0.45,-1.32l3.42 1.03c-0.16,0.53 -0.34,1.05 -0.53,1.57zm-42.34 0.04c-0.2,-0.52 -0.38,-1.04 -0.54,-1.57l3.42 -1.03c0.13,0.44 0.28,0.88 0.45,1.32l-3.33 1.28zm40.93 2.96l-3.12 -1.75c0.23,-0.4 0.44,-0.82 0.64,-1.24l3.24 1.52c-0.23,0.5 -0.49,0.99 -0.76,1.47zm-39.52 0.04c-0.27,-0.48 -0.53,-0.97 -0.76,-1.47l3.23 -1.52c0.2,0.42 0.41,0.83 0.64,1.24l-3.11 1.76zm37.7 2.72l-2.83 -2.18c0.29,-0.37 0.56,-0.75 0.81,-1.14l2.98 1.97c-0.3,0.45 -0.63,0.91 -0.96,1.34zm-35.87 0.03c-0.34,-0.43 -0.66,-0.88 -0.97,-1.34l2.97 -1.98c0.26,0.39 0.53,0.77 0.81,1.13l-2.82 2.19zm33.66 2.43l-2.48 -2.57c0.33,-0.32 0.66,-0.66 0.97,-1l2.66 2.39c-0.37,0.41 -0.75,0.81 -1.15,1.19zm-31.45 0.02c-0.4,-0.38 -0.78,-0.78 -1.15,-1.19l2.66 -2.39c0.31,0.34 0.64,0.68 0.97,1l-2.48 2.58zm28.91 2.09l-2.08 -2.9c0.37,-0.27 0.75,-0.56 1.1,-0.85l2.29 2.75c-0.42,0.35 -0.86,0.69 -1.31,1.01zm-26.37 0.02c-0.45,-0.32 -0.89,-0.66 -1.31,-1.01l2.28 -2.75c0.35,0.3 0.73,0.58 1.11,0.85l-2.08 2.91zm23.55 1.7l-1.64 -3.18c0.41,-0.21 0.82,-0.44 1.21,-0.68l1.87 3.05c-0.47,0.29 -0.95,0.56 -1.44,0.81zm-20.72 0.02c-0.49,-0.25 -0.98,-0.52 -1.44,-0.81l1.86 -3.05c0.39,0.24 0.8,0.47 1.22,0.68l-1.63 3.18zm17.68 1.28l-1.16 -3.38c0.44,-0.15 0.88,-0.32 1.3,-0.5l1.4 3.29c-0.5,0.22 -1.02,0.41 -1.54,0.59zm-14.63 0.02c-0.52,-0.18 -1.04,-0.38 -1.55,-0.59l1.4 -3.29c0.42,0.18 0.86,0.35 1.3,0.5l-1.15 3.38zm11.43 0.82l-0.65 -3.51c0.46,-0.08 0.91,-0.19 1.36,-0.3l0.91 3.46c-0.53,0.14 -1.07,0.26 -1.62,0.36zm-8.23 0.01c-0.54,-0.1 -1.08,-0.22 -1.62,-0.36l0.9 -3.46c0.45,0.12 0.91,0.22 1.36,0.3l-0.64 3.52zm4.94 0.35l-0.13 -3.57c0.46,-0.02 0.93,-0.05 1.39,-0.1l0.39 3.55c-0.55,0.06 -1.1,0.1 -1.65,0.12zm-1.65 0c-0.55,-0.02 -1.1,-0.06 -1.65,-0.12l0.38 -3.55c0.46,0.05 0.93,0.08 1.39,0.1l-0.12 3.57z"/>
   <path class="fil7" d="M60.07 105.64c-0.16,-0 -0.29,-0.12 -0.3,-0.27 -0,-0.15 0.09,-0.28 0.25,-0.31 0.15,-0.02 0.31,0.09 0.32,0.26 0.01,0.17 -0.11,0.31 -0.27,0.31z"/>
   <polygon class="fil3" points="92.47,93.49 91.2,93.49 91.2,92.21 90.32,92.21 90.32,93.49 89.04,93.49 89.04,94.37 90.32,94.37 90.32,95.65 91.2,95.65 91.2,94.37 92.47,94.37 "/>
   <polygon class="fil3" points="30.97,125.23 29.7,125.23 29.7,123.96 28.81,123.96 28.81,125.23 27.54,125.23 27.54,126.12 28.81,126.12 28.81,127.39 29.7,127.39 29.7,126.12 30.97,126.12 "/>
   <polygon class="fil3" points="94.63,115.76 93.65,115.76 93.65,114.77 92.96,114.77 92.96,115.76 91.97,115.76 91.97,116.44 92.96,116.44 92.96,117.43 93.65,117.43 93.65,116.44 94.63,116.44 "/>
   <polygon class="fil3" points="28.87,95.93 27.88,95.93 27.88,94.95 27.19,94.95 27.19,95.93 26.23,95.93 26.23,96.62 27.19,96.62 27.19,97.61 27.88,97.61 27.88,96.62 28.87,96.62 "/>
   <polygon class="fil3" points="74.19,77.56 73.2,77.56 73.2,76.57 72.52,76.57 72.52,77.56 71.53,77.56 71.53,78.24 72.52,78.24 72.52,79.23 73.2,79.23 73.2,78.24 74.19,78.24 "/>
   <path class="fil1" d="M18.44 64.43l88.54 0 0 -7.77c0,-5.21 -4.23,-9.45 -9.44,-9.45l-69.66 0c-5.21,0 -9.44,4.23 -9.44,9.45l0 7.77z"/>
   <path class="fil10" d="M28.27 53.49c1.29,0 2.33,1.04 2.33,2.33 0,1.29 -1.04,2.33 -2.33,2.33 -1.29,0 -2.33,-1.04 -2.33,-2.33 0,-1.29 1.04,-2.33 2.33,-2.33z"/>
   <path class="fil10" d="M35.66 53.49c1.29,0 2.33,1.04 2.33,2.33 0,1.29 -1.04,2.33 -2.33,2.33 -1.29,0 -2.33,-1.04 -2.33,-2.33 0,-1.29 1.04,-2.33 2.33,-2.33z"/>
   <path class="fil10" d="M43.28 53.49c1.29,0 2.33,1.04 2.33,2.33 0,1.29 -1.04,2.33 -2.33,2.33 -1.29,0 -2.33,-1.04 -2.33,-2.33 0,-1.29 1.04,-2.33 2.33,-2.33z"/>
   <path class="fil11" d="M162.22 63.83c5.59,0 9.67,5.15 8.87,12.14 -0.56,4.95 -6.61,10.11 -12.59,12.58 -5.17,2.14 -5.19,-5.68 -5.19,-12.71 0,-7.03 3.32,-12.01 8.91,-12.01z"/>
   <path class="fil11" d="M157.96 101c5.38,12.46 -30.65,52.37 -42.66,51.35 -12.01,-1.03 -29.41,-57.51 -29.41,-57.51l-5.06 -6.63 13.35 1.69 -0.93 1.81c0,0 18.83,32.78 23.95,35.24 2.54,1.22 9.18,-18.84 23.26,-26.82 15.35,-8.69 14.43,-6.25 17.5,0.88z"/>
   <path class="fil12" d="M129.86 109.47c2.98,0.53 5.92,1.8 7.28,4.02 1.29,2.1 0.87,4.61 1.48,6.91 0.94,3.5 3.46,6.91 6.76,8.66 8.72,-10.72 15.06,-22.31 12.58,-28.06 -3.07,-7.13 -2.15,-9.57 -17.5,-0.88 -4.15,2.35 -7.65,5.76 -10.6,9.35z"/>
   <path class="fil12" d="M165.79 92.1c18.86,1.66 25.24,2.08 24.23,36.95 -1.02,35.57 -47.75,34.32 -47.75,34.32 0,0 6.86,-22.25 1.35,-41.21 -6.66,-22.9 8.84,-31.23 22.16,-30.05z"/>
   <path class="fil13" d="M119.68 83.68c0,-3.43 -2.79,-6.22 -6.22,-6.22l-35.36 0c-3.43,0 -6.22,2.79 -6.22,6.22 0,3.43 2.78,6.22 6.22,6.22l35.36 0c3.43,0 6.22,-2.79 6.22,-6.22z"/>
   <path class="fil14" d="M80.49 84.59c0,-0.28 -0.07,-0.5 -0.21,-0.65 -0.15,-0.15 -0.35,-0.23 -0.62,-0.23 -0.26,0 -0.48,0.08 -0.66,0.23 -0.18,0.16 -0.27,0.33 -0.27,0.54 0,0.3 0.08,0.55 0.25,0.75 0.16,0.2 0.38,0.31 0.66,0.31 0.26,0 0.46,-0.08 0.61,-0.24 0.15,-0.16 0.23,-0.4 0.23,-0.71zm0.63 -3.62l0 0.92c-0.25,-0.05 -0.47,-0.07 -0.67,-0.07 -0.59,0 -1.03,0.13 -1.31,0.38 -0.28,0.25 -0.44,0.68 -0.48,1.28l0.05 0c0.24,-0.41 0.64,-0.62 1.21,-0.62 0.48,0 0.87,0.15 1.15,0.46 0.28,0.3 0.42,0.72 0.42,1.25 0,0.58 -0.16,1.04 -0.49,1.37 -0.33,0.34 -0.78,0.5 -1.34,0.5 -0.4,0 -0.75,-0.1 -1.05,-0.3 -0.3,-0.2 -0.52,-0.48 -0.68,-0.85 -0.15,-0.37 -0.23,-0.82 -0.23,-1.34 0,-1 0.22,-1.75 0.68,-2.27 0.46,-0.51 1.12,-0.77 2.02,-0.77 0.28,0 0.52,0.02 0.72,0.05z"/>
   <path class="fil14" d="M86.54 83.53l0 0.03c0.86,0.11 1.29,0.54 1.29,1.29 0,0.49 -0.18,0.88 -0.55,1.16 -0.37,0.28 -0.9,0.42 -1.58,0.42 -0.59,0 -1.1,-0.1 -1.54,-0.29l0 -0.96c0.22,0.11 0.46,0.19 0.72,0.26 0.26,0.06 0.51,0.09 0.76,0.09 0.39,0 0.68,-0.06 0.87,-0.18 0.19,-0.12 0.29,-0.31 0.29,-0.56 0,-0.28 -0.11,-0.49 -0.33,-0.6 -0.22,-0.12 -0.56,-0.18 -1.04,-0.18l-0.45 0 0 -0.84 0.43 0c0.42,0 0.73,-0.05 0.95,-0.16 0.22,-0.11 0.33,-0.3 0.33,-0.58 0,-0.2 -0.07,-0.35 -0.2,-0.46 -0.13,-0.11 -0.33,-0.16 -0.61,-0.16 -0.2,0 -0.4,0.03 -0.59,0.09 -0.19,0.06 -0.4,0.16 -0.62,0.3l-0.51 -0.77c0.57,-0.35 1.15,-0.52 1.78,-0.52 0.55,0 0.98,0.12 1.29,0.35 0.31,0.23 0.47,0.54 0.47,0.94 0,0.33 -0.1,0.62 -0.3,0.85 -0.2,0.23 -0.49,0.39 -0.86,0.48z"/>
   <path class="fil14" d="M92.34 83.99c-0.56,0.24 -0.84,0.55 -0.84,0.94 0,0.21 0.08,0.38 0.23,0.5 0.15,0.12 0.37,0.18 0.65,0.18 0.29,0 0.51,-0.06 0.67,-0.18 0.16,-0.12 0.23,-0.28 0.23,-0.5 0,-0.16 -0.06,-0.31 -0.19,-0.46 -0.13,-0.14 -0.35,-0.29 -0.65,-0.43l-0.11 -0.06zm0.06 -0.9c0.27,-0.11 0.46,-0.23 0.56,-0.36 0.1,-0.12 0.16,-0.27 0.16,-0.43 0,-0.17 -0.06,-0.31 -0.2,-0.41 -0.13,-0.1 -0.31,-0.15 -0.54,-0.15 -0.21,0 -0.38,0.05 -0.52,0.15 -0.13,0.1 -0.2,0.24 -0.2,0.41 0,0.16 0.05,0.3 0.16,0.43 0.12,0.12 0.3,0.24 0.56,0.36zm0.75 0.44c0.4,0.21 0.68,0.43 0.86,0.66 0.17,0.23 0.27,0.5 0.27,0.78 0,0.44 -0.17,0.79 -0.52,1.06 -0.35,0.27 -0.8,0.4 -1.36,0.4 -0.59,0 -1.06,-0.13 -1.39,-0.38 -0.33,-0.25 -0.49,-0.61 -0.49,-1.06 0,-0.31 0.09,-0.59 0.26,-0.82 0.16,-0.24 0.43,-0.44 0.78,-0.61 -0.58,-0.36 -0.87,-0.81 -0.87,-1.35 0,-0.4 0.16,-0.71 0.48,-0.95 0.32,-0.23 0.73,-0.35 1.24,-0.35 0.51,0 0.92,0.12 1.23,0.35 0.31,0.23 0.48,0.55 0.48,0.96 0,0.56 -0.33,0.99 -0.97,1.3z"/>
   <path class="fil14" d="M100.72 86.36l-3.75 0 0 -0.79 1.39 -1.38c0.52,-0.52 0.84,-0.87 0.97,-1.07 0.13,-0.2 0.2,-0.41 0.2,-0.62 0,-0.2 -0.06,-0.36 -0.19,-0.48 -0.12,-0.12 -0.29,-0.17 -0.5,-0.17 -0.21,0 -0.42,0.04 -0.62,0.13 -0.2,0.08 -0.43,0.23 -0.69,0.43l-0.58 -0.72c0.28,-0.21 0.5,-0.36 0.67,-0.45 0.16,-0.09 0.35,-0.17 0.57,-0.22 0.21,-0.06 0.44,-0.09 0.68,-0.09 0.51,0 0.91,0.14 1.22,0.41 0.31,0.28 0.47,0.63 0.47,1.06 0,0.26 -0.05,0.51 -0.15,0.75 -0.1,0.23 -0.25,0.47 -0.46,0.71 -0.2,0.24 -0.52,0.56 -0.94,0.95l-0.63 0.59 0 0.04 2.34 0 0 0.93z"/>
   <path class="fil14" d="M104.31 82.73c0,0.6 0.27,0.9 0.82,0.9 0.27,0 0.49,-0.08 0.67,-0.23 0.18,-0.16 0.27,-0.33 0.27,-0.53 0,-0.28 -0.08,-0.53 -0.25,-0.74 -0.17,-0.21 -0.39,-0.31 -0.66,-0.31 -0.26,0 -0.47,0.08 -0.62,0.24 -0.15,0.16 -0.22,0.38 -0.22,0.68zm-0.62 3.66l0 -0.92c0.2,0.05 0.42,0.07 0.67,0.07 0.6,0 1.04,-0.13 1.33,-0.39 0.29,-0.26 0.44,-0.7 0.46,-1.3l-0.05 0c-0.14,0.24 -0.3,0.41 -0.5,0.5 -0.19,0.09 -0.44,0.14 -0.72,0.14 -0.49,0 -0.87,-0.15 -1.15,-0.46 -0.28,-0.31 -0.42,-0.74 -0.42,-1.28 0,-0.57 0.16,-1.01 0.5,-1.34 0.33,-0.33 0.77,-0.49 1.33,-0.49 0.61,0 1.08,0.22 1.43,0.65 0.35,0.43 0.53,1.04 0.53,1.84 0,0.99 -0.23,1.74 -0.68,2.26 -0.45,0.52 -1.12,0.78 -2.01,0.78 -0.29,0 -0.53,-0.02 -0.72,-0.05z"/>
   <path class="fil14" d="M111.64 85.54c0.3,0 0.52,-0.15 0.65,-0.44 0.13,-0.29 0.2,-0.76 0.2,-1.42 0,-0.67 -0.06,-1.15 -0.2,-1.44 -0.13,-0.29 -0.34,-0.43 -0.65,-0.43 -0.22,0 -0.39,0.07 -0.51,0.21 -0.12,0.14 -0.21,0.34 -0.26,0.61 -0.05,0.27 -0.08,0.62 -0.08,1.06 0,0.65 0.07,1.13 0.2,1.42 0.13,0.29 0.35,0.44 0.65,0.44zm0 0.9c-0.62,0 -1.08,-0.23 -1.4,-0.7 -0.32,-0.46 -0.47,-1.15 -0.47,-2.05 0,-0.93 0.16,-1.63 0.47,-2.09 0.31,-0.46 0.78,-0.69 1.4,-0.69 1.25,0 1.88,0.92 1.88,2.76 0,0.96 -0.16,1.66 -0.46,2.1 -0.31,0.44 -0.78,0.66 -1.41,0.66z"/>
   <path class="fil15" d="M91.34 89.89c-0.06,-0.69 1.44,-3.09 2.06,-3.46 0.6,-0.35 1.61,0.55 1.68,1.24 0.06,0.69 -0.7,2.55 -1.32,2.92 -0.62,0.37 -2.36,-0.01 -2.42,-0.7z"/>
   <path class="fil16" d="M162.82 63.83c0,0 1.22,2.7 0.34,4.83 -0.23,0.56 -0.78,0.97 -1.22,1.38 -1.14,1.03 -2.56,1.58 -3.79,2.46 -0.37,0.26 -1.15,0.76 -1.1,1.29 0.06,0.63 1.29,0.33 1.63,0.23 1.33,-0.4 2.38,-0.87 3.09,0.21 0.73,1.1 0.15,3.82 -0.61,5.66 -0.13,0.33 -0.74,1.71 -0.05,1.85 0.45,0.09 0.84,-0.43 1.09,-0.72 0.71,-0.86 0.89,-3.79 1.59,-4.66 0.33,-0.4 0.83,-0.86 1.29,-0.14 1.43,2.24 -0.01,4.54 -1.61,5.31 -1.92,0.93 -2.17,5.61 -2.17,5.61 0,0 4.17,1.31 5.46,-2.05 2.29,0.8 6.63,0.25 6.6,-4.16 4.11,-1.71 6,-8.16 2.14,-10.39 0.56,-0.27 0.9,-1.07 1.05,-1.62 1.58,-5.56 -4.93,-11.81 -11.06,-8.32 -1.35,0.77 -2.34,1.76 -2.7,3.22z"/>
   <path class="fil1" d="M105.18 155.13c11.53,0 20.87,9.34 20.87,20.87 0,11.41 -9.16,20.69 -20.54,20.87l-0.67 0c-11.37,-0.18 -20.54,-9.45 -20.54,-20.87 0,-11.53 9.34,-20.87 20.87,-20.87z"/>
   <path class="fil10" d="M92.95 177.82l6.91 8.62c0.58,0.72 1.46,1.12 2.37,1.09 0.92,-0.03 1.77,-0.49 2.29,-1.25l12.9 -18.6c0.91,-1.32 0.59,-3.14 -0.73,-4.05 -1.32,-0.92 -3.13,-0.59 -4.05,0.73l-10.68 15.39 -4.47 -5.57c-1,-1.25 -2.84,-1.46 -4.09,-0.45 -1.26,1.01 -1.46,2.84 -0.46,4.1z"/>
   <path class="fil11" d="M180.84 96.08c13.52,1.19 33.23,48.79 24.92,61.93 -8.32,13.14 -60.79,14.5 -74.81,16.94 -10.65,9.3 -15,-2.27 -13.48,-2.29 6.78,-0.07 6.6,-5.51 6.6,-5.51 0,0 0.11,-0.57 -1.81,-2.88 2.11,-1.49 6.84,2.81 6.84,2.81 0,0 50.61,-19.47 55.2,-22.81 2.28,-1.66 -11.97,-17.04 -12.55,-33.21 -0.2,-5.54 1.36,-15.66 9.09,-14.98z"/>
   <path class="fil12" d="M175.02 124.74c1.88,-2.33 4.35,-4.26 6.92,-4.41 2.46,-0.14 4.47,1.43 6.79,1.98 3.84,0.91 8.47,0.12 11.63,-2.42 -5.53,-12.57 -13.2,-23.26 -19.51,-23.81 -7.73,-0.68 -9.29,9.44 -9.09,14.98 0.17,4.74 1.51,9.4 3.27,13.68z"/>
   <g>
    <path class="fil8" d="M49.69 145.06c-0.17,0 -0.29,0.06 -0.29,0.19 0,0.42 1.23,0.19 1.23,1.02 0,0.45 -0.39,0.69 -0.9,0.69 -0.38,0 -0.76,-0.14 -1.02,-0.37l0.21 -0.42c0.24,0.21 0.57,0.35 0.82,0.35 0.21,0 0.34,-0.08 0.34,-0.22 0,-0.44 -1.23,-0.18 -1.23,-1 0,-0.42 0.36,-0.68 0.89,-0.68 0.32,0 0.65,0.1 0.88,0.25l-0.2 0.43c-0.24,-0.14 -0.53,-0.24 -0.72,-0.24z"/>
    <path class="fil8" d="M52.06 145.08c-0.4,0 -0.7,0.31 -0.7,0.71 0,0.4 0.31,0.71 0.7,0.71 0.21,0 0.43,-0.11 0.6,-0.27l0.31 0.33c-0.24,0.25 -0.6,0.41 -0.93,0.41 -0.69,0 -1.21,-0.51 -1.21,-1.18 0,-0.67 0.53,-1.17 1.23,-1.17 0.33,0 0.68,0.15 0.91,0.38l-0.3 0.37c-0.16,-0.18 -0.39,-0.3 -0.6,-0.3z"/>
    <path class="fil8" d="M54.61 146.08l-0.36 -0.9 -0.37 0.9 0.73 0zm0.17 0.42l-1.07 0 -0.18 0.45 -0.54 0 1 -2.31 0.54 0 0.99 2.31 -0.56 0 -0.18 -0.45z"/>
    <polygon class="fil8" points="56.23,144.64 57.35,146.13 57.35,144.64 57.84,144.64 57.84,146.95 57.37,146.95 56.25,145.47 56.25,146.95 55.76,146.95 55.76,144.64 "/>
    <polygon class="fil8" points="58.83,144.64 59.95,146.13 59.95,144.64 60.44,144.64 60.44,146.95 59.97,146.95 58.85,145.47 58.85,146.95 58.35,146.95 58.35,144.64 "/>
    <polygon class="fil8" points="60.95,144.64 61.47,144.64 61.47,146.95 60.95,146.95 "/>
    <polygon class="fil8" points="62.46,144.64 63.58,146.13 63.58,144.64 64.07,144.64 64.07,146.95 63.6,146.95 62.48,145.47 62.48,146.95 61.98,146.95 61.98,144.64 "/>
    <path class="fil8" d="M66.13 145.79l0.45 0 0 0.89c-0.24,0.18 -0.62,0.3 -0.94,0.3 -0.7,0 -1.23,-0.51 -1.23,-1.18 0,-0.67 0.54,-1.17 1.26,-1.17 0.34,0 0.69,0.13 0.93,0.34l-0.29 0.37c-0.17,-0.16 -0.41,-0.26 -0.63,-0.26 -0.41,0 -0.72,0.31 -0.72,0.72 0,0.41 0.32,0.72 0.73,0.72 0.14,0 0.3,-0.05 0.45,-0.12l0 -0.61z"/>
    <path class="fil8" d="M67.42 146.71c0,0.15 -0.11,0.26 -0.25,0.26 -0.14,0 -0.25,-0.11 -0.25,-0.26 0,-0.16 0.11,-0.26 0.25,-0.26 0.15,0 0.25,0.11 0.25,0.26z"/>
    <path class="fil8" d="M68.19 146.71c0,0.15 -0.11,0.26 -0.25,0.26 -0.14,0 -0.25,-0.11 -0.25,-0.26 0,-0.16 0.11,-0.26 0.25,-0.26 0.15,0 0.25,0.11 0.25,0.26z"/>
    <path class="fil8" d="M68.97 146.71c0,0.15 -0.11,0.26 -0.25,0.26 -0.14,0 -0.25,-0.11 -0.25,-0.26 0,-0.16 0.11,-0.26 0.25,-0.26 0.15,0 0.25,0.11 0.25,0.26z"/>
    <path class="fil8" d="M71.63 146.23c0,0.44 -0.36,0.74 -0.93,0.74 -0.33,0 -0.66,-0.11 -0.88,-0.27l0.21 -0.42c0.18,0.18 0.41,0.27 0.63,0.27 0.29,0 0.46,-0.13 0.46,-0.33 0,-0.21 -0.17,-0.32 -0.46,-0.32l-0.37 0 0 -0.29 0.59 -0.57 -0.94 0 0 -0.42 1.57 0 0 0.31 -0.67 0.63 0.13 0.02c0.39,0.05 0.66,0.27 0.66,0.63z"/>
    <path class="fil8" d="M72.82 145.49c0.53,0 0.88,0.29 0.88,0.7 0,0.48 -0.36,0.79 -0.92,0.79 -0.3,0 -0.65,-0.11 -0.89,-0.28l0.21 -0.41c0.18,0.18 0.41,0.27 0.62,0.27 0.27,0 0.43,-0.12 0.43,-0.34 0,-0.19 -0.15,-0.31 -0.42,-0.31 -0.13,0 -0.49,0.01 -0.64,0.02l0 -1.28 1.52 0 0 0.43 -1.04 0 0 0.41 0.26 0z"/>
    <path class="fil8" d="M76.12 146.27c0,0.26 0.11,0.41 0.3,0.41 0.19,0 0.31,-0.15 0.31,-0.41 0,-0.26 -0.11,-0.41 -0.31,-0.41 -0.19,0 -0.3,0.16 -0.3,0.41zm0.94 0c0,0.43 -0.24,0.69 -0.63,0.69 -0.39,0 -0.63,-0.26 -0.63,-0.69 0,-0.43 0.24,-0.7 0.63,-0.7 0.39,0 0.63,0.27 0.63,0.7zm-0.49 -1.62l-1.66 2.31 -0.48 0 1.67 -2.31 0.47 0zm-2.28 0.69c0,0.26 0.11,0.41 0.3,0.41 0.19,0 0.31,-0.16 0.31,-0.41 0,-0.26 -0.11,-0.41 -0.31,-0.41 -0.19,0 -0.3,0.15 -0.3,0.41zm0.94 0c0,0.43 -0.24,0.7 -0.63,0.7 -0.39,0 -0.63,-0.26 -0.63,-0.7 0,-0.43 0.24,-0.7 0.63,-0.7 0.39,0 0.63,0.27 0.63,0.7z"/>
    <polygon class="fil8" points="52.08,148.47 53.06,148.47 53.06,151.24 52.08,151.24 "/>
    <polygon class="fil8" points="53.95,148.47 54.94,148.47 54.94,151.24 53.95,151.24 "/>
    <polygon class="fil8" points="55.83,148.47 56.81,148.47 56.81,151.24 55.83,151.24 "/>
    <polygon class="fil8" points="57.7,148.47 58.68,148.47 58.68,151.24 57.7,151.24 "/>
    <polygon class="fil17" points="60.56,151.24 60.56,148.47 59.57,148.47 59.57,151.24 "/>
    <polygon class="fil18" points="62.43,151.24 62.43,148.47 61.45,148.47 61.45,151.24 "/>
    <polygon class="fil19" points="64.31,148.47 63.32,148.47 63.32,151.24 64.31,151.24 "/>
    <polygon class="fil20" points="66.18,148.47 65.2,148.47 65.2,151.24 66.18,151.24 "/>
    <polygon class="fil21" points="68.05,148.47 67.07,148.47 67.07,151.24 68.05,151.24 "/>
    <polygon class="fil22" points="69.93,148.47 68.94,148.47 68.94,151.24 69.93,151.24 "/>
    <polygon class="fil23" points="71.8,148.47 70.82,148.47 70.82,151.24 71.8,151.24 "/>
    <polygon class="fil24" points="73.68,148.47 72.69,148.47 72.69,151.24 73.68,151.24 "/>
   </g>
   <path class="fil1" d="M217.18 118.67c0.79,-1.61 1.12,-3.58 1.16,-5.68 0.05,-2.7 -0.32,-5.59 -0.52,-7.97 -0.15,-2.12 -0.42,-4.22 -0.76,-6.3 -0.34,-2.09 -0.78,-4.15 -1.31,-6.2 -0.69,-2.71 -1.55,-5.39 -2.61,-8.04 -2.48,-6.16 -6.07,-12.16 -11.18,-17.96 -0.55,-0.59 -1.47,-0.62 -2.06,-0.07 -0.59,0.55 -0.62,1.47 -0.07,2.06 5.22,5.29 9.09,10.82 11.71,16.65 1.14,2.53 2.06,5.11 2.74,7.74 0.52,2 0.89,4.02 1.15,6.06 0.26,2.03 0.39,4.08 0.44,6.15 0.03,2.31 0.23,5.13 -0.02,7.73 -0.16,1.66 -0.51,3.21 -1.24,4.43 -0.39,0.71 -0.12,1.59 0.58,1.97 0.71,0.39 1.59,0.12 1.98,-0.58z"/>
  </g>
 </g>
</svg>
