<?xml version="1.0" encoding="UTF-8"?>
<!DOCTYPE svg PUBLIC "-//W3C//DTD SVG 1.1//EN" "http://www.w3.org/Graphics/SVG/1.1/DTD/svg11.dtd">
<!-- Creator: CorelDRAW -->
<svg xmlns="http://www.w3.org/2000/svg" xml:space="preserve" width="17.3444mm" height="17.2795mm" version="1.1" style="shape-rendering:geometricPrecision; text-rendering:geometricPrecision; image-rendering:optimizeQuality; fill-rule:evenodd; clip-rule:evenodd"
viewBox="0 0 38.64 38.5"
 xmlns:xlink="http://www.w3.org/1999/xlink"
 xmlns:xodm="http://www.corel.com/coreldraw/odm/2003">
 <defs>
  <style type="text/css">
   <![CDATA[
    .fil8 {fill:black}
    .fil10 {fill:black}
    .fil2 {fill:#21AD62}
    .fil11 {fill:#2CBD70}
    .fil7 {fill:#39DB84}
    .fil6 {fill:#40DE8A}
    .fil5 {fill:#46D98A}
    .fil3 {fill:#4BE894}
    .fil9 {fill:#4FE394}
    .fil4 {fill:#53F19C}
    .fil1 {fill:#7CFFB0}
    .fil0 {fill:black;fill-rule:nonzero}
   ]]>
  </style>
 </defs>
 <g id="Layer_x0020_1">
  <metadata id="CorelCorpID_0Corel-Layer"/>
  <g id="_105553315575072">
   <path class="fil0" d="M19.13 38.33c10.57,0 19.13,-8.57 19.13,-19.13 0,-10.57 -8.57,-19.13 -19.13,-19.13 -10.57,0 -19.13,8.57 -19.13,19.13 0,10.57 8.57,19.13 19.13,19.13z"/>
   <path class="fil1" d="M19.05 0.69c10.44,0 18.9,8.47 18.9,18.9 0,10.44 -8.46,18.9 -18.9,18.9 -10.44,0 -18.9,-8.47 -18.9,-18.9 0,-10.44 8.46,-18.9 18.9,-18.9zm0 1.47c9.63,0 17.44,7.81 17.44,17.44 0,9.63 -7.81,17.44 -17.44,17.44 -9.63,0 -17.44,-7.81 -17.44,-17.44 0,-9.63 7.81,-17.44 17.44,-17.44z"/>
   <path class="fil2" d="M19.39 0c10.63,0 19.25,8.62 19.25,19.25 0,10.63 -8.62,19.25 -19.25,19.25 -10.63,0 -19.25,-8.62 -19.25,-19.25 0,-10.63 8.62,-19.25 19.25,-19.25zm0 1.49c9.81,0 17.76,7.95 17.76,17.76 0,9.81 -7.95,17.76 -17.76,17.76 -9.81,0 -17.76,-7.95 -17.76,-17.76 0,-9.81 7.95,-17.76 17.76,-17.76z"/>
   <path class="fil3" d="M4.16 11.09c0.81,0.38 0.59,2.91 0.5,3.57 -0.16,1.19 -0.44,2.42 -0.73,3.56 -0.72,2.83 -1.26,5.83 -0.85,8.4 0.88,2 2.12,3.79 3.64,5.31 0.63,0.34 1.35,0.63 2.18,0.85 0.88,0.24 2.88,0.58 3.88,0.47l-0 -0.09c-0.37,-0.28 -0.74,-0.79 -0.99,-1.2 -0.95,-1.52 -1.06,-3.34 -0.21,-4.88 0.25,-0.45 0.52,-0.87 0.9,-1.19 0.87,-0.74 0.98,-1.02 2.28,-1.87 0.41,-0.27 0.81,-0.54 1.23,-0.85l0.92 -0.65c0.02,-0.02 0.14,-0.1 0.16,-0.12 0.08,-0.06 0.05,-0.03 0.13,-0.09 1.21,-0.86 2.33,-1.84 3.24,-3 2.39,-3.03 0.92,-5.56 0.85,-6.52 -0.27,-0.33 -1.31,-1.04 -1.83,-1.27l-0.01 0.09c0.03,0.41 1.91,2.68 0.58,5.85 -0.69,1.64 -2.26,2.93 -4.56,2.94 -0.01,0.05 -0.02,0.15 -0.04,0.2 -0.07,0.17 -0.04,0.08 -0.13,0.16 -0.39,1.6 -2.16,2.87 -4.02,3.01 -2.32,0.17 -3.95,-0.73 -4.9,-2.07 -2.06,-2.89 -0.11,-6.47 -0.56,-8.99 -0.15,-0.83 -0.84,-2.01 -1.64,-1.62l0 0z"/>
   <path class="fil4" d="M12.78 33.16c-0.51,-2.82 0.56,-6.72 1.87,-5.99 0.9,0.5 2.57,-0.01 3.51,-0.24 0.56,-0.14 1.1,-0.32 1.67,-0.41 0.92,-0.14 1.13,0.07 1.76,0.34 -0.02,-1.81 -3.46,-2.72 -3.99,-4.22 0.74,0.66 0.45,0.58 1.51,1.36 3.68,2.69 9.49,2.85 12.73,-0.6 0.25,-0.27 1.28,-1.33 0.89,-1.92 -0.2,0.06 -0.17,0.08 -0.29,0.22 -0.34,0.38 -0.22,0.35 -0.74,0.77 -0.41,0.33 -0.65,0.54 -1.16,0.85 -1.98,1.21 -4.43,1.29 -6.56,0.47 -0.72,-0.28 -2.21,-1.14 -2.52,-1.58 0.47,0.11 1.08,0.43 1.65,0.58 3.07,0.82 6.14,-0.26 7.69,-3.15 0.43,-0.8 1.07,-2.35 1.07,-3.46l-0.01 -0.27c-0.46,0.91 -0.35,1.22 -1.47,1.96 -2.12,1.39 -4.49,0.91 -6.13,-0.82 -0.21,-0.23 -0.61,-0.7 -0.76,-1.01 -0.09,-0.17 -0.3,-0.32 -0.56,-0.76 -0.17,-0.3 -0.3,-0.58 -0.45,-0.91 -0.28,-0.61 -0.76,-1.26 -1.22,-1.58 0.07,0.96 1.54,3.49 -0.85,6.52 -0.91,1.16 -2.02,2.14 -3.24,3 -0.07,0.05 -0.04,0.03 -0.13,0.09 -0.03,0.02 -0.14,0.1 -0.16,0.12l-0.92 0.65c-0.42,0.31 -0.83,0.58 -1.23,0.85 -1.3,0.86 -1.41,1.13 -2.28,1.87 -0.38,0.32 -0.65,0.74 -0.9,1.19 -0.85,1.54 -0.74,3.36 0.21,4.88 0.25,0.41 0.62,0.92 0.99,1.2l-0 -0z"/>
   <path class="fil2" d="M1.27 12.98c0.02,0.27 -0.52,1.67 -0.61,2.1 -0.15,0.72 -0.36,1.41 -0.43,2.17 -0.07,0.7 -0.09,1.4 -0.08,2.1 0.03,-2.6 0.85,-5.14 1.83,-7.39 -0.55,0.29 -0.35,0.29 -0.59,0.81l-0.12 0.2zm10.46 24.04c0.87,0.4 1.96,0.81 2.75,0.99l0.1 -0.03 -0.01 -0.03c-0.98,-0.24 -1.93,-0.55 -2.84,-0.94zm1.96 -0.84c-0.08,-0.19 -0.16,-0.37 -0.22,-0.52 -0.33,-0.85 -0.48,-1.6 -0.69,-2.43 -1,0.11 -3,-0.23 -3.88,-0.47 -0.83,-0.22 -1.55,-0.51 -2.18,-0.85 1.93,1.92 4.3,3.4 6.96,4.26zm-10.6 -9.57c-0.41,-2.57 0.13,-5.57 0.85,-8.4 0.29,-1.14 0.57,-2.37 0.73,-3.56 0.09,-0.65 0.31,-3.18 -0.5,-3.57 -0.11,0 -0.23,0.03 -0.37,0.06 -1.39,2.5 -2.18,5.38 -2.18,8.44 0,2.5 0.53,4.88 1.47,7.03l-0 0z"/>
   <path class="fil4" d="M15.46 20.39c2.3,-0.01 3.87,-1.3 4.56,-2.94 1.33,-3.17 -0.55,-5.44 -0.58,-5.85l0.01 -0.09 -0.3 -0.16c0.32,1.44 -0.17,1.91 -0.86,2.58 -0.99,0.96 -2.56,0.74 -3.7,0.34 -0.07,-0.03 -0.18,-0.06 -0.27,-0.09l-3.15 -1.94c-0.25,-0.21 -0.46,-0.42 -0.73,-0.65 -0.25,-0.21 -0.5,-0.47 -0.72,-0.64 -0.06,-0.05 -0.14,-0.11 -0.2,-0.15 -0.04,-0.03 -0.08,-0.06 -0.13,-0.09l-1.35 -0.8c-0.74,-0.35 -1.44,-0.34 -2.27,-0.4 0.29,0.21 1.84,0.38 2.93,2.26 1.12,1.94 1.65,5.3 3.22,7.1 0.94,1.08 1.84,1.49 3.53,1.53z"/>
   <path class="fil5" d="M15.29 20.75c0.09,-0.09 0.06,0.01 0.13,-0.16 0.02,-0.05 0.03,-0.16 0.04,-0.2 -1.69,-0.04 -2.59,-0.45 -3.53,-1.53 -1.57,-1.8 -2.1,-5.16 -3.22,-7.1 -1.09,-1.88 -2.64,-2.05 -2.93,-2.26l-0.51 -0.06c-0.11,0 -0.27,0.03 -0.45,0.07 -0.18,0.25 -0.35,0.51 -0.52,0.77 0.72,0.48 2.41,0.82 2.09,4.09 -0.21,2.14 -0.58,4.35 0.24,6.26 0.66,1.54 2.14,2.54 4.31,2.69 2.26,0.16 3.71,-1.11 4.35,-2.57l0 -0z"/>
   <path class="fil1" d="M26.85 15.34c-0.37,0.49 -0.58,0.89 -1.36,1.06 -0.33,0.07 -0.76,0.06 -1.07,-0.01 -0.46,-0.1 -0.57,-0.22 -0.91,-0.35 0.15,0.3 0.54,0.78 0.76,1.01 1.64,1.73 4.01,2.21 6.13,0.82 1.12,-0.74 1.01,-1.05 1.47,-1.96l0.01 0.27c0.31,-0.73 -0.07,-2.98 -0.28,-3.72 -0.56,-1.96 -1.99,-3.62 -3.61,-4.71 -1.04,-0.7 -1.67,-0.86 -2.88,-1.33l1.04 0.73c0.45,0.32 0.69,0.68 1.04,1.12 1.34,1.68 2.17,5.85 -0.31,7.07z"/>
   <path class="fil1" d="M5.27 9.44l0.51 0.06c0.83,0.06 1.53,0.05 2.27,0.4l1.35 0.8c0.05,0.04 0.09,0.06 0.13,0.09 0.06,0.05 0.14,0.11 0.2,0.15 0.22,0.18 0.47,0.43 0.72,0.64 0.26,0.22 0.48,0.43 0.73,0.65l3.15 1.94c0.09,0.04 0.2,0.07 0.27,0.09 1.14,0.39 2.71,0.62 3.7,-0.34 0.69,-0.67 1.19,-1.13 0.86,-2.58 -0.24,-0.31 -2.53,-1.26 -2.82,-1.36 -2.51,-0.87 -4.62,-1.25 -7.34,-1.15 -0.9,0.04 -3.09,0.24 -3.73,0.59l0 0z"/>
   <path class="fil6" d="M15.68 5.5c0,1.25 0.26,2.08 1.17,2.65 2.39,1.51 2.32,-1.67 7.87,1.78 0.43,0.27 0.69,0.47 1.04,0.82 0.57,0.56 1.15,1.34 1.35,2.39 0.23,-0.34 -0.02,-1.32 -0.11,-1.57 -0.25,-0.74 -0.29,-0.79 -0.68,-1.38 -0.02,-0.02 -0.08,-0.13 -0.09,-0.13l-0.63 -0.81 -2.76 -1.96c-3.94,-2.36 -5.26,0.97 -5.22,-2.81 -1.43,0.22 -1.39,0.06 -1.95,1.02l0 0z"/>
   <path class="fil7" d="M27.11 13.14c0.15,0.87 0.07,1.49 -0.26,2.2 2.49,-1.22 1.65,-5.38 0.31,-7.07 -0.34,-0.43 -0.58,-0.8 -1.03,-1.12l-1.04 -0.73c-2.31,-0.42 -3.32,-0.57 -5.73,-0.05 0.56,0.1 1.06,0.16 1.5,0.33 0.59,0.23 1.43,0.26 1.98,0.59l2.76 1.96 0.63 0.81c0,0.01 0.07,0.11 0.09,0.13 0.39,0.59 0.43,0.64 0.68,1.38 0.09,0.25 0.34,1.23 0.11,1.57l-0 0z"/>
   <path class="fil8" d="M17.57 14.88c0.22,1.32 0.25,1.22 1.74,1.45 -0.52,-1.21 -0.21,-0.92 -1.74,-1.45z"/>
   <path class="fil3" d="M4.16 11.09c0.81,0.38 0.59,2.91 0.5,3.57 -0.16,1.19 -0.44,2.42 -0.73,3.56 -0.72,2.83 -1.26,5.83 -0.85,8.4 0.88,2 2.12,3.79 3.64,5.31 0.63,0.34 1.35,0.63 2.18,0.85 0.88,0.24 2.88,0.58 3.88,0.47l-0 -0.09c-0.37,-0.28 -0.74,-0.79 -0.99,-1.2 -0.95,-1.52 -1.06,-3.34 -0.21,-4.88 0.25,-0.45 0.52,-0.87 0.9,-1.19 0.72,-0.61 0.92,-0.91 1.7,-1.48 0.11,-0.2 0.24,-0.4 0.33,-0.58 0.14,-0.27 0.19,-0.5 0.28,-0.88 0.09,-0.38 0.22,-0.91 0.33,-1.31 0.1,-0.4 0.18,-0.67 0.41,-1.02 0.05,-0.07 0.11,-0.16 0.17,-0.23 -0.08,0 -0.16,0.01 -0.23,0.01 -0.01,0.05 -0.02,0.15 -0.04,0.2 -0.07,0.17 -0.04,0.08 -0.13,0.16 -0.4,1.6 -2.16,2.87 -4.02,3.01 -2.32,0.17 -3.95,-0.73 -4.9,-2.07 -2.06,-2.89 -0.11,-6.47 -0.56,-8.99 -0.15,-0.83 -0.84,-2.01 -1.64,-1.62l0 0z"/>
   <path class="fil4" d="M12.78 33.16c-0.51,-2.82 0.56,-6.72 1.87,-5.99 0.9,0.5 2.57,-0.01 3.51,-0.24 0.56,-0.14 1.1,-0.32 1.67,-0.41 0.92,-0.14 1.13,0.07 1.76,0.34 -0.02,-1.81 -3.46,-2.72 -3.99,-4.22 0.74,0.66 0.45,0.58 1.51,1.36 3.68,2.69 9.49,2.85 12.73,-0.6 0.25,-0.27 1.28,-1.33 0.89,-1.92 -0.2,0.06 -0.17,0.08 -0.29,0.22 -0.34,0.38 -0.22,0.35 -0.74,0.77 -0.41,0.33 -0.65,0.54 -1.16,0.85 -1.98,1.21 -4.43,1.29 -6.56,0.47 -0.72,-0.28 -2.21,-1.14 -2.52,-1.58 0.47,0.11 1.08,0.43 1.65,0.58 3.07,0.82 6.14,-0.26 7.69,-3.15 0.43,-0.8 1.07,-2.35 1.07,-3.46l-0.01 -0.27c-0.46,0.91 -0.35,1.22 -1.47,1.96 -2.12,1.39 -4.49,0.91 -6.13,-0.82 -0.21,-0.23 -0.61,-0.7 -0.76,-1.01 -0.09,-0.17 -0.3,-0.32 -0.56,-0.76 -0.17,-0.3 -0.3,-0.58 -0.45,-0.91 -0.28,-0.61 -0.76,-1.26 -1.22,-1.58 0.07,0.96 1.54,3.49 -0.85,6.52 -0.91,1.16 -2.02,2.14 -3.24,3 -0.07,0.05 -0.04,0.03 -0.13,0.09 -0.03,0.02 -0.14,0.1 -0.16,0.12l-0.92 0.65c-0.42,0.31 -0.83,0.58 -1.23,0.85 -1.3,0.86 -1.41,1.13 -2.28,1.87 -0.38,0.32 -0.65,0.74 -0.9,1.19 -0.85,1.54 -0.74,3.36 0.21,4.88 0.25,0.41 0.62,0.92 0.99,1.2l-0 -0z"/>
   <path class="fil2" d="M0.79 15.12c-0.15,0.72 -0.49,1.37 -0.57,2.14 -0.07,0.7 -0.09,1.4 -0.08,2.1 0.03,-2.6 1.2,-5.26 2.19,-7.51 -1.15,0.62 -1.3,2.09 -1.54,3.27zm10.93 21.91c0.87,0.39 1.96,0.81 2.75,0.99l0.1 -0.03 -0.01 -0.03c-0.98,-0.24 -1.93,-0.55 -2.84,-0.94zm1.96 -0.84c-0.08,-0.19 -0.16,-0.37 -0.22,-0.52 -0.33,-0.85 -0.48,-1.6 -0.69,-2.43 -1,0.11 -3,-0.23 -3.88,-0.47 -0.83,-0.22 -1.55,-0.51 -2.18,-0.85 1.93,1.92 4.3,3.4 6.96,4.26zm-10.6 -9.57c-0.41,-2.57 0.13,-5.57 0.85,-8.4 0.29,-1.14 0.57,-2.37 0.73,-3.56 0.09,-0.65 0.31,-3.18 -0.5,-3.57 -0.11,0 -0.23,0.03 -0.37,0.06 -1.39,2.5 -2.18,5.38 -2.18,8.44 0,2.5 0.53,4.88 1.47,7.03l-0 0z"/>
   <path class="fil4" d="M15.46 20.39c2.3,-0.01 3.87,-1.3 4.56,-2.94 1.33,-3.17 -0.55,-5.44 -0.58,-5.85l0.01 -0.09 -0.3 -0.16c0.32,1.44 -0.17,1.91 -0.86,2.58 -0.99,0.96 -2.56,0.74 -3.7,0.34 -0.07,-0.03 -0.18,-0.06 -0.27,-0.09l-3.15 -1.94c-0.25,-0.21 -0.46,-0.42 -0.73,-0.65 -0.25,-0.21 -0.5,-0.47 -0.72,-0.64 -0.06,-0.05 -0.14,-0.11 -0.2,-0.15 -0.04,-0.03 -0.08,-0.06 -0.13,-0.09l-1.35 -0.8c-0.74,-0.35 -1.44,-0.34 -2.27,-0.4 0.29,0.21 1.84,0.38 2.93,2.26 1.12,1.94 1.65,5.3 3.22,7.1 0.94,1.08 1.84,1.49 3.53,1.53z"/>
   <path class="fil9" d="M14.17 24.42c0.16,-0.12 0.35,-0.25 0.58,-0.4 0.41,-0.27 0.81,-0.54 1.23,-0.85l0.92 -0.65c0.02,-0.02 0.14,-0.1 0.16,-0.12 0.08,-0.06 0.05,-0.03 0.13,-0.09 1.21,-0.86 2.33,-1.84 3.24,-3 2.39,-3.03 0.92,-5.56 0.85,-6.52 -0.27,-0.33 -1.31,-1.04 -1.83,-1.27l-0.01 0.09c0.03,0.41 1.91,2.68 0.58,5.85 -0.67,1.59 -2.15,2.84 -4.33,2.93 -0.06,0.08 -0.12,0.16 -0.17,0.23 -0.23,0.36 -0.31,0.63 -0.41,1.03 -0.1,0.4 -0.23,0.93 -0.33,1.31 -0.09,0.38 -0.14,0.61 -0.28,0.88 -0.09,0.18 -0.23,0.38 -0.33,0.58l0 -0z"/>
   <path class="fil5" d="M15.29 20.75c0.09,-0.09 0.06,0.01 0.13,-0.16 0.02,-0.05 0.03,-0.16 0.04,-0.2 -1.69,-0.04 -2.59,-0.45 -3.53,-1.53 -1.57,-1.8 -2.1,-5.16 -3.22,-7.1 -1.09,-1.88 -2.64,-2.05 -2.93,-2.26l-0.51 -0.06c-0.11,0 -0.27,0.03 -0.45,0.07 -0.18,0.25 -0.35,0.51 -0.52,0.77 0.72,0.48 2.41,0.82 2.09,4.09 -0.21,2.14 -0.58,4.35 0.24,6.26 0.66,1.54 2.14,2.54 4.31,2.69 2.26,0.16 3.71,-1.11 4.35,-2.57l0 -0z"/>
   <path class="fil1" d="M26.85 15.34c-0.37,0.49 -0.58,0.89 -1.36,1.06 -0.33,0.07 -0.76,0.06 -1.07,-0.01 -0.46,-0.1 -0.57,-0.22 -0.91,-0.35 0.15,0.3 0.54,0.78 0.76,1.01 1.64,1.73 4.01,2.21 6.13,0.82 1.12,-0.74 1.01,-1.05 1.47,-1.96l0.01 0.27c0.31,-0.73 -0.07,-2.98 -0.28,-3.72 -0.56,-1.96 -1.99,-3.62 -3.61,-4.71 -1.04,-0.7 -1.67,-0.86 -2.88,-1.33l1.04 0.73c0.45,0.32 0.69,0.68 1.04,1.12 1.34,1.68 2.17,5.85 -0.31,7.07z"/>
   <path class="fil1" d="M5.27 9.44l0.51 0.06c0.83,0.06 1.53,0.05 2.27,0.4l1.35 0.8c0.05,0.04 0.09,0.06 0.13,0.09 0.06,0.05 0.14,0.11 0.2,0.15 0.22,0.18 0.47,0.43 0.72,0.64 0.26,0.22 0.48,0.43 0.73,0.65l3.15 1.94c0.09,0.04 0.2,0.07 0.27,0.09 1.14,0.39 2.71,0.62 3.7,-0.34 0.69,-0.67 1.19,-1.13 0.86,-2.58 -0.24,-0.31 -2.53,-1.26 -2.82,-1.36 -2.51,-0.87 -4.62,-1.25 -7.34,-1.15 -0.9,0.04 -3.09,0.24 -3.73,0.59l0 0z"/>
   <path class="fil6" d="M15.68 5.5c0,1.25 0.26,2.08 1.17,2.65 2.39,1.51 2.32,-1.67 7.87,1.78 0.43,0.27 0.69,0.47 1.04,0.82 0.57,0.56 1.15,1.34 1.35,2.39 0.23,-0.34 -0.02,-1.32 -0.11,-1.57 -0.25,-0.74 -0.29,-0.79 -0.68,-1.38 -0.02,-0.02 -0.08,-0.13 -0.09,-0.13l-0.63 -0.81 -2.76 -1.96c-3.94,-2.36 -5.26,0.97 -5.22,-2.81 -1.43,0.22 -1.39,0.06 -1.95,1.02l0 0z"/>
   <path class="fil7" d="M27.11 13.14c0.15,0.87 0.07,1.49 -0.26,2.2 2.49,-1.22 1.65,-5.38 0.31,-7.07 -0.34,-0.43 -0.58,-0.8 -1.03,-1.12l-1.04 -0.73c-0.93,-0.17 -1.64,-0.35 -2.62,-0.41 -0.62,-0.04 -2.54,0.25 -3.06,0.36 0.56,0.1 1.11,-0.1 1.55,0.07 0.59,0.23 1.33,0.52 1.88,0.85l2.76 1.96 0.63 0.81c0,0.01 0.07,0.11 0.09,0.13 0.39,0.59 0.43,0.64 0.68,1.38 0.09,0.25 0.34,1.23 0.11,1.57l-0 0z"/>
   <path class="fil10" d="M17.57 14.88c0.22,1.32 0.25,1.22 1.74,1.45 -0.52,-1.21 -0.21,-0.92 -1.74,-1.45z"/>
   <path class="fil11" d="M4.16 11.09c0.81,0.38 0.59,2.91 0.5,3.57 -0.16,1.19 -0.44,2.42 -0.73,3.56 -0.72,2.83 -1.26,5.83 -0.85,8.4 0.88,2 2.12,3.79 3.64,5.31 0.63,0.34 1.35,0.63 2.18,0.85 0.88,0.24 2.88,0.58 3.88,0.47l-0 -0.09c-0.37,-0.28 -0.74,-0.79 -0.99,-1.2 -0.95,-1.52 -1.06,-3.34 -0.21,-4.88 0.25,-0.45 0.52,-0.87 0.9,-1.19 0.72,-0.61 0.92,-0.91 1.7,-1.48 0.11,-0.2 0.24,-0.4 0.33,-0.58 0.14,-0.27 0.19,-0.5 0.28,-0.88 0.09,-0.38 0.22,-0.91 0.33,-1.31 0.1,-0.4 0.18,-0.67 0.41,-1.02 0.05,-0.07 0.11,-0.16 0.17,-0.23 -0.08,0 -0.16,0.01 -0.23,0.01 -0.01,0.05 -0.02,0.15 -0.04,0.2 -0.07,0.17 -0.04,0.08 -0.13,0.16 -0.4,1.6 -2.16,2.87 -4.02,3.01 -2.32,0.17 -3.95,-0.73 -4.9,-2.07 -2.06,-2.89 -0.11,-6.47 -0.56,-8.99 -0.15,-0.83 -0.84,-2.01 -1.64,-1.62l0 0z"/>
  </g>
 </g>
</svg>
