<svg width="369" height="77" viewBox="0 0 369 77" fill="none" xmlns="http://www.w3.org/2000/svg">
<path d="M335.157 66.1946L335.894 60.71C338.515 63.9047 343.359 67.3079 350.348 67.3079C358.547 67.3079 368.697 63.2829 368.697 52.1685C368.697 35.3611 341.338 37.0962 341.338 29.735C341.338 27.2329 344.093 25.9856 346.111 25.9856C350.951 25.9856 354.984 28.9717 354.984 34.2515H367.42V16.3308H355.52L354.85 22.3031C352.094 16.9563 346.178 15.009 340.396 15.009C333.604 15.009 323.927 19.801 323.927 30.3606C323.927 48.5568 350.482 46.1962 350.482 51.826C350.482 54.8122 347.053 55.3669 344.636 55.3669C341.743 55.2292 335.894 54.2574 335.894 48.2143H323.056V66.202H335.157V66.1946ZM292.401 27.9255L296.973 43.3441H287.899L292.401 27.9255ZM317.277 56.8191L305.042 16.2563H278.49V25.4941H281.313L271.967 56.8191H267.264V66.1946H289.247V56.8191H283.871L285.349 51.9563H299.535L301.013 56.8191H294.426V66.1946H322.121V56.8191H317.277ZM240.437 25.4941C244.473 25.4941 246.759 27.6499 246.759 31.8834C246.759 35.6366 244.138 37.651 240.106 37.651H237.011V25.4941H240.441H240.437ZM218.856 25.5648H222.755V56.6813H218.856V66.1983H241.174V56.7521H237.004V45.7084C243.189 45.7084 243.933 47.3058 243.933 53.7659C243.933 62.1026 248.305 67.0324 257.378 67.0324C265.041 67.0324 267.461 61.5441 267.461 55.5717V51.61H262.826V53.9744C262.826 55.434 262.29 56.2643 261.21 56.2643C259.933 56.2643 259.531 54.4584 259.531 51.4015C259.531 46.2632 255.226 41.9552 250.457 41.2627C256.172 40.4324 260.473 36.4707 260.473 30.9154C260.473 22.7909 257.382 16.1893 241.316 16.1893H218.864V25.5648H218.856ZM193.645 56.2643C189.207 56.2643 185.982 50.3627 185.982 40.9834C185.982 32.0957 188.875 25.8441 193.109 25.9148C198.418 25.9148 200.708 32.8627 200.708 41.4712C200.708 50.292 198.02 56.268 193.649 56.268L193.645 56.2643ZM193.645 67.4457C209.242 67.4457 217.981 57.5824 217.981 41.4712C217.981 25.4271 210.114 14.8675 193.172 14.8675C178.852 14.8675 168.907 25.4941 168.907 40.9127C168.907 58.8297 179.191 67.4457 193.645 67.4457ZM152.032 66.1946H165.883V48.3446H168.639V40.7042H145.717V48.3446H149.951V51.3308C148.942 53.2074 147.263 54.8047 143.293 54.8047C137.31 54.8047 133.814 48.9701 133.814 41.676C133.814 34.5196 137.716 28.268 143.293 28.268C147.393 28.268 150.956 31.5334 151.161 37.368H163.534V16.3196H153.25L151.772 21.4616C150.696 20.3521 148.342 15.4893 138.259 15.4893C127.502 15.4893 117.017 26.1866 117.017 41.7467C117.017 57.1654 126.631 66.8909 138.732 66.8909C144.042 66.8909 148.346 64.3925 149.888 61.7489L152.036 66.1946V66.1909L152.032 66.1946ZM74.4551 25.6318H78.8227V56.6143H74.4551V66.1983H116.135V50.0797H104.168V56.7483H93.1429V45.0792H106.249V35.5622H93.1429V25.6989H104.231V32.0882H116.198V16.3196H74.5184V25.6281H74.4514L74.4551 25.6318Z" fill="white"/>
<path fill-rule="evenodd" clip-rule="evenodd" d="M186.317 0.00366211C192.439 2.85207 210.117 4.02866 221.075 17.5074C226.858 24.5893 230.555 36.6792 225.782 47.5143C224.035 26.2611 212.538 14.1749 186.321 0.00366211V0.00738551L186.317 0.00366211Z" fill="white"/>
<path d="M36.3014 76.326C56.3491 76.326 72.6009 60.0742 72.6009 40.0265C72.6009 19.9789 56.3491 3.72707 36.3014 3.72707C16.2538 3.72707 0.00195312 19.9789 0.00195312 40.0265C0.00195312 60.0742 16.2538 76.326 36.3014 76.326Z" fill="black"/>
<path fill-rule="evenodd" clip-rule="evenodd" d="M36.1562 8.63451C53.8684 8.63451 68.2259 22.9957 68.2259 40.7042C68.2259 58.4164 53.8684 72.7739 36.1562 72.7739C18.444 72.7739 4.08653 58.4127 4.08653 40.7042C4.08653 22.992 18.444 8.63451 36.1562 8.63451ZM36.1562 11.1217C52.4945 11.1217 65.7386 24.3659 65.7386 40.7042C65.7386 57.0425 52.4945 70.2866 36.1562 70.2866C19.8179 70.2866 6.57376 57.0425 6.57376 40.7042C6.57376 24.3659 19.8179 11.1217 36.1562 11.1217Z" fill="#7CFFB0"/>
<path fill-rule="evenodd" clip-rule="evenodd" d="M36.7408 7.46536C54.7732 7.46536 69.395 22.0872 69.395 40.1196C69.395 58.1521 54.7732 72.7739 36.7408 72.7739C18.7083 72.7739 4.08653 58.1521 4.08653 40.1196C4.08653 22.0872 18.7083 7.46536 36.7408 7.46536ZM36.7408 9.99728C53.3769 9.99728 66.8631 23.4834 66.8631 40.1196C66.8631 56.7558 53.3769 70.2419 36.7408 70.2419C20.1046 70.2419 6.61844 56.7558 6.61844 40.1196C6.61844 23.4834 20.1046 9.99728 36.7408 9.99728Z" fill="#21AD62"/>
<path fill-rule="evenodd" clip-rule="evenodd" d="M10.8966 26.2797C12.2743 26.9313 11.8908 31.2244 11.7456 32.3303C11.4812 34.3446 11.0009 36.4334 10.5057 38.3733C9.2844 43.1765 8.37216 48.259 9.07216 52.6228C10.5615 56.0074 12.669 59.0568 15.2456 61.6334C16.3142 62.2106 17.5392 62.6983 18.9429 63.0744C20.4323 63.4765 23.828 64.0611 25.5184 63.8675L25.511 63.7185C24.8817 63.2494 24.2637 62.3781 23.8317 61.6893C22.2195 59.1164 22.0333 56.0148 23.4706 53.4047C23.8913 52.6414 24.3493 51.934 24.9897 51.3904C26.4716 50.1356 26.6504 49.6664 28.8621 48.2106C29.5509 47.7563 30.2434 47.2983 30.9509 46.7659L32.5184 45.66C32.5594 45.6265 32.7567 45.485 32.7977 45.4552C32.9355 45.3584 32.8833 45.4031 33.0136 45.31C35.0727 43.8505 36.9605 42.1898 38.5057 40.2276C42.553 35.0893 40.0658 30.7925 39.9392 29.1616C39.4886 28.5994 37.7238 27.3967 36.8339 27.0021L36.8115 27.1473C36.8562 27.8361 40.0546 31.6861 37.7908 37.0664C36.6179 39.8553 33.9557 42.0372 30.0573 42.0558C30.0461 42.134 30.0275 42.3164 29.994 42.3983C29.8748 42.6925 29.9232 42.5287 29.778 42.6739C29.1078 45.3882 26.1067 47.5441 22.953 47.7749C19.0099 48.0616 16.2509 46.535 14.6349 44.2675C11.1461 39.3712 14.4525 33.2946 13.6855 29.0201C13.436 27.6201 12.2594 25.6058 10.8966 26.276V26.2797Z" fill="#4BE894"/>
<path fill-rule="evenodd" clip-rule="evenodd" d="M25.5147 63.7185C24.6546 58.934 26.4642 52.3249 28.6871 53.5648C30.2174 54.4212 33.0434 53.5537 34.6482 53.1515C35.6051 52.9095 36.5174 52.6079 37.4855 52.459C39.0493 52.2207 39.3956 52.5856 40.4791 53.0361C40.4381 49.9643 34.6147 48.4228 33.7062 45.8797C34.9684 46.993 34.4658 46.8627 36.2716 48.1808C42.5083 52.7382 52.3791 53.0175 57.8599 47.1568C58.2881 46.6989 60.0232 44.893 59.3753 43.9026C59.044 44.0068 59.0886 44.0441 58.8764 44.2824C58.2956 44.934 58.4966 44.8744 57.6253 45.5893C56.9365 46.1552 56.5158 46.5015 55.6631 47.0265C52.312 49.0781 48.1456 49.2196 44.5376 47.8196C43.3126 47.3467 40.7807 45.8872 40.2706 45.1388C41.0711 45.3324 42.095 45.8611 43.0668 46.1255C48.2759 47.5217 53.4849 45.6861 56.1136 40.7898C56.8434 39.4308 57.9232 36.8021 57.9232 34.9255L57.912 34.46C57.1339 35.9978 57.32 36.5377 55.4211 37.785C51.8206 40.1457 47.8105 39.3265 45.0253 36.3962C44.6605 36.0127 43.994 35.2047 43.7408 34.6872C43.5956 34.4042 43.2269 34.151 42.7913 33.3989C42.4972 32.8925 42.2775 32.4196 42.0206 31.8574C41.5402 30.8185 40.7285 29.7164 39.9504 29.1691C40.0769 30.7999 42.5642 35.0967 38.5168 40.235C36.9679 42.1973 35.0839 43.8616 33.0248 45.3175C32.8982 45.4068 32.9504 45.3659 32.8089 45.4627C32.7642 45.4925 32.5706 45.634 32.5296 45.6675L30.9621 46.7733C30.2509 47.3058 29.5621 47.7638 28.8732 48.218C26.6615 49.6739 26.4828 50.143 25.0009 51.3978C24.3605 51.9414 23.9025 52.6451 23.4817 53.4122C22.0445 56.0223 22.2307 59.1201 23.8429 61.6967C24.2748 62.3856 24.8892 63.2568 25.5222 63.726L25.5147 63.7185Z" fill="#53F19C"/>
<path fill-rule="evenodd" clip-rule="evenodd" d="M5.99663 29.493C6.03014 29.9584 5.10674 32.334 4.9578 33.0563C4.70461 34.2813 4.34717 35.4467 4.22802 36.7425C4.11631 37.9303 4.07163 39.1217 4.09397 40.3132C4.1461 35.8935 5.53121 31.5967 7.19557 27.7803C6.26472 28.2792 6.60355 28.2717 6.20142 29.1579L5.99663 29.493ZM23.7349 70.2792C25.2168 70.9494 27.0525 71.6457 28.4078 71.9584L28.5716 71.9138L28.5567 71.8653C26.8961 71.4595 25.2839 70.9308 23.7349 70.2792ZM27.0562 68.8606C26.9147 68.5329 26.7881 68.2313 26.6913 67.9818C26.1291 66.5483 25.8722 65.2712 25.5222 63.8675C23.8317 64.0611 20.4397 63.4765 18.9466 63.0744C17.5429 62.6946 16.3142 62.2106 15.2493 61.6334C18.5222 64.8989 22.5509 67.4047 27.0562 68.8606ZM9.07216 52.6228C8.37589 48.259 9.28812 43.1765 10.5057 38.3733C10.9972 36.4334 11.4775 34.3446 11.7456 32.3303C11.8908 31.2244 12.2743 26.9313 10.8966 26.2797C10.7142 26.2872 10.4982 26.3281 10.2637 26.3877C7.91419 30.6324 6.57376 35.51 6.57376 40.7042C6.57376 44.9451 7.46738 48.9776 9.07589 52.6228H9.07216Z" fill="#21AD62"/>
<path fill-rule="evenodd" clip-rule="evenodd" d="M30.061 42.0558C33.9631 42.0372 36.6216 39.8553 37.7945 37.0664C40.0583 31.6898 36.8599 27.8361 36.8152 27.1473L36.8376 27.0021L36.3349 26.734C36.886 29.184 36.0408 29.9696 34.8679 31.1053C33.1849 32.7324 30.519 32.3526 28.5828 31.6824C28.4599 31.6377 28.2775 31.5856 28.1174 31.526L22.778 28.2308C22.3573 27.8659 21.9924 27.5122 21.5456 27.1324C21.1285 26.7749 20.7004 26.3393 20.328 26.0414C20.2275 25.9595 20.0897 25.859 19.9855 25.7808C19.9184 25.7324 19.8514 25.684 19.7732 25.6244L17.4833 24.2616C16.2323 23.6622 15.0408 23.6771 13.6408 23.5803C14.1323 23.9377 16.7647 24.217 18.6078 27.4079C20.5067 30.6957 21.4078 36.3999 24.0663 39.4568C25.6674 41.2962 27.1902 41.9888 30.061 42.0558Z" fill="#53F19C"/>
<path fill-rule="evenodd" clip-rule="evenodd" d="M29.7817 42.6739C29.9269 42.5287 29.8785 42.6962 29.9977 42.3983C30.0312 42.3164 30.0498 42.134 30.061 42.0558C27.1902 41.9888 25.6674 41.2962 24.0663 39.4568C21.4041 36.3999 20.5067 30.6957 18.6078 27.4079C16.7647 24.217 14.1323 23.9377 13.6408 23.5803L12.777 23.4834C12.5871 23.4909 12.3115 23.5393 12.0099 23.61C11.7046 24.0382 11.4142 24.4739 11.1349 24.9207C12.3488 25.7361 15.2269 26.3095 14.6796 31.8537C14.3184 35.484 13.6892 39.226 15.0855 42.4765C16.2062 45.0904 18.7158 46.7919 22.4057 47.0451C26.2408 47.3095 28.6982 45.1574 29.7817 42.6776V42.6739Z" fill="#46D98A"/>
<path fill-rule="evenodd" clip-rule="evenodd" d="M49.4003 33.492C48.7711 34.3223 48.4211 35.0074 47.0993 35.2941C46.5408 35.417 45.8184 35.3909 45.2785 35.2792C44.4929 35.1154 44.3179 34.9031 43.737 34.6834C43.9865 35.201 44.6567 36.009 45.0216 36.3925C47.8067 39.3228 51.8206 40.142 55.4174 37.7813C57.3163 36.534 57.1301 35.9941 57.9083 34.4563L57.9195 34.9217C58.4519 33.6818 57.7966 29.8654 57.4392 28.6068C56.4971 25.2893 54.0695 22.4707 51.3067 20.609C49.5456 19.4249 48.4807 19.1531 46.4179 18.36L48.1753 19.6037C48.9461 20.151 49.3445 20.7654 49.9328 21.5026C52.2041 24.3584 53.6227 31.4292 49.4003 33.492Z" fill="#7CFFB0"/>
<path fill-rule="evenodd" clip-rule="evenodd" d="M12.777 23.4834L13.6408 23.5803C15.0408 23.6771 16.2323 23.6622 17.4833 24.2616L19.7732 25.6244C19.8551 25.684 19.9184 25.7287 19.9855 25.7808C20.0934 25.8627 20.2275 25.9595 20.328 26.0414C20.7004 26.343 21.1285 26.7787 21.5456 27.1324C21.9887 27.5122 22.3535 27.8659 22.778 28.2308L28.1174 31.526C28.2775 31.5856 28.4562 31.6377 28.5828 31.6824C30.5227 32.3526 33.1849 32.7324 34.8679 31.1053C36.0408 29.9733 36.886 29.1877 36.3349 26.734C35.9254 26.2127 32.0381 24.5967 31.5504 24.4292C27.2945 22.951 23.72 22.3031 19.103 22.4819C17.5839 22.5451 13.8567 22.8877 12.7732 23.4797L12.777 23.4834Z" fill="#7CFFB0"/>
<path fill-rule="evenodd" clip-rule="evenodd" d="M30.4445 16.8037C30.4445 18.9223 30.8801 20.326 32.4216 21.2978C36.4801 23.8632 36.3535 18.4717 45.77 24.3175C46.4998 24.7717 46.9392 25.1217 47.5424 25.7138C48.5142 26.6707 49.4897 27.9925 49.8397 29.7648C50.2381 29.1803 49.8062 27.5271 49.661 27.0989C49.2328 25.8441 49.162 25.7659 48.4993 24.7643C48.4732 24.7233 48.3615 24.5483 48.3503 24.5372L47.2817 23.1707L42.6014 19.8382C35.9254 15.843 33.6764 21.4877 33.7472 15.0723C31.3195 15.4483 31.3828 15.1654 30.4371 16.8037H30.4445Z" fill="#40DE8A"/>
<path fill-rule="evenodd" clip-rule="evenodd" d="M49.8397 29.7648C50.1003 31.243 49.9626 32.2967 49.4003 33.492C53.6227 31.4292 52.2041 24.3584 49.9328 21.4989C49.3482 20.7616 48.9461 20.1473 48.1791 19.5999L46.4216 18.3563C42.4972 17.6451 40.7881 17.3845 36.7073 18.2707C37.6605 18.4382 38.4982 18.5462 39.2504 18.8366C40.2445 19.2201 41.6743 19.276 42.6089 19.8345L47.2892 23.167L48.3578 24.5334C48.3652 24.5446 48.4807 24.7196 48.5067 24.7606C49.1695 25.7659 49.2402 25.8404 49.6684 27.0951C49.8136 27.5233 50.2418 29.1765 49.8472 29.7611L49.8397 29.7648Z" fill="#39DB84"/>
<path fill-rule="evenodd" clip-rule="evenodd" d="M33.6541 32.7026C34.0264 34.9366 34.0785 34.7654 36.603 35.16C35.728 33.1084 36.2456 33.5925 33.6541 32.7026Z" fill="black"/>
<path fill-rule="evenodd" clip-rule="evenodd" d="M10.8966 26.2797C12.2743 26.9313 11.8908 31.2244 11.7456 32.3303C11.4812 34.3446 11.0009 36.4334 10.5057 38.3733C9.2844 43.1765 8.37216 48.259 9.07216 52.6228C10.5615 56.0074 12.6652 59.0568 15.2456 61.6334C16.3142 62.2106 17.5392 62.6983 18.9429 63.0744C20.4323 63.4765 23.828 64.0611 25.5184 63.8675L25.511 63.7185C24.8817 63.2494 24.2637 62.3781 23.8317 61.6893C22.2195 59.1164 22.0333 56.0148 23.4706 53.4047C23.8913 52.6414 24.3493 51.934 24.9897 51.3904C26.2147 50.3552 26.5498 49.8526 27.8791 48.8845C28.0615 48.5531 28.2886 48.2143 28.445 47.9015C28.6796 47.4435 28.7652 47.0489 28.9179 46.401C29.0743 45.7531 29.2977 44.8558 29.4727 44.1781C29.6477 43.5005 29.7706 43.0425 30.1652 42.4393C30.2509 42.3127 30.3477 42.1749 30.4519 42.0409C30.3216 42.0483 30.1876 42.0521 30.0535 42.0521C30.0424 42.1303 30.0238 42.3127 29.9902 42.3946C29.8711 42.6888 29.9195 42.5249 29.7743 42.6701C29.1041 45.3845 26.103 47.5404 22.9493 47.7712C19.0062 48.0579 16.2472 46.5313 14.6312 44.2638C11.1424 39.3675 14.4488 33.2909 13.6817 29.0164C13.4323 27.6164 12.2557 25.6021 10.8929 26.2723L10.8966 26.2797Z" fill="#4BE894"/>
<path fill-rule="evenodd" clip-rule="evenodd" d="M25.5147 63.7185C24.6546 58.934 26.4642 52.3249 28.6871 53.5648C30.2174 54.4212 33.0434 53.5537 34.6482 53.1515C35.6051 52.9095 36.5174 52.6079 37.4855 52.459C39.0493 52.2207 39.3956 52.5856 40.4791 53.0361C40.4381 49.9643 34.6147 48.4228 33.7062 45.8797C34.9684 46.993 34.4658 46.8627 36.2716 48.1808C42.5083 52.7382 52.3791 53.0175 57.8599 47.1568C58.2881 46.6989 60.0232 44.893 59.3753 43.9026C59.044 44.0068 59.0886 44.0441 58.8764 44.2824C58.2956 44.934 58.4966 44.8744 57.6253 45.5893C56.9365 46.1552 56.5158 46.5015 55.6631 47.0265C52.312 49.0781 48.1456 49.2196 44.5376 47.8196C43.3126 47.3467 40.7807 45.8872 40.2706 45.1388C41.0711 45.3324 42.095 45.8611 43.0668 46.1255C48.2759 47.5217 53.4849 45.6861 56.1136 40.7898C56.8434 39.4308 57.9232 36.8021 57.9232 34.9255L57.912 34.46C57.1339 35.9978 57.32 36.5377 55.4211 37.785C51.8206 40.1457 47.8105 39.3265 45.0253 36.3962C44.6605 36.0127 43.994 35.2047 43.7408 34.6872C43.5956 34.4042 43.2269 34.151 42.7913 33.3989C42.4972 32.8925 42.2775 32.4196 42.0206 31.8574C41.5402 30.8185 40.7285 29.7164 39.9504 29.1691C40.0769 30.7999 42.5642 35.0967 38.5168 40.235C36.9679 42.1973 35.0839 43.8616 33.0248 45.3175C32.8982 45.4068 32.9504 45.3659 32.8089 45.4627C32.7642 45.4925 32.5706 45.634 32.5296 45.6675L30.9621 46.7733C30.2509 47.3058 29.5621 47.7638 28.8732 48.218C26.6615 49.6739 26.4828 50.143 25.0009 51.3978C24.3605 51.9414 23.9025 52.6451 23.4817 53.4122C22.0445 56.0223 22.2307 59.1201 23.8429 61.6967C24.2748 62.3856 24.8892 63.2568 25.5222 63.726L25.5147 63.7185Z" fill="#53F19C"/>
<path fill-rule="evenodd" clip-rule="evenodd" d="M5.18493 33.1196C4.93174 34.3446 4.34717 35.4467 4.22429 36.7425C4.11259 37.9303 4.06791 39.1217 4.09025 40.3132C4.14238 35.8935 6.13068 31.3808 7.79876 27.5643C5.84397 28.618 5.59823 31.1164 5.18493 33.1196ZM23.7349 70.2829C25.2168 70.9531 27.0525 71.6494 28.4078 71.9622L28.5716 71.9175L28.5567 71.8691C26.8961 71.4632 25.2839 70.9345 23.7349 70.2829ZM27.0562 68.8643C26.9147 68.5366 26.7881 68.235 26.6913 67.9856C26.1291 66.5521 25.8722 65.2749 25.5222 63.8712C23.8317 64.0648 20.4397 63.4802 18.9466 63.0781C17.5429 62.6983 16.3142 62.2143 15.2493 61.6372C18.5222 64.9026 22.5509 67.4084 27.0562 68.8643ZM9.07216 52.6265C8.37589 48.2627 9.28812 43.1803 10.5057 38.3771C10.9972 36.4372 11.4775 34.3483 11.7456 32.334C11.8908 31.2281 12.2743 26.935 10.8966 26.2834C10.7142 26.2909 10.4982 26.3318 10.2637 26.3914C7.91419 30.6361 6.57376 35.5138 6.57376 40.7079C6.57376 44.9489 7.46738 48.9813 9.07589 52.6265H9.07216Z" fill="#21AD62"/>
<path fill-rule="evenodd" clip-rule="evenodd" d="M30.061 42.0558C33.9631 42.0372 36.6216 39.8553 37.7945 37.0664C40.0583 31.6898 36.8599 27.8361 36.8152 27.1473L36.8376 27.0021L36.3349 26.734C36.886 29.184 36.0408 29.9696 34.8679 31.1053C33.1849 32.7324 30.519 32.3526 28.5828 31.6824C28.4599 31.6377 28.2775 31.5856 28.1174 31.526L22.778 28.2308C22.3573 27.8659 21.9924 27.5122 21.5456 27.1324C21.1285 26.7749 20.7004 26.3393 20.328 26.0414C20.2275 25.9595 20.0897 25.859 19.9855 25.7808C19.9184 25.7324 19.8514 25.684 19.7732 25.6244L17.4833 24.2616C16.2323 23.6622 15.0408 23.6771 13.6408 23.5803C14.1323 23.9377 16.7647 24.217 18.6078 27.4079C20.5067 30.6957 21.4078 36.3999 24.0663 39.4568C25.6674 41.2962 27.1902 41.9888 30.061 42.0558Z" fill="#53F19C"/>
<path fill-rule="evenodd" clip-rule="evenodd" d="M27.8828 48.8919C28.1621 48.6909 28.4823 48.4675 28.8658 48.218C29.5546 47.7638 30.2472 47.3058 30.9546 46.7733L32.5222 45.6675C32.5631 45.634 32.7605 45.4925 32.8014 45.4627C32.9392 45.3659 32.8871 45.4106 33.0174 45.3175C35.0764 43.8579 36.9642 42.1973 38.5094 40.235C42.5567 35.0967 40.0695 30.7999 39.9429 29.1691C39.4924 28.6068 37.7275 27.4042 36.8376 27.0095L36.8152 27.1547C36.8599 27.8435 40.0583 31.6935 37.7945 37.0739C36.6626 39.7659 34.1418 41.892 30.4557 42.0521C30.3514 42.1898 30.2546 42.3239 30.169 42.4505C29.7706 43.0537 29.6477 43.5116 29.4764 44.1893C29.3014 44.867 29.078 45.7643 28.9216 46.4122C28.7652 47.06 28.6796 47.4547 28.4488 47.9127C28.2886 48.2217 28.0652 48.5643 27.8828 48.8957V48.8919Z" fill="#4FE394"/>
<path fill-rule="evenodd" clip-rule="evenodd" d="M29.7817 42.6739C29.9269 42.5287 29.8785 42.6962 29.9977 42.3983C30.0312 42.3164 30.0498 42.134 30.061 42.0558C27.1902 41.9888 25.6674 41.2962 24.0663 39.4568C21.4041 36.3999 20.5067 30.6957 18.6078 27.4079C16.7647 24.217 14.1323 23.9377 13.6408 23.5803L12.777 23.4834C12.5871 23.4909 12.3115 23.5393 12.0099 23.61C11.7046 24.0382 11.4142 24.4739 11.1349 24.9207C12.3488 25.7361 15.2269 26.3095 14.6796 31.8537C14.3184 35.484 13.6892 39.226 15.0855 42.4765C16.2062 45.0904 18.7158 46.7919 22.4057 47.0451C26.2408 47.3095 28.6982 45.1574 29.7817 42.6776V42.6739Z" fill="#46D98A"/>
<path fill-rule="evenodd" clip-rule="evenodd" d="M49.4003 33.492C48.7711 34.3223 48.4211 35.0074 47.0993 35.2941C46.5408 35.417 45.8184 35.3909 45.2785 35.2792C44.4929 35.1154 44.3179 34.9031 43.737 34.6834C43.9865 35.201 44.6567 36.009 45.0216 36.3925C47.8067 39.3228 51.8206 40.142 55.4174 37.7813C57.3163 36.534 57.1301 35.9941 57.9083 34.4563L57.9195 34.9217C58.4519 33.6818 57.7966 29.8654 57.4392 28.6068C56.4971 25.2893 54.0695 22.4707 51.3067 20.609C49.5456 19.4249 48.4807 19.1531 46.4179 18.36L48.1753 19.6037C48.9461 20.151 49.3445 20.7654 49.9328 21.5026C52.2041 24.3584 53.6227 31.4292 49.4003 33.492Z" fill="#7CFFB0"/>
<path fill-rule="evenodd" clip-rule="evenodd" d="M12.777 23.4834L13.6408 23.5803C15.0408 23.6771 16.2323 23.6622 17.4833 24.2616L19.7732 25.6244C19.8551 25.684 19.9184 25.7287 19.9855 25.7808C20.0934 25.8627 20.2275 25.9595 20.328 26.0414C20.7004 26.343 21.1285 26.7787 21.5456 27.1324C21.9887 27.5122 22.3535 27.8659 22.778 28.2308L28.1174 31.526C28.2775 31.5856 28.4562 31.6377 28.5828 31.6824C30.5227 32.3526 33.1849 32.7324 34.8679 31.1053C36.0408 29.9733 36.886 29.1877 36.3349 26.734C35.9254 26.2127 32.0381 24.5967 31.5504 24.4292C27.2945 22.951 23.72 22.3031 19.103 22.4819C17.5839 22.5451 13.8567 22.8877 12.7732 23.4797L12.777 23.4834Z" fill="#7CFFB0"/>
<path fill-rule="evenodd" clip-rule="evenodd" d="M30.4445 16.8037C30.4445 18.9223 30.8801 20.326 32.4216 21.2978C36.4801 23.8632 36.3535 18.4717 45.77 24.3175C46.4998 24.7717 46.9392 25.1217 47.5424 25.7138C48.5142 26.6707 49.4897 27.9925 49.8397 29.7648C50.2381 29.1803 49.8062 27.5271 49.661 27.0989C49.2328 25.8441 49.162 25.7659 48.4993 24.7643C48.4732 24.7233 48.3615 24.5483 48.3503 24.5372L47.2817 23.1707L42.6014 19.8382C35.9254 15.843 33.6764 21.4877 33.7472 15.0723C31.3195 15.4483 31.3828 15.1654 30.4371 16.8037H30.4445Z" fill="#40DE8A"/>
<path fill-rule="evenodd" clip-rule="evenodd" d="M49.8397 29.7648C50.1003 31.243 49.9626 32.2967 49.4003 33.492C53.6227 31.4292 52.2041 24.3584 49.9328 21.4989C49.3482 20.7616 48.9461 20.1473 48.1791 19.5999L46.4216 18.3563C44.8392 18.0696 43.6402 17.7643 41.9759 17.6563C40.9259 17.5893 37.6679 18.0733 36.7855 18.267C37.7386 18.4345 38.6695 18.0994 39.4179 18.3898C40.4121 18.7733 41.6706 19.2797 42.6051 19.8345L47.2855 23.167L48.3541 24.5334C48.3615 24.5446 48.4769 24.7196 48.503 24.7606C49.1658 25.7659 49.2365 25.8404 49.6647 27.0951C49.8099 27.5233 50.2381 29.1765 49.8434 29.7611L49.8397 29.7648Z" fill="#39DB84"/>
<path fill-rule="evenodd" clip-rule="evenodd" d="M33.6541 32.7026C34.0264 34.9366 34.0785 34.7654 36.603 35.16C35.728 33.1084 36.2456 33.5925 33.6541 32.7026Z" fill="white"/>
<path fill-rule="evenodd" clip-rule="evenodd" d="M10.8966 26.2797C12.2743 26.9313 11.8908 31.2244 11.7456 32.3303C11.4812 34.3446 11.0009 36.4334 10.5057 38.3733C9.2844 43.1765 8.37216 48.259 9.07216 52.6228C10.5615 56.0074 12.6652 59.0568 15.2456 61.6334C16.3142 62.2106 17.5392 62.6983 18.9429 63.0744C20.4323 63.4765 23.828 64.0611 25.5184 63.8675L25.511 63.7185C24.8817 63.2494 24.2637 62.3781 23.8317 61.6893C22.2195 59.1164 22.0333 56.0148 23.4706 53.4047C23.8913 52.6414 24.3493 51.934 24.9897 51.3904C26.2147 50.3552 26.5498 49.8526 27.8791 48.8845C28.0615 48.5531 28.2886 48.2143 28.445 47.9015C28.6796 47.4435 28.7652 47.0489 28.9179 46.401C29.0743 45.7531 29.2977 44.8558 29.4727 44.1781C29.6477 43.5005 29.7706 43.0425 30.1652 42.4393C30.2509 42.3127 30.3477 42.1749 30.4519 42.0409C30.3216 42.0483 30.1876 42.0521 30.0535 42.0521C30.0424 42.1303 30.0238 42.3127 29.9902 42.3946C29.8711 42.6888 29.9195 42.5249 29.7743 42.6701C29.1041 45.3845 26.103 47.5404 22.9493 47.7712C19.0062 48.0579 16.2472 46.5313 14.6312 44.2638C11.1424 39.3675 14.4488 33.2909 13.6817 29.0164C13.4323 27.6164 12.2557 25.6021 10.8929 26.2723L10.8966 26.2797Z" fill="#2CBD70"/>
</svg>
