<?xml version="1.0" encoding="UTF-8"?>
<!DOCTYPE svg PUBLIC "-//W3C//DTD SVG 1.0//EN" "http://www.w3.org/TR/2001/REC-SVG-20010904/DTD/svg10.dtd">
<!-- Creator: CorelDRAW -->
<svg xmlns="http://www.w3.org/2000/svg" xml:space="preserve" width="24.2016mm" height="24.2016mm" version="1.0" style="shape-rendering:geometricPrecision; text-rendering:geometricPrecision; image-rendering:optimizeQuality; fill-rule:evenodd; clip-rule:evenodd"
viewBox="0 0 1295.1 1295.1"
 xmlns:xlink="http://www.w3.org/1999/xlink"
 xmlns:xodm="http://www.corel.com/coreldraw/odm/2003">
 <defs>
  <style type="text/css">
   <![CDATA[
    .fil5 {fill:none}
    .fil2 {fill:#006633}
    .fil1 {fill:url(#id0)}
    .fil3 {fill:url(#id1)}
    .fil4 {fill:url(#id2)}
    .fil0 {fill:url(#id3)}
   ]]>
  </style>
  <linearGradient id="id0" gradientUnits="userSpaceOnUse" x1="266.97" y1="749.04" x2="458.76" y2="1009.35">
   <stop offset="0" style="stop-opacity:1; stop-color:#86C2A2"/>
   <stop offset="0.560784" style="stop-opacity:1; stop-color:#61A681"/>
   <stop offset="1" style="stop-opacity:1; stop-color:#1D6941"/>
  </linearGradient>
  <linearGradient id="id1" gradientUnits="userSpaceOnUse" xlink:href="#id0" x1="192.41" y1="452.33" x2="425.14" y2="596.9">
  </linearGradient>
  <linearGradient id="id2" gradientUnits="userSpaceOnUse" xlink:href="#id0" x1="765.73" y1="453.08" x2="997.21" y2="595.59">
  </linearGradient>
  <linearGradient id="id3" gradientUnits="userSpaceOnUse" xlink:href="#id0" x1="753.72" y1="747.89" x2="944.68" y2="1007.27">
  </linearGradient>
 </defs>
 <g id="Layer_x0020_1">
  <metadata id="CorelCorpID_0Corel-Layer"/>
  <g id="_105553149350176">
   <g>
    <path class="fil0" d="M1026.89 1185.97c29.91,-2.72 54.39,-24.48 65.26,-46.23 10.87,-24.47 8.16,-70.7 8.16,-106.05 0,-43.51 2.72,-323.59 0,-339.91 -8.16,-5.44 -369.82,0 -416.05,-2.72l0 494.9 345.35 0 -2.72 0.01z"/>
    <path class="fil1" d="M616.28 1185.97l0 -492.19c-70.7,0 -138.68,0 -209.38,0 -32.63,0 -187.63,-5.44 -209.39,2.72l0 339.91c0,38.07 -2.71,78.86 8.16,106.05 8.16,21.75 35.35,43.51 65.26,46.22l345.34 0 0 -2.72z"/>
    <path class="fil2" d="M648.91 313.08l0 380.7 35.35 0 0 -222.98c67.99,-2.72 125.09,-10.88 187.63,-27.2 16.32,-5.44 40.79,-16.31 54.39,-19.03l2.72 -2.72c0,0 2.72,0 2.72,-2.72 2.72,0 2.72,-2.72 5.44,-2.72 32.63,-16.31 46.23,-21.75 78.86,-46.23 24.47,-19.03 54.38,-48.94 67.98,-76.14 16.32,-35.35 27.19,-73.42 8.16,-111.49 -27.2,-54.38 -78.86,-73.42 -141.41,-73.42l-40.78 0c-10.88,0 -19.04,0 -27.2,2.72 -21.75,5.44 -59.82,16.32 -78.86,27.2 -54.38,32.63 -89.73,70.7 -125.08,125.08 -5.44,8.16 -8.16,16.32 -13.6,24.48l-8.16 19.03c0,0 0,0 0,0 -2.72,2.72 0,0 -2.72,2.72l-5.44 2.72zm29.91 87.02c32.63,-108.77 89.73,-203.95 198.5,-222.98 95.18,-16.32 187.63,21.75 111.49,108.77 -43.51,51.66 -116.93,78.86 -184.91,97.89 -29.91,8.16 -92.45,19.03 -125.08,16.32z"/>
    <path class="fil2" d="M371.55 421.85c10.88,0 40.79,13.6 54.38,16.32 65.26,19.03 116.93,24.47 190.35,29.91l0 222.98 32.63 0 0 -380.7c-8.16,-13.6 -10.87,-24.47 -24.47,-46.23 -46.23,-78.86 -108.77,-135.96 -201.23,-155 -5.44,0 -13.59,-2.71 -24.47,-2.71l-59.82 0c-19.04,0 -38.07,2.71 -48.95,8.16 -32.63,10.88 -62.54,29.91 -78.86,62.55 -35.35,70.7 16.32,146.84 70.7,190.35 27.19,21.75 48.95,32.63 78.86,46.22l8.16 2.72c0,0 0,0 0,0 2.72,2.72 2.72,0 2.72,2.72l-0.01 2.72zm236.58 -21.75c-32.63,-108.77 -89.73,-203.95 -198.5,-222.98 -95.18,-16.32 -187.63,21.75 -111.49,108.77 43.51,51.66 116.93,78.86 184.91,97.89 29.91,8.16 92.45,19.03 125.08,16.32z"/>
    <path class="fil3" d="M197.51 693.78c21.76,-5.44 174.04,-2.72 209.39,-2.72 70.7,0 138.68,0 209.38,0l0 0 0 -222.98c-70.7,-2.72 -122.36,-10.88 -190.35,-29.91 -13.59,-2.71 -43.51,-16.31 -54.38,-16.31 -46.23,-2.72 -106.05,0 -155,0 -29.91,0 -46.23,0 -67.98,10.88 -29.91,16.31 -38.07,40.79 -40.79,67.98l0 48.94 0 76.14c0,0 0,2.72 0,2.72 2.72,27.2 24.47,54.39 54.39,62.55 13.59,5.44 21.75,2.72 35.35,5.44l0 -2.72z"/>
    <path class="fil4" d="M681.54 691.06c46.23,0 407.89,-2.72 416.05,2.72 48.95,0 84.3,-27.2 89.74,-67.98 0,0 0,0 0,-2.72l0 -108.77c0,-19.04 -2.72,-35.35 -5.44,-40.79 -19.03,-51.67 -59.82,-51.67 -103.33,-51.67 -51.67,0 -103.33,0 -155,0 -16.32,2.72 -38.07,13.6 -54.39,19.03 -62.54,19.04 -119.64,27.2 -187.63,27.2l0 222.98 -0.01 0z"/>
    <polygon class="fil2" points="648.91,1185.97 681.54,1185.97 681.54,691.06 648.91,691.06 "/>
    <polygon class="fil2" points="616.28,1185.97 648.91,1185.97 648.91,691.06 613.56,693.78 616.28,693.78 "/>
   </g>
   <rect class="fil5" width="1295.1" height="1295.1"/>
  </g>
 </g>
</svg>
