<?xml version="1.0" encoding="UTF-8"?>
<!DOCTYPE svg PUBLIC "-//W3C//DTD SVG 1.1//EN" "http://www.w3.org/Graphics/SVG/1.1/DTD/svg11.dtd">
<!-- Creator: CorelDRAW -->
<svg xmlns="http://www.w3.org/2000/svg" xml:space="preserve" width="24.2016mm" height="24.2016mm" version="1.1" style="shape-rendering:geometricPrecision; text-rendering:geometricPrecision; image-rendering:optimizeQuality; fill-rule:evenodd; clip-rule:evenodd"
viewBox="0 0 723.86 723.86"
 xmlns:xlink="http://www.w3.org/1999/xlink"
 xmlns:xodm="http://www.corel.com/coreldraw/odm/2003">
 <defs>
  <style type="text/css">
   <![CDATA[
    .fil2 {fill:none}
    .fil0 {fill:#006633}
    .fil1 {fill:url(#id0)}
   ]]>
  </style>
  <linearGradient id="id0" gradientUnits="objectBoundingBox" x1="16.8927%" y1="12.1242%" x2="62.4464%" y2="64.0884%">
   <stop offset="0" style="stop-opacity:1; stop-color:#86C2A2"/>
   <stop offset="0.560784" style="stop-opacity:1; stop-color:#61A681"/>
   <stop offset="1" style="stop-opacity:1; stop-color:#1D6941"/>
  </linearGradient>
 </defs>
 <g id="Layer_x0020_1">
  <metadata id="CorelCorpID_0Corel-Layer"/>
  <g id="_105553163212960">
   <g>
    <circle class="fil0" cx="365.99" cy="357.48" r="158.5"/>
    <path class="fil1" d="M50.63 586.24c6.54,0 19.61,-4.9 22.87,-6.54 6.54,-4.9 11.44,-9.8 16.34,-16.34 4.9,-8.17 13.07,-40.85 13.07,-49.02 4.9,3.27 6.54,8.17 9.8,13.07 1.63,3.27 3.27,4.9 4.9,6.54 1.63,3.27 3.27,4.9 4.9,6.54 22.87,29.41 44.12,50.66 76.8,71.9 50.66,31.05 96.41,45.75 169.94,45.75 94.77,0 179.74,-50.66 233.66,-122.55 14.71,-19.61 39.21,-58.82 39.21,-88.24 0,-9.8 -8.17,-22.87 -13.07,-27.78 -17.97,-16.34 -45.75,-14.71 -62.09,0 -6.54,6.54 -11.44,19.61 -16.34,29.41 -8.17,19.61 -27.78,45.75 -42.48,58.82 -1.63,1.63 -3.27,3.27 -6.54,4.9 -4.9,4.9 -6.54,6.54 -11.44,9.8 -76.8,63.73 -197.72,57.19 -269.61,-9.8 -3.27,-3.27 -3.27,-3.27 -6.54,-4.9 -6.54,-4.9 -24.51,-29.41 -29.41,-37.58 -4.9,-8.17 -13.07,-21.24 -14.71,-31.05 19.61,4.9 75.16,22.87 89.87,22.87 47.39,0 62.09,-70.26 11.44,-88.24l-58.82 -16.34c-19.61,-4.9 -37.58,-9.8 -57.19,-14.71 -32.68,-8.17 -68.63,-26.14 -89.87,-4.9 -19.61,17.97 -21.24,45.75 -29.41,80.07 -1.63,8.17 -29.41,106.21 -29.41,116.01 0,19.61 8.17,37.58 26.14,44.12 3.27,1.63 13.07,4.9 17.97,4.9l0 3.27z"/>
    <path class="fil1" d="M553.9 279.05c-6.54,-1.63 -13.07,-3.27 -21.24,-4.9 -13.07,-3.27 -57.19,-16.34 -68.63,-16.34 -49.02,0 -63.73,71.9 -13.07,88.24l58.82 16.34c19.61,4.9 37.58,9.8 57.19,14.71 9.8,1.63 19.61,4.9 27.78,8.17 4.9,1.63 9.8,1.63 14.71,3.27 27.78,8.17 52.29,0 62.09,-27.78l31.05 -114.38c8.17,-32.68 27.78,-73.53 1.63,-94.77 -24.51,-21.24 -57.19,-13.07 -70.26,11.44 -3.27,6.54 -4.9,14.71 -8.17,22.87 -1.63,8.17 -6.54,17.97 -6.54,26.14 -3.27,-3.27 -13.07,-19.61 -21.24,-27.78 -3.27,-4.9 -6.54,-9.8 -11.44,-14.71 -21.24,-22.87 -39.21,-40.85 -66.99,-57.19 -111.11,-66.99 -241.83,-62.09 -344.78,16.34 -22.87,17.97 -40.85,35.95 -58.82,60.46 -13.07,16.34 -39.21,58.82 -39.21,84.97 0,40.85 58.82,60.46 83.33,19.61 3.27,-4.9 4.9,-11.44 8.17,-17.97 29.41,-62.09 89.87,-107.85 158.5,-117.65 8.17,-1.63 14.71,0 22.87,-1.63 11.44,-1.63 11.44,0 22.87,0 27.78,0 60.46,11.44 80.07,21.24 13.07,6.54 34.32,21.24 44.12,31.05l6.54 6.54c0,0 0,0 0,0 14.71,13.07 40.85,49.02 44.12,66.99l6.54 -3.28z"/>
   </g>
   <rect class="fil2" width="723.86" height="723.86"/>
  </g>
 </g>
</svg>
